<?xml version="1.0" encoding="iso-8859-1"?>
<!-- Generator: Adobe Illustrator 29.8.2, SVG Export Plug-In . SVG Version: 9.03 Build 0)  -->
<svg version="1.1" xmlns="http://www.w3.org/2000/svg" xmlns:xlink="http://www.w3.org/1999/xlink" x="0px" y="0px"
	 viewBox="0 0 1156 1361" style="enable-background:new 0 0 1156 1361;" xml:space="preserve">
<g id="Male_x5F_Master_x5F_FINAL_x5F_RIG">
	<g id="Foot_R">
		<path style="fill:#339A8F;" d="M1067.716,552.472c0.856,5.239,9.083,7.659,14.006,6.992c-1.286-2.746-5.402-2.873-8.003-3.001
			c6.552-7.3,15.989,5.483,21.973,7.547c12.011,3.206,22.292,0.652,32.051-6.538h1c2.152,1.477-1.266,4.842-0.92,7.524
			c-17.788,5.007-26.308,4.204-43.676-1.449c-8.851-1.436-19.108,2.235-18.433-11.076
			C1066.279,552.598,1067.494,552.282,1067.716,552.472z"/>
		<path style="fill:#D2D5DC;" d="M1084.724,525.467c-0.507-5.024,3.645-11.762,9.341-9.878c2.734,0.904,2.926,6.655,3.913,7.634
			c0.961,0.953,3.443,0.056,4.991,3.497c1.688,3.752,0.015,3.918-0.238,5.748c-0.95-0.458-3.297-4.058-3.568-4.06
			c-1.242-0.007-5.301,2.705-5.418,3.569c-0.02,0.15,2.478,0.418,2.983,0.491c-7.62,5.37-4.813-1.557-5.106-1.926
			c-0.292-0.367-1.624,0.116-1.897-0.075c-0.402-0.538-1.265-2.099-1-3.001c5.35,2.657,2.024-2.107,2.992-3.01
			c0.789-0.735,4.129,1.582,4.043-1.506c-0.191-6.814-6.982-7.363-8.051-1.925c-0.617,3.137,1.966,2.198,2.095,3.027
			c0.229,1.474-1.055,2.225-1.079,2.414C1087.384,526.174,1086.072,525.728,1084.724,525.467z"/>
		<path style="fill:#D2D5DC;" d="M1073.719,538.469c-0.556-1.349-0.627-1.413-1-3.001
			C1074.219,536.844,1073.442,538.026,1073.719,538.469z"/>
		<path style="fill:#D2D5DC;" d="M1078.721,551.472c-1.625,0.084-3.108,0.468-4.002-1
			C1076.557,550.804,1076.595,550.051,1078.721,551.472z"/>
		<path style="fill:#D2D5DC;" d="M1081.722,550.472c5.297-0.471,14.038,9.002,20.509,9.002h17.008c0.437,0,2.633-2.82,2.492,0.486
			c-11.994,5.529-32.482-1.992-43.01-8.488C1080.433,551.383,1081.506,550.491,1081.722,550.472z"/>
		<path style="fill:#D2D5DC;" d="M1081.722,550.472c-2.415,2.06-2.861-3.701-3.001-4.001
			C1079.198,547.183,1082.137,550.119,1081.722,550.472z"/>
		<path style="fill:#D2D5DC;" d="M1080.722,524.466c-0.276-0.008-1.531,0.73-2.001,1c0.296-3.841-1.343-3.879-4.002-5.001
			c-0.242-0.102-0.155-1.557-1.996-0.996c0.521,5.899-1.347,10.296-0.005,15.999c-5.525-3.282-2.128,9.286-2.992,11.998
			c1.755,0.512,0.479-2.406,1.487-1.992c2.164,0.888,2.672,3.628,3.506,4.998c-3.142-0.567-6.929-2.062-7.003,2
			c-0.222-0.19-1.437,0.126-2.001,0c1.052-10.455,5.218-22.414,5.518-32.986C1074.194,512.89,1080.504,519.507,1080.722,524.466z"/>
		<path style="fill:#D2D5DC;" d="M1078.721,546.471c-0.289-0.619-0.677-1.399-1-2
			C1078.276,545.341,1078.537,546.197,1078.721,546.471z"/>
		<path style="fill:#D2D5DC;" d="M1077.72,544.471c-0.181-0.338-0.788-0.622-1-1C1076.921,543.805,1077.472,544.082,1077.72,544.471
			z"/>
		<path style="fill:#D2D5DC;" d="M1074.719,539.47c-0.166-0.342-0.853-0.644-1-1C1073.926,538.802,1074.48,539.075,1074.719,539.47z
			"/>
		<path style="fill:#D2D5DC;" d="M1076.72,543.471c-0.413-0.736-0.646-1.272-1-2C1076.177,542.212,1076.399,542.938,1076.72,543.471
			z"/>
		<path style="fill:#D2D5DC;" d="M1075.719,541.47c-0.324-0.665-0.671-1.323-1-2C1075.18,540.233,1075.435,541.009,1075.719,541.47z
			"/>
		<path style="fill:#EF925C;" d="M1084.724,525.467c1.348,0.262,2.66,0.707,4.002,1c0.024,0.617-0.078,1.417,0,2
			c-3.286-0.38-5.363,2.558-7.003,5.001c-2.968-1.247-3.909,1.71-6.003-4.001c-0.056-2.826,2.95-4.069,5.002-5.001
			C1080.928,524.472,1083.561,525.241,1084.724,525.467z"/>
		<path style="fill:#D2D5DC;" d="M1102.732,533.468c3.683-1.018,2.799,1.82,3.001,2c1.957,1.745,2.671,2.712,4.002,4.001
			c6.036,8.4,21.03,6.085,19.009,18.004h-1c0.531-1.243-0.924-2.552-1-3.001c-0.177-1.043,0.425-3.295-0.105-3.878
			c-3.202-1.132-9.418-2.651-12.671-5.901c-1.066-0.503-2.796-0.007-3.231-0.223c-0.074-0.037,0.144-1.074-0.41-1.602
			c-3.238-0.997-0.491-1.898-0.59-3.399c-0.363-0.318-3.728,0.33-4.011,0.009c-0.335-0.379,0.314-3.764,0.01-4.01
			C1104.977,534.858,1102.605,537.059,1102.732,533.468z"/>
		<path style="fill:#ECECED;" d="M1072.718,535.469c0.465,1.821,0.626,2.836,2.001,4.001c0.981,2.608,2.81,4.564,4.002,7.001
			c0.14,0.3,0.586,6.061,3.001,4.001c-0.216,0.019-1.289,0.911-3.001,1c-2.126-1.421-2.164-0.668-4.002-1
			c-0.834-1.37-1.342-4.11-3.506-4.998c-1.008-0.414,0.268,2.505-1.487,1.992C1070.59,544.775,1067.194,532.175,1072.718,535.469z"
			/>
		<path style="fill:#ECECED;" d="M1074.719,520.466c-0.243,3.606-0.209,5.704,1,9.002c2.094,5.711,3.035,2.754,6.003,4.001
			c0.489,0.205,0.834,2.872,1.016,2.997c1.226,0.844,3.942-3.004,4.982-1.992c0.766,0.746-2.42,3.357-1.854,6.261
			c0.463,2.373,7.224,9.409,9.526,9.598c1.607,0.132,2.16-2.137,3.317-1.371c-2.17,2.57-1.263,10.893,1.99,6.774
			c0.072-0.091,0.203-2.236,1.016-1.258c0.283,0.34-0.021,2.294,1.63,2.879c1.501,0.532,12.642,0.393,14.92,0.145
			c3.736-0.406,4.954-3.033,8.476-3.028c0.076,0.448,1.531,1.757,1,3.001c-9.76,7.19-20.04,9.744-32.051,6.538
			c-5.974-2.059-15.432-14.849-21.973-7.547c2.601,0.127,6.718,0.254,8.003,3.001c-4.917,0.671-13.158-1.759-14.006-6.992
			c0.074-4.063,3.861-2.568,7.003-2c0.894,1.468,2.377,1.085,4.002,1c10.508,6.49,31.028,14.021,43.01,8.488
			c0.141-3.306-2.056-0.486-2.492-0.486h-17.008c-6.472,0-15.213-9.473-20.509-9.002c0.414-0.353-2.524-3.289-3.001-4.001
			c-0.472-1.532-2.315-3.222-3.001-5.001c-0.362-0.807-1.085-2.363-2.001-3c-0.277-0.443,0.5-1.625-1-3.001
			c-1.343-5.703,0.525-10.1,0.005-15.999C1074.564,518.909,1074.477,520.363,1074.719,520.466z"/>
		<path style="fill:#FCFCFB;" d="M1088.725,528.467c0.13,0.42,0.826,1.879,1,2c-2.661-2.635-2.666,5.632-0.005,2.996
			c0.106-0.105,0.111-2.891,0.005-2.996c0.273,0.19,1.605-0.293,1.897,0.075c0.293,0.369-2.514,7.296,5.106,1.926
			c0.946,0.137,2.024-0.102,2.996,0.009c-0.042,1.744-2.605,1.227-3.518,2.969c-1.922,3.669,0.136,4.642,3.516,5.035
			c0.441,1.762-1.742,0.664-1.989,0.992c2.5,7.883,6.927,8.895,13.001,2.997c3.189-0.614,4.856,1.54,7.295,3.21
			c1.66,0.792,8.302,2.578,8.607,2.914c0.531,0.583-0.072,2.835,0.105,3.878c-3.522-0.005-4.741,2.621-8.476,3.028
			c-2.278,0.248-13.419,0.387-14.92-0.145c-1.651-0.585-1.347-2.539-1.63-2.879c-0.813-0.978-0.945,1.168-1.016,1.258
			c-3.253,4.12-4.159-4.203-1.99-6.774c-1.156-0.766-1.709,1.503-3.317,1.371c-2.303-0.189-9.064-7.225-9.526-9.598
			c-0.566-2.904,2.619-5.515,1.854-6.261c-1.04-1.012-3.755,2.836-4.982,1.992c-0.182-0.125-0.528-2.792-1.016-2.997
			C1083.362,531.025,1085.44,528.087,1088.725,528.467z M1090.217,534.487c-1.387-0.024,1.516,2.878,1.492,1.491
			C1091.706,535.853,1090.342,534.489,1090.217,534.487z M1094.723,537.478c-1.406-0.719-2.67,0.635-1.992,0.982
			C1094.138,539.179,1095.402,537.825,1094.723,537.478z M1106.729,549.477c-1.092-1.091-3.083,0.9-1.991,1.991
			S1107.82,550.568,1106.729,549.477z"/>
		<path style="fill:#FDFDFD;" d="M1088.725,526.467c0.024-0.189,1.309-0.941,1.079-2.414c-0.129-0.829-2.712,0.11-2.095-3.027
			c1.069-5.438,7.861-4.889,8.051,1.925c0.086,3.088-3.254,0.771-4.043,1.506c-0.968,0.903,2.358,5.667-2.992,3.01
			C1088.753,527.136,1088.683,526.793,1088.725,526.467z"/>
		<path style="fill:#ECECED;" d="M1096.729,532.468c-0.505-0.073-3.004-0.341-2.983-0.491c0.117-0.863,4.176-3.575,5.418-3.569
			c0.27,0.001,2.618,3.602,3.568,4.06c-0.355,4.244,1.315,2.724,3.001,3c0.304,0.246-0.345,3.631-0.01,4.01
			c0.283,0.321,3.649-0.328,4.011-0.009c0.35,0.307-0.978,1.639-1.023,2.404c0.582,1.149,2.266,0.296,2.024,2.597
			c-6.084,5.909-10.505,4.872-13.001-2.998c0.248-0.328,2.431,0.771,1.99-0.992c-3.38-0.393-5.438-1.366-3.516-5.035
			c0.912-1.741,3.476-1.225,3.518-2.969C1098.753,532.366,1097.675,532.606,1096.729,532.468z"/>
		<path style="fill:#BCBBBC;" d="M1078.721,525.467c-1.691,0.973-2.962,1.818-3.001,4.001c-1.209-3.298-1.243-5.396-1-9.002
			C1077.378,521.588,1079.017,521.625,1078.721,525.467z"/>
		<path style="fill:#ECECED;" d="M1089.726,530.468c0.106,0.105,0.102,2.891-0.005,2.996
			C1087.059,536.1,1087.065,527.832,1089.726,530.468z"/>
		<path style="fill:#ECECED;" d="M1106.729,549.477c1.091,1.091-0.9,3.082-1.991,1.991S1105.637,548.385,1106.729,549.477z"/>
		<path style="fill:#ECECED;" d="M1094.723,537.478c0.678,0.347-0.585,1.701-1.992,0.982
			C1092.053,538.114,1093.317,536.76,1094.723,537.478z"/>
		<path style="fill:#ECECED;" d="M1090.217,534.487c0.125,0.002,1.489,1.367,1.492,1.491
			C1091.733,537.365,1088.83,534.463,1090.217,534.487z"/>
	</g>
</g>
<g id="RIG_x5F_GUIDES" style="display:none;">
	
		<line style="display:inline;fill:#FFFFFF;stroke:#E61E5A;stroke-width:0.75;stroke-miterlimit:10;" x1="174" y1="148" x2="184" y2="148"/>
	
		<line style="display:inline;fill:#FFFFFF;stroke:#E61E5A;stroke-width:0.75;stroke-miterlimit:10;" x1="179" y1="153" x2="179" y2="143"/>
	<circle style="display:inline;fill:#E61E5A;" cx="179" cy="148" r="2"/>
	<g style="display:inline;">
		<path d="M185.978,145.002v1.691h1.955v-1.691h0.527v4.042h-0.527v-1.895h-1.955v1.895h-0.522v-4.042H185.978z"/>
		<path d="M189.644,147.688c0.012,0.714,0.468,1.008,0.996,1.008c0.378,0,0.605-0.066,0.804-0.15l0.09,0.378
			c-0.186,0.084-0.504,0.18-0.965,0.18c-0.894,0-1.427-0.587-1.427-1.463c0-0.875,0.516-1.565,1.361-1.565
			c0.947,0,1.199,0.834,1.199,1.367c0,0.108-0.012,0.192-0.018,0.246H189.644z M191.191,147.311
			c0.006-0.336-0.138-0.857-0.731-0.857c-0.534,0-0.768,0.492-0.81,0.857H191.191z"/>
		<path d="M193.963,149.044l-0.042-0.366h-0.018c-0.162,0.229-0.474,0.433-0.888,0.433c-0.587,0-0.887-0.414-0.887-0.834
			c0-0.701,0.624-1.085,1.745-1.079v-0.061c0-0.239-0.066-0.671-0.66-0.671c-0.27,0-0.552,0.084-0.756,0.216l-0.12-0.349
			c0.24-0.155,0.587-0.258,0.953-0.258c0.888,0,1.104,0.606,1.104,1.188v1.086c0,0.252,0.012,0.497,0.048,0.695H193.963z
			 M193.885,147.562c-0.576-0.012-1.229,0.09-1.229,0.654c0,0.342,0.228,0.503,0.498,0.503c0.378,0,0.618-0.239,0.702-0.485
			c0.018-0.054,0.03-0.114,0.03-0.168V147.562z"/>
		<path d="M197.754,144.786v3.508c0,0.258,0.006,0.552,0.024,0.75h-0.474l-0.024-0.504h-0.012c-0.162,0.324-0.516,0.57-0.989,0.57
			c-0.702,0-1.241-0.594-1.241-1.476c-0.006-0.966,0.594-1.56,1.301-1.56c0.444,0,0.744,0.21,0.875,0.444h0.012v-1.733H197.754z
			 M197.227,147.323c0-0.066-0.006-0.156-0.024-0.223c-0.078-0.335-0.366-0.611-0.761-0.611c-0.546,0-0.87,0.479-0.87,1.121
			c0,0.588,0.288,1.074,0.857,1.074c0.354,0,0.678-0.234,0.773-0.63c0.018-0.072,0.024-0.145,0.024-0.229V147.323z"/>
	</g>
	
		<line style="display:inline;fill:#FFFFFF;stroke:#E61E5A;stroke-width:0.75;stroke-miterlimit:10;" x1="174" y1="165" x2="184" y2="165"/>
	
		<line style="display:inline;fill:#FFFFFF;stroke:#E61E5A;stroke-width:0.75;stroke-miterlimit:10;" x1="179" y1="170" x2="179" y2="160"/>
	<circle style="display:inline;fill:#E61E5A;" cx="179" cy="165" r="2"/>
	<g style="display:inline;">
		<path d="M185.456,166.044v-4.042h0.57l1.295,2.045c0.3,0.474,0.534,0.899,0.726,1.313l0.012-0.006
			c-0.048-0.54-0.06-1.031-0.06-1.661v-1.691h0.492v4.042h-0.528l-1.283-2.051c-0.282-0.45-0.552-0.911-0.756-1.35l-0.018,0.006
			c0.03,0.51,0.042,0.996,0.042,1.668v1.727H185.456z"/>
		<path d="M189.679,164.688c0.012,0.714,0.468,1.008,0.996,1.008c0.378,0,0.605-0.066,0.804-0.15l0.09,0.378
			c-0.186,0.084-0.504,0.18-0.965,0.18c-0.894,0-1.427-0.587-1.427-1.463c0-0.875,0.516-1.565,1.361-1.565
			c0.947,0,1.199,0.834,1.199,1.367c0,0.108-0.012,0.192-0.018,0.246H189.679z M191.227,164.311
			c0.006-0.336-0.138-0.857-0.731-0.857c-0.534,0-0.768,0.492-0.81,0.857H191.227z"/>
		<path d="M194.46,165.936c-0.138,0.072-0.444,0.168-0.834,0.168c-0.875,0-1.445-0.594-1.445-1.48c0-0.894,0.611-1.541,1.559-1.541
			c0.312,0,0.587,0.077,0.731,0.149l-0.12,0.408c-0.126-0.072-0.324-0.139-0.612-0.139c-0.666,0-1.025,0.492-1.025,1.098
			c0,0.672,0.432,1.086,1.007,1.086c0.3,0,0.498-0.078,0.647-0.145L194.46,165.936z"/>
		<path d="M195.601,164.473h0.012c0.072-0.102,0.174-0.228,0.258-0.33l0.852-1.001h0.635l-1.121,1.193l1.277,1.709h-0.642
			l-1.001-1.392l-0.27,0.3v1.092h-0.521v-4.258h0.521V164.473z"/>
	</g>
	
		<line style="display:inline;fill:#FFFFFF;stroke:#E61E5A;stroke-width:0.75;stroke-miterlimit:10;" x1="174" y1="148" x2="184" y2="148"/>
	
		<line style="display:inline;fill:#FFFFFF;stroke:#E61E5A;stroke-width:0.75;stroke-miterlimit:10;" x1="179" y1="153" x2="179" y2="143"/>
	<circle style="display:inline;fill:#E61E5A;" cx="179" cy="148" r="2"/>
	<g style="display:inline;">
		<path d="M185.978,145.002v1.691h1.955v-1.691h0.527v4.042h-0.527v-1.895h-1.955v1.895h-0.522v-4.042H185.978z"/>
		<path d="M190.957,149.044l-0.042-0.366h-0.018c-0.162,0.229-0.474,0.433-0.888,0.433c-0.587,0-0.887-0.414-0.887-0.834
			c0-0.701,0.624-1.085,1.745-1.079v-0.061c0-0.239-0.066-0.671-0.66-0.671c-0.27,0-0.552,0.084-0.756,0.216l-0.12-0.349
			c0.24-0.155,0.587-0.258,0.953-0.258c0.888,0,1.104,0.606,1.104,1.188v1.086c0,0.252,0.012,0.497,0.048,0.695H190.957z
			 M190.879,147.562c-0.576-0.012-1.229,0.09-1.229,0.654c0,0.342,0.228,0.503,0.498,0.503c0.378,0,0.618-0.239,0.702-0.485
			c0.018-0.054,0.03-0.114,0.03-0.168V147.562z"/>
		<path d="M192.83,145.326c0.006,0.18-0.126,0.323-0.336,0.323c-0.186,0-0.318-0.144-0.318-0.323c0-0.187,0.138-0.33,0.33-0.33
			C192.704,144.996,192.83,145.14,192.83,145.326z M192.242,149.044v-2.902h0.527v2.902H192.242z"/>
		<path d="M193.646,147.047c0-0.342-0.006-0.636-0.024-0.905h0.462l0.018,0.569h0.024c0.132-0.39,0.45-0.636,0.804-0.636
			c0.06,0,0.102,0.007,0.15,0.019v0.497c-0.054-0.012-0.108-0.018-0.18-0.018c-0.372,0-0.635,0.282-0.708,0.678
			c-0.012,0.072-0.024,0.156-0.024,0.246v1.547h-0.521V147.047z"/>
	</g>
	
		<line style="display:inline;fill:#FFFFFF;stroke:#E61E5A;stroke-width:0.75;stroke-miterlimit:10;" x1="87" y1="172.3" x2="97" y2="172.3"/>
	
		<line style="display:inline;fill:#FFFFFF;stroke:#E61E5A;stroke-width:0.75;stroke-miterlimit:10;" x1="92" y1="177.3" x2="92" y2="167.3"/>
	<circle style="display:inline;fill:#E61E5A;" cx="92" cy="172.3" r="2"/>
	<g style="display:inline;">
		<path d="M98.978,169.302v2.393c0,0.906,0.402,1.29,0.941,1.29c0.6,0,0.983-0.396,0.983-1.29v-2.393h0.528v2.356
			c0,1.242-0.654,1.752-1.529,1.752c-0.828,0-1.451-0.475-1.451-1.728v-2.381H98.978z"/>
		<path d="M102.32,171.389c0-0.372-0.012-0.672-0.024-0.947h0.474l0.024,0.498h0.012c0.216-0.354,0.558-0.564,1.032-0.564
			c0.702,0,1.229,0.594,1.229,1.476c0,1.043-0.635,1.56-1.319,1.56c-0.384,0-0.719-0.168-0.893-0.456h-0.012v1.577h-0.521V171.389z
			 M102.841,172.162c0,0.078,0.012,0.15,0.024,0.216c0.096,0.366,0.414,0.618,0.792,0.618c0.558,0,0.882-0.456,0.882-1.121
			c0-0.582-0.306-1.08-0.864-1.08c-0.36,0-0.696,0.258-0.797,0.654c-0.018,0.065-0.036,0.144-0.036,0.216V172.162z"/>
		<path d="M105.734,171.389c0-0.372-0.012-0.672-0.024-0.947h0.474l0.024,0.498h0.012c0.216-0.354,0.558-0.564,1.032-0.564
			c0.702,0,1.229,0.594,1.229,1.476c0,1.043-0.635,1.56-1.319,1.56c-0.384,0-0.719-0.168-0.893-0.456h-0.012v1.577h-0.521V171.389z
			 M106.255,172.162c0,0.078,0.012,0.15,0.024,0.216c0.096,0.366,0.414,0.618,0.792,0.618c0.558,0,0.882-0.456,0.882-1.121
			c0-0.582-0.306-1.08-0.864-1.08c-0.36,0-0.696,0.258-0.797,0.654c-0.018,0.065-0.036,0.144-0.036,0.216V172.162z"/>
		<path d="M109.441,171.988c0.012,0.714,0.468,1.008,0.996,1.008c0.378,0,0.605-0.066,0.804-0.15l0.09,0.378
			c-0.186,0.084-0.504,0.18-0.965,0.18c-0.894,0-1.427-0.587-1.427-1.463c0-0.875,0.516-1.565,1.361-1.565
			c0.947,0,1.199,0.834,1.199,1.367c0,0.108-0.012,0.192-0.018,0.246H109.441z M110.989,171.61c0.006-0.336-0.138-0.857-0.731-0.857
			c-0.534,0-0.768,0.492-0.81,0.857H110.989z"/>
		<path d="M112.154,171.347c0-0.342-0.006-0.636-0.024-0.905h0.462l0.018,0.569h0.024c0.132-0.39,0.45-0.636,0.804-0.636
			c0.06,0,0.102,0.007,0.15,0.019v0.497c-0.054-0.012-0.108-0.018-0.18-0.018c-0.372,0-0.635,0.282-0.708,0.678
			c-0.012,0.072-0.024,0.156-0.024,0.246v1.547h-0.521V171.347z"/>
		<path d="M116.059,172.072l-0.42,1.271h-0.54l1.373-4.042h0.63l1.379,4.042h-0.558l-0.432-1.271H116.059z M117.384,171.665
			l-0.396-1.164c-0.09-0.264-0.15-0.503-0.21-0.737h-0.012c-0.06,0.24-0.126,0.485-0.204,0.731l-0.396,1.17H117.384z"/>
		<path d="M119.042,171.347c0-0.342-0.006-0.636-0.024-0.905h0.462l0.018,0.569h0.024c0.132-0.39,0.45-0.636,0.804-0.636
			c0.06,0,0.102,0.007,0.15,0.019v0.497c-0.054-0.012-0.108-0.018-0.18-0.018c-0.372,0-0.635,0.282-0.708,0.678
			c-0.012,0.072-0.024,0.156-0.024,0.246v1.547h-0.521V171.347z"/>
		<path d="M121.027,171.227c0-0.3-0.006-0.545-0.024-0.785h0.462l0.024,0.468h0.018c0.162-0.276,0.432-0.534,0.912-0.534
			c0.396,0,0.695,0.24,0.821,0.582h0.012c0.09-0.162,0.204-0.288,0.324-0.378c0.174-0.132,0.366-0.204,0.642-0.204
			c0.384,0,0.954,0.252,0.954,1.26v1.709h-0.516V171.7c0-0.558-0.204-0.893-0.63-0.893c-0.3,0-0.534,0.222-0.624,0.479
			c-0.024,0.071-0.042,0.168-0.042,0.264v1.793h-0.516v-1.739c0-0.462-0.204-0.797-0.606-0.797c-0.33,0-0.569,0.264-0.653,0.527
			c-0.03,0.078-0.042,0.168-0.042,0.258v1.751h-0.516V171.227z"/>
		<path d="M127.321,169.302h0.522v3.604h1.727v0.438h-2.249V169.302z"/>
	</g>
	
		<line style="display:inline;fill:#FFFFFF;stroke:#E61E5A;stroke-width:0.75;stroke-miterlimit:10;" x1="261" y1="172.3" x2="271" y2="172.3"/>
	
		<line style="display:inline;fill:#FFFFFF;stroke:#E61E5A;stroke-width:0.75;stroke-miterlimit:10;" x1="266" y1="177.3" x2="266" y2="167.3"/>
	<circle style="display:inline;fill:#E61E5A;" cx="266" cy="172.3" r="2"/>
	<g style="display:inline;">
		<path d="M272.978,169.302v2.393c0,0.906,0.402,1.29,0.941,1.29c0.6,0,0.983-0.396,0.983-1.29v-2.393h0.528v2.356
			c0,1.242-0.654,1.752-1.529,1.752c-0.828,0-1.451-0.475-1.451-1.728v-2.381H272.978z"/>
		<path d="M276.32,171.389c0-0.372-0.012-0.672-0.024-0.947h0.474l0.024,0.498h0.012c0.216-0.354,0.558-0.564,1.032-0.564
			c0.702,0,1.229,0.594,1.229,1.476c0,1.043-0.635,1.56-1.319,1.56c-0.384,0-0.719-0.168-0.893-0.456h-0.012v1.577h-0.521V171.389z
			 M276.841,172.162c0,0.078,0.012,0.15,0.024,0.216c0.096,0.366,0.414,0.618,0.792,0.618c0.558,0,0.882-0.456,0.882-1.121
			c0-0.582-0.306-1.08-0.864-1.08c-0.36,0-0.696,0.258-0.797,0.654c-0.018,0.065-0.036,0.144-0.036,0.216V172.162z"/>
		<path d="M279.734,171.389c0-0.372-0.012-0.672-0.024-0.947h0.474l0.024,0.498h0.012c0.216-0.354,0.558-0.564,1.032-0.564
			c0.702,0,1.229,0.594,1.229,1.476c0,1.043-0.635,1.56-1.319,1.56c-0.384,0-0.719-0.168-0.893-0.456h-0.012v1.577h-0.521V171.389z
			 M280.255,172.162c0,0.078,0.012,0.15,0.024,0.216c0.096,0.366,0.414,0.618,0.792,0.618c0.558,0,0.882-0.456,0.882-1.121
			c0-0.582-0.306-1.08-0.864-1.08c-0.36,0-0.696,0.258-0.797,0.654c-0.018,0.065-0.036,0.144-0.036,0.216V172.162z"/>
		<path d="M283.441,171.988c0.012,0.714,0.468,1.008,0.996,1.008c0.378,0,0.605-0.066,0.804-0.15l0.09,0.378
			c-0.186,0.084-0.504,0.18-0.965,0.18c-0.894,0-1.427-0.587-1.427-1.463c0-0.875,0.516-1.565,1.361-1.565
			c0.947,0,1.199,0.834,1.199,1.367c0,0.108-0.012,0.192-0.018,0.246H283.441z M284.989,171.61c0.006-0.336-0.138-0.857-0.731-0.857
			c-0.534,0-0.768,0.492-0.81,0.857H284.989z"/>
		<path d="M286.154,171.347c0-0.342-0.006-0.636-0.024-0.905h0.462l0.018,0.569h0.024c0.132-0.39,0.45-0.636,0.804-0.636
			c0.06,0,0.102,0.007,0.15,0.019v0.497c-0.054-0.012-0.108-0.018-0.18-0.018c-0.372,0-0.635,0.282-0.708,0.678
			c-0.012,0.072-0.024,0.156-0.024,0.246v1.547h-0.521V171.347z"/>
		<path d="M290.059,172.072l-0.42,1.271h-0.54l1.373-4.042h0.63l1.379,4.042h-0.558l-0.432-1.271H290.059z M291.384,171.665
			l-0.396-1.164c-0.09-0.264-0.15-0.503-0.21-0.737h-0.012c-0.06,0.24-0.126,0.485-0.204,0.731l-0.396,1.17H291.384z"/>
		<path d="M293.042,171.347c0-0.342-0.006-0.636-0.024-0.905h0.462l0.018,0.569h0.024c0.132-0.39,0.45-0.636,0.804-0.636
			c0.06,0,0.102,0.007,0.15,0.019v0.497c-0.054-0.012-0.108-0.018-0.18-0.018c-0.372,0-0.635,0.282-0.708,0.678
			c-0.012,0.072-0.024,0.156-0.024,0.246v1.547h-0.521V171.347z"/>
		<path d="M295.027,171.227c0-0.3-0.006-0.545-0.024-0.785h0.462l0.024,0.468h0.018c0.162-0.276,0.432-0.534,0.912-0.534
			c0.396,0,0.695,0.24,0.821,0.582h0.012c0.09-0.162,0.204-0.288,0.324-0.378c0.174-0.132,0.366-0.204,0.642-0.204
			c0.384,0,0.954,0.252,0.954,1.26v1.709h-0.516V171.7c0-0.558-0.204-0.893-0.63-0.893c-0.3,0-0.534,0.222-0.624,0.479
			c-0.024,0.071-0.042,0.168-0.042,0.264v1.793h-0.516v-1.739c0-0.462-0.204-0.797-0.606-0.797c-0.33,0-0.569,0.264-0.653,0.527
			c-0.03,0.078-0.042,0.168-0.042,0.258v1.751h-0.516V171.227z"/>
		<path d="M301.321,169.355c0.264-0.054,0.642-0.083,1.001-0.083c0.558,0,0.917,0.102,1.169,0.329
			c0.204,0.18,0.318,0.456,0.318,0.768c0,0.534-0.336,0.888-0.762,1.031v0.019c0.312,0.107,0.498,0.396,0.594,0.815
			c0.132,0.563,0.228,0.953,0.312,1.109h-0.54c-0.066-0.114-0.156-0.462-0.27-0.966c-0.12-0.558-0.336-0.768-0.81-0.785h-0.492
			v1.751h-0.522V169.355z M301.843,171.197h0.534c0.558,0,0.912-0.307,0.912-0.768c0-0.522-0.378-0.75-0.93-0.756
			c-0.252,0-0.432,0.023-0.516,0.048V171.197z"/>
	</g>
	
		<line style="display:inline;fill:#FFFFFF;stroke:#E61E5A;stroke-width:0.75;stroke-miterlimit:10;" x1="81" y1="269.8" x2="91" y2="269.8"/>
	
		<line style="display:inline;fill:#FFFFFF;stroke:#E61E5A;stroke-width:0.75;stroke-miterlimit:10;" x1="86" y1="274.8" x2="86" y2="264.8"/>
	<circle style="display:inline;fill:#E61E5A;" cx="86" cy="269.8" r="2"/>
	<g style="display:inline;">
		<path d="M92.456,266.802h2.177v0.438h-1.655v1.344h1.529v0.432h-1.529v1.829h-0.522V266.802z"/>
		<path d="M97.8,269.368c0,1.074-0.744,1.542-1.445,1.542c-0.786,0-1.391-0.576-1.391-1.493c0-0.972,0.636-1.542,1.439-1.542
			C97.236,267.875,97.8,268.481,97.8,269.368z M95.498,269.398c0,0.636,0.366,1.115,0.881,1.115c0.504,0,0.881-0.474,0.881-1.127
			c0-0.492-0.246-1.115-0.869-1.115C95.767,268.271,95.498,268.847,95.498,269.398z"/>
		<path d="M98.468,268.847c0-0.342-0.006-0.636-0.024-0.905h0.462l0.018,0.569h0.024c0.132-0.39,0.45-0.636,0.804-0.636
			c0.06,0,0.102,0.007,0.15,0.019v0.497c-0.054-0.012-0.108-0.018-0.18-0.018c-0.372,0-0.636,0.282-0.708,0.678
			c-0.012,0.072-0.024,0.156-0.024,0.246v1.547h-0.521V268.847z"/>
		<path d="M100.663,269.488c0.012,0.714,0.468,1.008,0.996,1.008c0.378,0,0.605-0.066,0.804-0.15l0.09,0.378
			c-0.186,0.084-0.504,0.18-0.965,0.18c-0.894,0-1.427-0.587-1.427-1.463c0-0.875,0.516-1.565,1.361-1.565
			c0.947,0,1.199,0.834,1.199,1.367c0,0.108-0.012,0.192-0.018,0.246H100.663z M102.21,269.11c0.006-0.336-0.138-0.857-0.731-0.857
			c-0.534,0-0.768,0.492-0.81,0.857H102.21z"/>
		<path d="M104.982,270.844l-0.042-0.366h-0.018c-0.162,0.229-0.474,0.433-0.888,0.433c-0.587,0-0.887-0.414-0.887-0.834
			c0-0.701,0.624-1.085,1.745-1.079v-0.061c0-0.239-0.066-0.671-0.66-0.671c-0.27,0-0.552,0.084-0.756,0.216l-0.12-0.349
			c0.24-0.155,0.587-0.258,0.953-0.258c0.888,0,1.104,0.606,1.104,1.188v1.086c0,0.252,0.012,0.497,0.048,0.695H104.982z
			 M104.904,269.362c-0.576-0.012-1.229,0.09-1.229,0.654c0,0.342,0.228,0.503,0.498,0.503c0.378,0,0.618-0.239,0.702-0.485
			c0.018-0.054,0.03-0.114,0.03-0.168V269.362z"/>
		<path d="M106.268,268.847c0-0.342-0.006-0.636-0.024-0.905h0.462l0.018,0.569h0.024c0.132-0.39,0.45-0.636,0.804-0.636
			c0.06,0,0.102,0.007,0.15,0.019v0.497c-0.054-0.012-0.108-0.018-0.18-0.018c-0.372,0-0.636,0.282-0.708,0.678
			c-0.012,0.072-0.024,0.156-0.024,0.246v1.547h-0.521V268.847z"/>
		<path d="M108.253,268.727c0-0.3-0.006-0.545-0.024-0.785h0.462l0.024,0.468h0.018c0.162-0.276,0.432-0.534,0.912-0.534
			c0.396,0,0.695,0.24,0.821,0.582h0.012c0.09-0.162,0.204-0.288,0.324-0.378c0.174-0.132,0.366-0.204,0.642-0.204
			c0.384,0,0.954,0.252,0.954,1.26v1.709h-0.516V269.2c0-0.558-0.204-0.893-0.63-0.893c-0.3,0-0.534,0.222-0.624,0.479
			c-0.024,0.071-0.042,0.168-0.042,0.264v1.793h-0.516v-1.739c0-0.462-0.204-0.797-0.606-0.797c-0.33,0-0.569,0.264-0.653,0.527
			c-0.03,0.078-0.042,0.168-0.042,0.258v1.751h-0.516V268.727z"/>
		<path d="M114.547,266.802h0.522v3.604h1.727v0.438h-2.249V266.802z"/>
	</g>
	
		<line style="display:inline;fill:#FFFFFF;stroke:#E61E5A;stroke-width:0.75;stroke-miterlimit:10;" x1="267" y1="269.8" x2="277" y2="269.8"/>
	
		<line style="display:inline;fill:#FFFFFF;stroke:#E61E5A;stroke-width:0.75;stroke-miterlimit:10;" x1="272" y1="274.8" x2="272" y2="264.8"/>
	<circle style="display:inline;fill:#E61E5A;" cx="272" cy="269.8" r="2"/>
	<g style="display:inline;">
		<path d="M278.456,266.802h2.177v0.438h-1.655v1.344h1.529v0.432h-1.529v1.829h-0.522V266.802z"/>
		<path d="M283.8,269.368c0,1.074-0.744,1.542-1.445,1.542c-0.786,0-1.391-0.576-1.391-1.493c0-0.972,0.636-1.542,1.439-1.542
			C283.236,267.875,283.8,268.481,283.8,269.368z M281.498,269.398c0,0.636,0.366,1.115,0.881,1.115
			c0.504,0,0.881-0.474,0.881-1.127c0-0.492-0.246-1.115-0.869-1.115C281.767,268.271,281.498,268.847,281.498,269.398z"/>
		<path d="M284.468,268.847c0-0.342-0.006-0.636-0.024-0.905h0.462l0.018,0.569h0.024c0.132-0.39,0.45-0.636,0.804-0.636
			c0.06,0,0.102,0.007,0.15,0.019v0.497c-0.054-0.012-0.108-0.018-0.18-0.018c-0.372,0-0.636,0.282-0.708,0.678
			c-0.012,0.072-0.024,0.156-0.024,0.246v1.547h-0.521V268.847z"/>
		<path d="M286.663,269.488c0.012,0.714,0.468,1.008,0.996,1.008c0.378,0,0.605-0.066,0.804-0.15l0.09,0.378
			c-0.186,0.084-0.504,0.18-0.965,0.18c-0.894,0-1.427-0.587-1.427-1.463c0-0.875,0.516-1.565,1.361-1.565
			c0.947,0,1.199,0.834,1.199,1.367c0,0.108-0.012,0.192-0.018,0.246H286.663z M288.21,269.11c0.006-0.336-0.138-0.857-0.731-0.857
			c-0.534,0-0.768,0.492-0.81,0.857H288.21z"/>
		<path d="M290.982,270.844l-0.042-0.366h-0.018c-0.162,0.229-0.474,0.433-0.888,0.433c-0.587,0-0.887-0.414-0.887-0.834
			c0-0.701,0.624-1.085,1.745-1.079v-0.061c0-0.239-0.066-0.671-0.66-0.671c-0.27,0-0.552,0.084-0.756,0.216l-0.12-0.349
			c0.24-0.155,0.587-0.258,0.953-0.258c0.888,0,1.104,0.606,1.104,1.188v1.086c0,0.252,0.012,0.497,0.048,0.695H290.982z
			 M290.904,269.362c-0.576-0.012-1.229,0.09-1.229,0.654c0,0.342,0.228,0.503,0.498,0.503c0.378,0,0.618-0.239,0.702-0.485
			c0.018-0.054,0.03-0.114,0.03-0.168V269.362z"/>
		<path d="M292.268,268.847c0-0.342-0.006-0.636-0.024-0.905h0.462l0.018,0.569h0.024c0.132-0.39,0.45-0.636,0.804-0.636
			c0.06,0,0.102,0.007,0.15,0.019v0.497c-0.054-0.012-0.108-0.018-0.18-0.018c-0.372,0-0.636,0.282-0.708,0.678
			c-0.012,0.072-0.024,0.156-0.024,0.246v1.547h-0.521V268.847z"/>
		<path d="M294.253,268.727c0-0.3-0.006-0.545-0.024-0.785h0.462l0.024,0.468h0.018c0.162-0.276,0.432-0.534,0.912-0.534
			c0.396,0,0.695,0.24,0.821,0.582h0.012c0.09-0.162,0.204-0.288,0.324-0.378c0.174-0.132,0.366-0.204,0.642-0.204
			c0.384,0,0.954,0.252,0.954,1.26v1.709h-0.516V269.2c0-0.558-0.204-0.893-0.63-0.893c-0.3,0-0.534,0.222-0.624,0.479
			c-0.024,0.071-0.042,0.168-0.042,0.264v1.793h-0.516v-1.739c0-0.462-0.204-0.797-0.606-0.797c-0.33,0-0.569,0.264-0.653,0.527
			c-0.03,0.078-0.042,0.168-0.042,0.258v1.751h-0.516V268.727z"/>
		<path d="M300.547,266.855c0.264-0.054,0.642-0.083,1.001-0.083c0.558,0,0.917,0.102,1.169,0.329
			c0.204,0.18,0.318,0.456,0.318,0.768c0,0.534-0.336,0.888-0.762,1.031v0.019c0.312,0.107,0.498,0.396,0.594,0.815
			c0.132,0.563,0.228,0.953,0.312,1.109h-0.54c-0.066-0.114-0.156-0.462-0.27-0.966c-0.12-0.558-0.336-0.768-0.81-0.785h-0.492
			v1.751h-0.522V266.855z M301.069,268.697h0.534c0.558,0,0.912-0.307,0.912-0.768c0-0.522-0.378-0.75-0.93-0.756
			c-0.252,0-0.432,0.023-0.516,0.048V268.697z"/>
	</g>
	
		<line style="display:inline;fill:#FFFFFF;stroke:#E61E5A;stroke-width:0.75;stroke-miterlimit:10;" x1="74" y1="338.1" x2="84" y2="338.1"/>
	
		<line style="display:inline;fill:#FFFFFF;stroke:#E61E5A;stroke-width:0.75;stroke-miterlimit:10;" x1="79" y1="343.1" x2="79" y2="333.1"/>
	<circle style="display:inline;fill:#E61E5A;" cx="79" cy="338.1" r="2"/>
	<g style="display:inline;">
		<path d="M85.978,335.102v1.691h1.955v-1.691h0.527v4.042h-0.527v-1.895h-1.955v1.895h-0.522v-4.042H85.978z"/>
		<path d="M90.957,339.144l-0.042-0.366h-0.018c-0.162,0.229-0.474,0.433-0.888,0.433c-0.587,0-0.887-0.414-0.887-0.834
			c0-0.701,0.624-1.085,1.745-1.079v-0.061c0-0.239-0.066-0.671-0.66-0.671c-0.27,0-0.552,0.084-0.756,0.216l-0.12-0.349
			c0.24-0.155,0.587-0.258,0.953-0.258c0.888,0,1.104,0.606,1.104,1.188v1.086c0,0.252,0.012,0.497,0.048,0.695H90.957z
			 M90.879,337.663c-0.576-0.012-1.229,0.09-1.229,0.654c0,0.342,0.228,0.503,0.498,0.503c0.378,0,0.618-0.239,0.702-0.485
			c0.018-0.054,0.03-0.114,0.03-0.168V337.663z"/>
		<path d="M92.242,337.027c0-0.3-0.006-0.545-0.024-0.785h0.468l0.03,0.479h0.012c0.144-0.275,0.48-0.546,0.959-0.546
			c0.402,0,1.025,0.24,1.025,1.235v1.733h-0.527v-1.673c0-0.468-0.174-0.857-0.672-0.857c-0.348,0-0.618,0.245-0.708,0.539
			c-0.024,0.066-0.036,0.156-0.036,0.246v1.745h-0.527V337.027z"/>
		<path d="M98.079,334.886v3.508c0,0.258,0.006,0.552,0.024,0.75h-0.474l-0.024-0.504h-0.012c-0.162,0.324-0.516,0.57-0.989,0.57
			c-0.702,0-1.241-0.594-1.241-1.476c-0.006-0.966,0.594-1.56,1.301-1.56c0.444,0,0.744,0.21,0.875,0.444h0.012v-1.733H98.079z
			 M97.551,337.423c0-0.066-0.006-0.156-0.024-0.223c-0.078-0.335-0.366-0.611-0.761-0.611c-0.546,0-0.87,0.479-0.87,1.121
			c0,0.588,0.288,1.074,0.857,1.074c0.354,0,0.678-0.234,0.773-0.63c0.018-0.072,0.024-0.145,0.024-0.229V337.423z"/>
		<path d="M100.246,335.102h0.522v3.604h1.727v0.438h-2.249V335.102z"/>
	</g>
	
		<line style="display:inline;fill:#FFFFFF;stroke:#E61E5A;stroke-width:0.75;stroke-miterlimit:10;" x1="274" y1="338.1" x2="284" y2="338.1"/>
	
		<line style="display:inline;fill:#FFFFFF;stroke:#E61E5A;stroke-width:0.75;stroke-miterlimit:10;" x1="279" y1="343.1" x2="279" y2="333.1"/>
	<circle style="display:inline;fill:#E61E5A;" cx="279" cy="338.1" r="2"/>
	<g style="display:inline;">
		<path d="M285.978,335.102v1.691h1.955v-1.691h0.527v4.042h-0.527v-1.895h-1.955v1.895h-0.522v-4.042H285.978z"/>
		<path d="M290.957,339.144l-0.042-0.366h-0.018c-0.162,0.229-0.474,0.433-0.888,0.433c-0.587,0-0.887-0.414-0.887-0.834
			c0-0.701,0.624-1.085,1.745-1.079v-0.061c0-0.239-0.066-0.671-0.66-0.671c-0.27,0-0.552,0.084-0.756,0.216l-0.12-0.349
			c0.24-0.155,0.587-0.258,0.953-0.258c0.888,0,1.104,0.606,1.104,1.188v1.086c0,0.252,0.012,0.497,0.048,0.695H290.957z
			 M290.879,337.663c-0.576-0.012-1.229,0.09-1.229,0.654c0,0.342,0.228,0.503,0.498,0.503c0.378,0,0.618-0.239,0.702-0.485
			c0.018-0.054,0.03-0.114,0.03-0.168V337.663z"/>
		<path d="M292.242,337.027c0-0.3-0.006-0.545-0.024-0.785h0.468l0.03,0.479h0.012c0.144-0.275,0.48-0.546,0.959-0.546
			c0.402,0,1.025,0.24,1.025,1.235v1.733h-0.527v-1.673c0-0.468-0.174-0.857-0.672-0.857c-0.348,0-0.618,0.245-0.708,0.539
			c-0.024,0.066-0.036,0.156-0.036,0.246v1.745h-0.527V337.027z"/>
		<path d="M298.079,334.886v3.508c0,0.258,0.006,0.552,0.024,0.75h-0.474l-0.024-0.504h-0.012c-0.162,0.324-0.516,0.57-0.989,0.57
			c-0.702,0-1.241-0.594-1.241-1.476c-0.006-0.966,0.594-1.56,1.301-1.56c0.444,0,0.744,0.21,0.875,0.444h0.012v-1.733H298.079z
			 M297.551,337.423c0-0.066-0.006-0.156-0.024-0.223c-0.078-0.335-0.366-0.611-0.761-0.611c-0.546,0-0.87,0.479-0.87,1.121
			c0,0.588,0.288,1.074,0.857,1.074c0.354,0,0.678-0.234,0.773-0.63c0.018-0.072,0.024-0.145,0.024-0.229V337.423z"/>
		<path d="M300.246,335.156c0.264-0.054,0.642-0.083,1.001-0.083c0.558,0,0.917,0.102,1.169,0.329
			c0.204,0.18,0.318,0.456,0.318,0.768c0,0.534-0.336,0.888-0.762,1.031v0.019c0.312,0.107,0.498,0.396,0.594,0.815
			c0.132,0.563,0.228,0.953,0.312,1.109h-0.54c-0.066-0.114-0.156-0.462-0.27-0.966c-0.12-0.558-0.336-0.768-0.81-0.785h-0.492
			v1.751h-0.522V335.156z M300.768,336.998h0.534c0.558,0,0.912-0.307,0.912-0.768c0-0.522-0.378-0.75-0.93-0.756
			c-0.252,0-0.432,0.023-0.516,0.048V336.998z"/>
	</g>
	
		<line style="display:inline;fill:#FFFFFF;stroke:#E61E5A;stroke-width:0.75;stroke-miterlimit:10;" x1="174" y1="300" x2="184" y2="300"/>
	
		<line style="display:inline;fill:#FFFFFF;stroke:#E61E5A;stroke-width:0.75;stroke-miterlimit:10;" x1="179" y1="305" x2="179" y2="295"/>
	<circle style="display:inline;fill:#E61E5A;" cx="179" cy="300" r="2"/>
	<g style="display:inline;">
		<path d="M186.235,297.446h-1.229v-0.444h2.992v0.444h-1.235v3.598h-0.528V297.446z"/>
		<path d="M190.632,299.568c0,1.074-0.744,1.542-1.445,1.542c-0.786,0-1.391-0.576-1.391-1.493c0-0.972,0.636-1.542,1.439-1.542
			C190.068,298.075,190.632,298.682,190.632,299.568z M188.33,299.599c0,0.636,0.366,1.115,0.881,1.115
			c0.504,0,0.881-0.474,0.881-1.127c0-0.492-0.246-1.115-0.869-1.115C188.599,298.472,188.33,299.047,188.33,299.599z"/>
		<path d="M191.3,299.047c0-0.342-0.006-0.636-0.024-0.905h0.462l0.018,0.569h0.024c0.132-0.39,0.45-0.636,0.804-0.636
			c0.06,0,0.102,0.007,0.15,0.019v0.497c-0.054-0.012-0.108-0.018-0.18-0.018c-0.372,0-0.636,0.282-0.708,0.678
			c-0.012,0.072-0.024,0.156-0.024,0.246v1.547H191.3V299.047z"/>
		<path d="M193.189,300.504c0.156,0.103,0.432,0.21,0.696,0.21c0.384,0,0.563-0.191,0.563-0.432c0-0.252-0.15-0.39-0.54-0.533
			c-0.522-0.187-0.768-0.474-0.768-0.822c0-0.468,0.378-0.852,1.001-0.852c0.294,0,0.552,0.084,0.713,0.181l-0.132,0.384
			c-0.114-0.072-0.324-0.168-0.594-0.168c-0.312,0-0.485,0.18-0.485,0.396c0,0.24,0.174,0.348,0.551,0.491
			c0.504,0.192,0.762,0.444,0.762,0.876c0,0.51-0.396,0.869-1.085,0.869c-0.318,0-0.611-0.077-0.815-0.197L193.189,300.504z"/>
		<path d="M198.264,299.568c0,1.074-0.744,1.542-1.445,1.542c-0.786,0-1.391-0.576-1.391-1.493c0-0.972,0.636-1.542,1.439-1.542
			C197.7,298.075,198.264,298.682,198.264,299.568z M195.961,299.599c0,0.636,0.366,1.115,0.881,1.115
			c0.504,0,0.881-0.474,0.881-1.127c0-0.492-0.246-1.115-0.869-1.115C196.231,298.472,195.961,299.047,195.961,299.599z"/>
		<path d="M200.221,297.002h2.177v0.438h-1.655v1.344h1.529v0.432h-1.529v1.829h-0.522V297.002z"/>
		<path d="M202.969,299.047c0-0.342-0.006-0.636-0.024-0.905h0.462l0.018,0.569h0.024c0.132-0.39,0.45-0.636,0.804-0.636
			c0.06,0,0.102,0.007,0.15,0.019v0.497c-0.054-0.012-0.108-0.018-0.18-0.018c-0.372,0-0.635,0.282-0.708,0.678
			c-0.012,0.072-0.024,0.156-0.024,0.246v1.547h-0.521V299.047z"/>
		<path d="M207.498,299.568c0,1.074-0.744,1.542-1.445,1.542c-0.786,0-1.391-0.576-1.391-1.493c0-0.972,0.636-1.542,1.439-1.542
			C206.934,298.075,207.498,298.682,207.498,299.568z M205.195,299.599c0,0.636,0.366,1.115,0.881,1.115
			c0.504,0,0.881-0.474,0.881-1.127c0-0.492-0.246-1.115-0.869-1.115C205.464,298.472,205.195,299.047,205.195,299.599z"/>
		<path d="M208.165,298.927c0-0.3-0.006-0.545-0.024-0.785h0.468l0.03,0.479h0.012c0.144-0.275,0.48-0.546,0.959-0.546
			c0.402,0,1.025,0.24,1.025,1.235v1.733h-0.527v-1.673c0-0.468-0.174-0.857-0.672-0.857c-0.348,0-0.618,0.245-0.708,0.539
			c-0.024,0.066-0.036,0.156-0.036,0.246v1.745h-0.527V298.927z"/>
		<path d="M212.106,297.308v0.834h0.756v0.401h-0.756v1.565c0,0.359,0.102,0.563,0.396,0.563c0.138,0,0.24-0.018,0.306-0.036
			l0.024,0.396c-0.102,0.042-0.264,0.071-0.468,0.071c-0.246,0-0.443-0.077-0.569-0.222c-0.15-0.155-0.204-0.414-0.204-0.756v-1.583
			h-0.45v-0.401h0.45v-0.695L212.106,297.308z"/>
	</g>
	
		<line style="display:inline;fill:#FFFFFF;stroke:#E61E5A;stroke-width:0.75;stroke-miterlimit:10;" x1="174" y1="300" x2="184" y2="300"/>
	
		<line style="display:inline;fill:#FFFFFF;stroke:#E61E5A;stroke-width:0.75;stroke-miterlimit:10;" x1="179" y1="305" x2="179" y2="295"/>
	<circle style="display:inline;fill:#E61E5A;" cx="179" cy="300" r="2"/>
	<g style="display:inline;">
		<path d="M186.235,297.446h-1.229v-0.444h2.992v0.444h-1.235v3.598h-0.528V297.446z"/>
		<path d="M190.632,299.568c0,1.074-0.744,1.542-1.445,1.542c-0.786,0-1.391-0.576-1.391-1.493c0-0.972,0.636-1.542,1.439-1.542
			C190.068,298.075,190.632,298.682,190.632,299.568z M188.33,299.599c0,0.636,0.366,1.115,0.881,1.115
			c0.504,0,0.881-0.474,0.881-1.127c0-0.492-0.246-1.115-0.869-1.115C188.599,298.472,188.33,299.047,188.33,299.599z"/>
		<path d="M191.3,299.047c0-0.342-0.006-0.636-0.024-0.905h0.462l0.018,0.569h0.024c0.132-0.39,0.45-0.636,0.804-0.636
			c0.06,0,0.102,0.007,0.15,0.019v0.497c-0.054-0.012-0.108-0.018-0.18-0.018c-0.372,0-0.636,0.282-0.708,0.678
			c-0.012,0.072-0.024,0.156-0.024,0.246v1.547H191.3V299.047z"/>
		<path d="M193.189,300.504c0.156,0.103,0.432,0.21,0.696,0.21c0.384,0,0.563-0.191,0.563-0.432c0-0.252-0.15-0.39-0.54-0.533
			c-0.522-0.187-0.768-0.474-0.768-0.822c0-0.468,0.378-0.852,1.001-0.852c0.294,0,0.552,0.084,0.713,0.181l-0.132,0.384
			c-0.114-0.072-0.324-0.168-0.594-0.168c-0.312,0-0.485,0.18-0.485,0.396c0,0.24,0.174,0.348,0.551,0.491
			c0.504,0.192,0.762,0.444,0.762,0.876c0,0.51-0.396,0.869-1.085,0.869c-0.318,0-0.611-0.077-0.815-0.197L193.189,300.504z"/>
		<path d="M198.264,299.568c0,1.074-0.744,1.542-1.445,1.542c-0.786,0-1.391-0.576-1.391-1.493c0-0.972,0.636-1.542,1.439-1.542
			C197.7,298.075,198.264,298.682,198.264,299.568z M195.961,299.599c0,0.636,0.366,1.115,0.881,1.115
			c0.504,0,0.881-0.474,0.881-1.127c0-0.492-0.246-1.115-0.869-1.115C196.231,298.472,195.961,299.047,195.961,299.599z"/>
		<path d="M200.221,297.056c0.228-0.048,0.588-0.083,0.954-0.083c0.522,0,0.857,0.09,1.109,0.293
			c0.21,0.156,0.336,0.396,0.336,0.714c0,0.39-0.258,0.731-0.684,0.888v0.012c0.384,0.096,0.833,0.414,0.833,1.014
			c0,0.348-0.138,0.611-0.342,0.81c-0.282,0.258-0.738,0.378-1.397,0.378c-0.36,0-0.635-0.024-0.81-0.048V297.056z M200.743,298.711
			h0.474c0.552,0,0.875-0.287,0.875-0.678c0-0.474-0.36-0.659-0.887-0.659c-0.24,0-0.378,0.018-0.462,0.036V298.711z
			 M200.743,300.648c0.102,0.018,0.252,0.023,0.438,0.023c0.54,0,1.038-0.197,1.038-0.785c0-0.552-0.474-0.779-1.043-0.779h-0.432
			V300.648z"/>
		<path d="M205.062,301.044l-0.042-0.366h-0.018c-0.162,0.229-0.474,0.433-0.888,0.433c-0.587,0-0.887-0.414-0.887-0.834
			c0-0.701,0.624-1.085,1.745-1.079v-0.061c0-0.239-0.066-0.671-0.66-0.671c-0.27,0-0.552,0.084-0.756,0.216l-0.12-0.349
			c0.24-0.155,0.587-0.258,0.953-0.258c0.888,0,1.104,0.606,1.104,1.188v1.086c0,0.252,0.012,0.497,0.048,0.695H205.062z
			 M204.984,299.562c-0.576-0.012-1.229,0.09-1.229,0.654c0,0.342,0.228,0.503,0.498,0.503c0.378,0,0.618-0.239,0.702-0.485
			c0.018-0.054,0.03-0.114,0.03-0.168V299.562z"/>
		<path d="M208.417,300.936c-0.138,0.072-0.444,0.168-0.834,0.168c-0.875,0-1.445-0.594-1.445-1.48c0-0.894,0.611-1.541,1.559-1.541
			c0.312,0,0.587,0.077,0.731,0.149l-0.12,0.408c-0.126-0.072-0.324-0.139-0.612-0.139c-0.666,0-1.025,0.492-1.025,1.098
			c0,0.672,0.432,1.086,1.007,1.086c0.3,0,0.498-0.078,0.647-0.145L208.417,300.936z"/>
		<path d="M209.557,299.473h0.012c0.072-0.102,0.174-0.228,0.258-0.33l0.852-1.001h0.635l-1.121,1.193l1.277,1.709h-0.642
			l-1.001-1.392l-0.27,0.3v1.092h-0.521v-4.258h0.521V299.473z"/>
	</g>
	
		<line style="display:inline;fill:#FFFFFF;stroke:#E61E5A;stroke-width:0.75;stroke-miterlimit:10;" x1="174" y1="328.4" x2="184" y2="328.4"/>
	
		<line style="display:inline;fill:#FFFFFF;stroke:#E61E5A;stroke-width:0.75;stroke-miterlimit:10;" x1="179" y1="333.4" x2="179" y2="323.4"/>
	<circle style="display:inline;fill:#E61E5A;" cx="179" cy="328.4" r="2"/>
	<g style="display:inline;">
		<path d="M185.456,325.45c0.252-0.042,0.582-0.077,1.001-0.077c0.516,0,0.894,0.119,1.134,0.335
			c0.222,0.192,0.354,0.486,0.354,0.846c0,0.366-0.108,0.654-0.312,0.863c-0.275,0.294-0.726,0.444-1.235,0.444
			c-0.156,0-0.3-0.006-0.42-0.036v1.619h-0.522V325.45z M185.978,327.399c0.114,0.03,0.258,0.042,0.432,0.042
			c0.63,0,1.014-0.306,1.014-0.863c0-0.534-0.378-0.792-0.954-0.792c-0.228,0-0.402,0.019-0.492,0.042V327.399z"/>
		<path d="M188.773,328.088c0.012,0.714,0.468,1.008,0.996,1.008c0.378,0,0.605-0.066,0.804-0.15l0.09,0.378
			c-0.186,0.084-0.504,0.18-0.965,0.18c-0.894,0-1.427-0.587-1.427-1.463c0-0.875,0.516-1.565,1.361-1.565
			c0.947,0,1.199,0.834,1.199,1.367c0,0.108-0.012,0.192-0.018,0.246H188.773z M190.321,327.71c0.006-0.336-0.138-0.857-0.731-0.857
			c-0.534,0-0.768,0.492-0.81,0.857H190.321z"/>
		<path d="M191.486,325.186h0.527v4.258h-0.527V325.186z"/>
		<path d="M193.105,326.542l0.57,1.631c0.096,0.264,0.174,0.504,0.234,0.744h0.018c0.066-0.24,0.15-0.48,0.246-0.744l0.564-1.631
			h0.551l-1.139,2.902h-0.504l-1.103-2.902H193.105z"/>
		<path d="M196.375,325.726c0.006,0.18-0.126,0.323-0.336,0.323c-0.186,0-0.318-0.144-0.318-0.323c0-0.187,0.138-0.33,0.33-0.33
			C196.249,325.396,196.375,325.54,196.375,325.726z M195.788,329.444v-2.902h0.527v2.902H195.788z"/>
		<path d="M197.119,328.904c0.156,0.103,0.432,0.21,0.696,0.21c0.384,0,0.563-0.191,0.563-0.432c0-0.252-0.15-0.39-0.54-0.533
			c-0.522-0.187-0.768-0.474-0.768-0.822c0-0.468,0.378-0.852,1.001-0.852c0.294,0,0.552,0.084,0.713,0.181l-0.132,0.384
			c-0.114-0.072-0.324-0.168-0.594-0.168c-0.312,0-0.485,0.18-0.485,0.396c0,0.24,0.174,0.348,0.551,0.491
			c0.504,0.192,0.762,0.444,0.762,0.876c0,0.51-0.396,0.869-1.085,0.869c-0.318,0-0.611-0.077-0.815-0.197L197.119,328.904z"/>
	</g>
	
		<line style="display:inline;fill:#FFFFFF;stroke:#E61E5A;stroke-width:0.75;stroke-miterlimit:10;" x1="174" y1="328.4" x2="184" y2="328.4"/>
	
		<line style="display:inline;fill:#FFFFFF;stroke:#E61E5A;stroke-width:0.75;stroke-miterlimit:10;" x1="179" y1="333.4" x2="179" y2="323.4"/>
	<circle style="display:inline;fill:#E61E5A;" cx="179" cy="328.4" r="2"/>
	<g style="display:inline;">
		<path d="M185.384,328.808c0.234,0.144,0.576,0.264,0.936,0.264c0.534,0,0.846-0.281,0.846-0.689c0-0.378-0.216-0.594-0.762-0.804
			c-0.66-0.233-1.067-0.575-1.067-1.146c0-0.629,0.521-1.097,1.307-1.097c0.414,0,0.714,0.096,0.894,0.197l-0.144,0.426
			c-0.132-0.071-0.402-0.191-0.768-0.191c-0.552,0-0.762,0.33-0.762,0.605c0,0.378,0.246,0.563,0.804,0.779
			c0.684,0.264,1.032,0.594,1.032,1.188c0,0.624-0.462,1.163-1.416,1.163c-0.39,0-0.815-0.113-1.031-0.258L185.384,328.808z"/>
		<path d="M188.396,325.186h0.527v1.812h0.012c0.084-0.15,0.216-0.282,0.378-0.372c0.156-0.09,0.342-0.15,0.54-0.15
			c0.39,0,1.013,0.24,1.013,1.242v1.727h-0.527v-1.667c0-0.468-0.174-0.863-0.672-0.863c-0.342,0-0.612,0.239-0.708,0.527
			c-0.03,0.072-0.036,0.15-0.036,0.252v1.751h-0.527V325.186z"/>
		<path d="M194.353,327.968c0,1.074-0.744,1.542-1.445,1.542c-0.786,0-1.391-0.576-1.391-1.493c0-0.972,0.635-1.542,1.439-1.542
			C193.789,326.475,194.353,327.082,194.353,327.968z M192.05,327.999c0,0.636,0.366,1.115,0.881,1.115
			c0.504,0,0.881-0.474,0.881-1.127c0-0.492-0.246-1.115-0.869-1.115C192.319,326.872,192.05,327.447,192.05,327.999z"/>
		<path d="M195.02,327.447c0-0.342-0.006-0.636-0.024-0.905h0.462l0.018,0.569h0.024c0.132-0.39,0.45-0.636,0.804-0.636
			c0.06,0,0.102,0.007,0.15,0.019v0.497c-0.054-0.012-0.108-0.018-0.18-0.018c-0.372,0-0.635,0.282-0.708,0.678
			c-0.012,0.072-0.024,0.156-0.024,0.246v1.547h-0.521V327.447z"/>
		<path d="M197.761,325.708v0.834h0.756v0.401h-0.756v1.565c0,0.359,0.102,0.563,0.396,0.563c0.138,0,0.24-0.018,0.306-0.036
			l0.024,0.396c-0.102,0.042-0.264,0.071-0.468,0.071c-0.246,0-0.443-0.077-0.569-0.222c-0.15-0.155-0.204-0.414-0.204-0.756v-1.583
			h-0.45v-0.401h0.45v-0.695L197.761,325.708z"/>
		<path d="M199.04,328.904c0.156,0.103,0.432,0.21,0.696,0.21c0.384,0,0.563-0.191,0.563-0.432c0-0.252-0.15-0.39-0.54-0.533
			c-0.522-0.187-0.768-0.474-0.768-0.822c0-0.468,0.378-0.852,1.001-0.852c0.294,0,0.552,0.084,0.713,0.181l-0.132,0.384
			c-0.114-0.072-0.324-0.168-0.594-0.168c-0.312,0-0.485,0.18-0.485,0.396c0,0.24,0.174,0.348,0.551,0.491
			c0.504,0.192,0.762,0.444,0.762,0.876c0,0.51-0.396,0.869-1.085,0.869c-0.318,0-0.611-0.077-0.815-0.197L199.04,328.904z"/>
	</g>
	
		<line style="display:inline;fill:#FFFFFF;stroke:#E61E5A;stroke-width:0.75;stroke-miterlimit:10;" x1="128" y1="328.4" x2="138" y2="328.4"/>
	
		<line style="display:inline;fill:#FFFFFF;stroke:#E61E5A;stroke-width:0.75;stroke-miterlimit:10;" x1="133" y1="333.4" x2="133" y2="323.4"/>
	<circle style="display:inline;fill:#E61E5A;" cx="133" cy="328.4" r="2"/>
	<g style="display:inline;">
		<path d="M140.235,325.846h-1.229v-0.444h2.992v0.444h-1.235v3.598h-0.528V325.846z"/>
		<path d="M142.39,325.186h0.527v1.812h0.012c0.084-0.15,0.216-0.282,0.378-0.372c0.156-0.09,0.342-0.15,0.54-0.15
			c0.39,0,1.013,0.24,1.013,1.242v1.727h-0.527v-1.667c0-0.468-0.174-0.863-0.672-0.863c-0.342,0-0.612,0.239-0.708,0.527
			c-0.03,0.072-0.036,0.15-0.036,0.252v1.751h-0.527V325.186z"/>
		<path d="M146.307,325.726c0.006,0.18-0.126,0.323-0.336,0.323c-0.186,0-0.318-0.144-0.318-0.323c0-0.187,0.138-0.33,0.33-0.33
			C146.181,325.396,146.307,325.54,146.307,325.726z M145.72,329.444v-2.902h0.527v2.902H145.72z"/>
		<path d="M149.624,326.542c-0.012,0.21-0.024,0.443-0.024,0.798v1.685c0,0.666-0.132,1.073-0.414,1.325
			c-0.282,0.264-0.689,0.348-1.055,0.348c-0.348,0-0.732-0.084-0.966-0.239l0.132-0.402c0.192,0.12,0.492,0.229,0.852,0.229
			c0.54,0,0.935-0.282,0.935-1.014v-0.324h-0.012c-0.162,0.271-0.474,0.486-0.923,0.486c-0.72,0-1.235-0.612-1.235-1.415
			c0-0.984,0.642-1.542,1.307-1.542c0.504,0,0.78,0.265,0.905,0.504h0.012l0.024-0.438H149.624z M149.078,327.687
			c0-0.09-0.006-0.168-0.03-0.24c-0.096-0.306-0.354-0.558-0.738-0.558c-0.503,0-0.863,0.426-0.863,1.098
			c0,0.569,0.288,1.043,0.857,1.043c0.324,0,0.618-0.203,0.731-0.539c0.03-0.09,0.042-0.192,0.042-0.282V327.687z"/>
		<path d="M150.478,325.186h0.527v1.812h0.012c0.084-0.15,0.216-0.282,0.378-0.372c0.156-0.09,0.342-0.15,0.54-0.15
			c0.39,0,1.013,0.24,1.013,1.242v1.727h-0.527v-1.667c0-0.468-0.174-0.863-0.672-0.863c-0.342,0-0.612,0.239-0.708,0.527
			c-0.03,0.072-0.036,0.15-0.036,0.252v1.751h-0.527V325.186z"/>
		<path d="M155.097,325.402h0.522v3.604h1.727v0.438h-2.249V325.402z"/>
	</g>
	
		<line style="display:inline;fill:#FFFFFF;stroke:#E61E5A;stroke-width:0.75;stroke-miterlimit:10;" x1="220" y1="328.4" x2="230" y2="328.4"/>
	
		<line style="display:inline;fill:#FFFFFF;stroke:#E61E5A;stroke-width:0.75;stroke-miterlimit:10;" x1="225" y1="333.4" x2="225" y2="323.4"/>
	<circle style="display:inline;fill:#E61E5A;" cx="225" cy="328.4" r="2"/>
	<g style="display:inline;">
		<path d="M232.235,325.846h-1.229v-0.444h2.992v0.444h-1.235v3.598h-0.528V325.846z"/>
		<path d="M234.39,325.186h0.527v1.812h0.012c0.084-0.15,0.216-0.282,0.378-0.372c0.156-0.09,0.342-0.15,0.54-0.15
			c0.39,0,1.013,0.24,1.013,1.242v1.727h-0.527v-1.667c0-0.468-0.174-0.863-0.672-0.863c-0.342,0-0.612,0.239-0.708,0.527
			c-0.03,0.072-0.036,0.15-0.036,0.252v1.751h-0.527V325.186z"/>
		<path d="M238.307,325.726c0.006,0.18-0.126,0.323-0.336,0.323c-0.186,0-0.318-0.144-0.318-0.323c0-0.187,0.138-0.33,0.33-0.33
			C238.181,325.396,238.307,325.54,238.307,325.726z M237.72,329.444v-2.902h0.527v2.902H237.72z"/>
		<path d="M241.624,326.542c-0.012,0.21-0.024,0.443-0.024,0.798v1.685c0,0.666-0.132,1.073-0.414,1.325
			c-0.282,0.264-0.689,0.348-1.055,0.348c-0.348,0-0.732-0.084-0.966-0.239l0.132-0.402c0.192,0.12,0.492,0.229,0.852,0.229
			c0.54,0,0.935-0.282,0.935-1.014v-0.324h-0.012c-0.162,0.271-0.474,0.486-0.923,0.486c-0.72,0-1.235-0.612-1.235-1.415
			c0-0.984,0.642-1.542,1.307-1.542c0.504,0,0.78,0.265,0.905,0.504h0.012l0.024-0.438H241.624z M241.078,327.687
			c0-0.09-0.006-0.168-0.03-0.24c-0.096-0.306-0.354-0.558-0.738-0.558c-0.503,0-0.863,0.426-0.863,1.098
			c0,0.569,0.288,1.043,0.857,1.043c0.324,0,0.618-0.203,0.731-0.539c0.03-0.09,0.042-0.192,0.042-0.282V327.687z"/>
		<path d="M242.478,325.186h0.527v1.812h0.012c0.084-0.15,0.216-0.282,0.378-0.372c0.156-0.09,0.342-0.15,0.54-0.15
			c0.39,0,1.013,0.24,1.013,1.242v1.727h-0.527v-1.667c0-0.468-0.174-0.863-0.672-0.863c-0.342,0-0.612,0.239-0.708,0.527
			c-0.03,0.072-0.036,0.15-0.036,0.252v1.751h-0.527V325.186z"/>
		<path d="M247.097,325.456c0.264-0.054,0.642-0.083,1.001-0.083c0.558,0,0.917,0.102,1.169,0.329
			c0.204,0.18,0.318,0.456,0.318,0.768c0,0.534-0.336,0.888-0.762,1.031v0.019c0.312,0.107,0.498,0.396,0.594,0.815
			c0.132,0.563,0.228,0.953,0.312,1.109h-0.54c-0.066-0.114-0.156-0.462-0.27-0.966c-0.12-0.558-0.336-0.768-0.81-0.785h-0.492
			v1.751h-0.522V325.456z M247.619,327.297h0.534c0.558,0,0.912-0.307,0.912-0.768c0-0.522-0.378-0.75-0.93-0.756
			c-0.252,0-0.432,0.023-0.516,0.048V327.297z"/>
	</g>
	
		<line style="display:inline;fill:#FFFFFF;stroke:#E61E5A;stroke-width:0.75;stroke-miterlimit:10;" x1="76" y1="435.7" x2="86" y2="435.7"/>
	
		<line style="display:inline;fill:#FFFFFF;stroke:#E61E5A;stroke-width:0.75;stroke-miterlimit:10;" x1="81" y1="440.7" x2="81" y2="430.7"/>
	<circle style="display:inline;fill:#E61E5A;" cx="81" cy="435.7" r="2"/>
	<g style="display:inline;">
		<path d="M90.28,436.612c-0.192,0.096-0.576,0.191-1.067,0.191c-1.14,0-1.997-0.719-1.997-2.045c0-1.265,0.857-2.122,2.111-2.122
			c0.504,0,0.822,0.107,0.959,0.18l-0.126,0.426c-0.198-0.096-0.479-0.168-0.815-0.168c-0.947,0-1.577,0.605-1.577,1.667
			c0,0.989,0.57,1.625,1.553,1.625c0.318,0,0.642-0.065,0.852-0.168L90.28,436.612z"/>
		<path d="M92.483,436.744l-0.042-0.366h-0.018c-0.162,0.229-0.474,0.433-0.888,0.433c-0.587,0-0.887-0.414-0.887-0.834
			c0-0.701,0.624-1.085,1.745-1.079v-0.061c0-0.239-0.066-0.671-0.66-0.671c-0.27,0-0.552,0.084-0.756,0.216l-0.12-0.349
			c0.24-0.155,0.587-0.258,0.953-0.258c0.888,0,1.104,0.606,1.104,1.188v1.086c0,0.252,0.012,0.497,0.048,0.695H92.483z
			 M92.405,435.263c-0.576-0.012-1.229,0.09-1.229,0.654c0,0.342,0.228,0.503,0.498,0.503c0.378,0,0.618-0.239,0.702-0.485
			c0.018-0.054,0.03-0.114,0.03-0.168V435.263z"/>
		<path d="M93.768,432.486h0.527v4.258h-0.527V432.486z"/>
		<path d="M95.238,436.744v-2.501H94.83v-0.401h0.408v-0.138c0-0.408,0.09-0.78,0.336-1.014c0.198-0.192,0.461-0.27,0.708-0.27
			c0.186,0,0.348,0.042,0.45,0.084l-0.072,0.407c-0.078-0.036-0.186-0.065-0.336-0.065c-0.45,0-0.563,0.396-0.563,0.839v0.156h0.701
			v0.401H95.76v2.501H95.238z"/>
		<path d="M98.226,432.702h0.522v3.604h1.727v0.438h-2.249V432.702z"/>
	</g>
	
		<line style="display:inline;fill:#FFFFFF;stroke:#E61E5A;stroke-width:0.75;stroke-miterlimit:10;" x1="272" y1="435.7" x2="282" y2="435.7"/>
	
		<line style="display:inline;fill:#FFFFFF;stroke:#E61E5A;stroke-width:0.75;stroke-miterlimit:10;" x1="277" y1="440.7" x2="277" y2="430.7"/>
	<circle style="display:inline;fill:#E61E5A;" cx="277" cy="435.7" r="2"/>
	<g style="display:inline;">
		<path d="M286.28,436.612c-0.192,0.096-0.576,0.191-1.067,0.191c-1.14,0-1.997-0.719-1.997-2.045c0-1.265,0.857-2.122,2.111-2.122
			c0.504,0,0.822,0.107,0.959,0.18l-0.126,0.426c-0.198-0.096-0.479-0.168-0.815-0.168c-0.947,0-1.577,0.605-1.577,1.667
			c0,0.989,0.57,1.625,1.553,1.625c0.318,0,0.642-0.065,0.852-0.168L286.28,436.612z"/>
		<path d="M288.483,436.744l-0.042-0.366h-0.018c-0.162,0.229-0.474,0.433-0.888,0.433c-0.587,0-0.887-0.414-0.887-0.834
			c0-0.701,0.624-1.085,1.745-1.079v-0.061c0-0.239-0.066-0.671-0.66-0.671c-0.27,0-0.552,0.084-0.756,0.216l-0.12-0.349
			c0.24-0.155,0.587-0.258,0.953-0.258c0.888,0,1.104,0.606,1.104,1.188v1.086c0,0.252,0.012,0.497,0.048,0.695H288.483z
			 M288.405,435.263c-0.576-0.012-1.229,0.09-1.229,0.654c0,0.342,0.228,0.503,0.498,0.503c0.378,0,0.618-0.239,0.702-0.485
			c0.018-0.054,0.03-0.114,0.03-0.168V435.263z"/>
		<path d="M289.768,432.486h0.527v4.258h-0.527V432.486z"/>
		<path d="M291.238,436.744v-2.501h-0.408v-0.401h0.408v-0.138c0-0.408,0.09-0.78,0.336-1.014c0.198-0.192,0.461-0.27,0.708-0.27
			c0.186,0,0.348,0.042,0.45,0.084l-0.072,0.407c-0.078-0.036-0.186-0.065-0.336-0.065c-0.45,0-0.563,0.396-0.563,0.839v0.156h0.701
			v0.401h-0.701v2.501H291.238z"/>
		<path d="M294.226,432.756c0.264-0.054,0.642-0.083,1.001-0.083c0.558,0,0.917,0.102,1.169,0.329
			c0.204,0.18,0.318,0.456,0.318,0.768c0,0.534-0.336,0.888-0.762,1.031v0.019c0.312,0.107,0.498,0.396,0.594,0.815
			c0.132,0.563,0.228,0.953,0.312,1.109h-0.54c-0.066-0.114-0.156-0.462-0.27-0.966c-0.12-0.558-0.336-0.768-0.81-0.785h-0.492
			v1.751h-0.522V432.756z M294.748,434.598h0.534c0.558,0,0.912-0.307,0.912-0.768c0-0.522-0.378-0.75-0.93-0.756
			c-0.252,0-0.432,0.023-0.516,0.048V434.598z"/>
	</g>
	
		<line style="display:inline;fill:#FFFFFF;stroke:#E61E5A;stroke-width:0.75;stroke-miterlimit:10;" x1="89" y1="538.2" x2="99" y2="538.2"/>
	
		<line style="display:inline;fill:#FFFFFF;stroke:#E61E5A;stroke-width:0.75;stroke-miterlimit:10;" x1="94" y1="543.2" x2="94" y2="533.2"/>
	<circle style="display:inline;fill:#E61E5A;" cx="94" cy="538.2" r="2"/>
	<g style="display:inline;">
		<path d="M100.456,535.202h2.177v0.438h-1.655v1.344h1.529v0.432h-1.529v1.829h-0.522V535.202z"/>
		<path d="M105.8,537.769c0,1.074-0.744,1.542-1.445,1.542c-0.786,0-1.391-0.576-1.391-1.493c0-0.972,0.636-1.542,1.439-1.542
			C105.236,536.275,105.8,536.882,105.8,537.769z M103.498,537.799c0,0.636,0.366,1.115,0.881,1.115
			c0.504,0,0.881-0.474,0.881-1.127c0-0.492-0.246-1.115-0.869-1.115C103.767,536.672,103.498,537.247,103.498,537.799z"/>
		<path d="M109.094,537.769c0,1.074-0.744,1.542-1.445,1.542c-0.786,0-1.391-0.576-1.391-1.493c0-0.972,0.636-1.542,1.439-1.542
			C108.53,536.275,109.094,536.882,109.094,537.769z M106.792,537.799c0,0.636,0.366,1.115,0.881,1.115
			c0.504,0,0.881-0.474,0.881-1.127c0-0.492-0.246-1.115-0.869-1.115C107.061,536.672,106.792,537.247,106.792,537.799z"/>
		<path d="M110.397,535.508v0.834h0.756v0.401h-0.756v1.565c0,0.359,0.102,0.563,0.396,0.563c0.138,0,0.24-0.018,0.306-0.036
			l0.024,0.396c-0.102,0.042-0.264,0.071-0.468,0.071c-0.246,0-0.443-0.077-0.569-0.222c-0.15-0.155-0.204-0.414-0.204-0.756v-1.583
			h-0.45v-0.401h0.45v-0.695L110.397,535.508z"/>
		<path d="M113.037,535.202h0.522v3.604h1.727v0.438h-2.249V535.202z"/>
	</g>
	
		<line style="display:inline;fill:#FFFFFF;stroke:#E61E5A;stroke-width:0.75;stroke-miterlimit:10;" x1="259" y1="538.2" x2="269" y2="538.2"/>
	
		<line style="display:inline;fill:#FFFFFF;stroke:#E61E5A;stroke-width:0.75;stroke-miterlimit:10;" x1="264" y1="543.2" x2="264" y2="533.2"/>
	<circle style="display:inline;fill:#E61E5A;" cx="264" cy="538.2" r="2"/>
	<g style="display:inline;">
		<path d="M270.456,535.202h2.177v0.438h-1.655v1.344h1.529v0.432h-1.529v1.829h-0.522V535.202z"/>
		<path d="M275.8,537.769c0,1.074-0.744,1.542-1.445,1.542c-0.786,0-1.391-0.576-1.391-1.493c0-0.972,0.636-1.542,1.439-1.542
			C275.236,536.275,275.8,536.882,275.8,537.769z M273.498,537.799c0,0.636,0.366,1.115,0.881,1.115
			c0.504,0,0.881-0.474,0.881-1.127c0-0.492-0.246-1.115-0.869-1.115C273.767,536.672,273.498,537.247,273.498,537.799z"/>
		<path d="M279.094,537.769c0,1.074-0.744,1.542-1.445,1.542c-0.786,0-1.391-0.576-1.391-1.493c0-0.972,0.636-1.542,1.439-1.542
			C278.53,536.275,279.094,536.882,279.094,537.769z M276.792,537.799c0,0.636,0.366,1.115,0.881,1.115
			c0.504,0,0.881-0.474,0.881-1.127c0-0.492-0.246-1.115-0.869-1.115C277.061,536.672,276.792,537.247,276.792,537.799z"/>
		<path d="M280.397,535.508v0.834h0.756v0.401h-0.756v1.565c0,0.359,0.102,0.563,0.396,0.563c0.138,0,0.24-0.018,0.306-0.036
			l0.024,0.396c-0.102,0.042-0.264,0.071-0.468,0.071c-0.246,0-0.443-0.077-0.569-0.222c-0.15-0.155-0.204-0.414-0.204-0.756v-1.583
			h-0.45v-0.401h0.45v-0.695L280.397,535.508z"/>
		<path d="M283.037,535.256c0.264-0.054,0.642-0.083,1.001-0.083c0.558,0,0.917,0.102,1.169,0.329
			c0.204,0.18,0.318,0.456,0.318,0.768c0,0.534-0.336,0.888-0.762,1.031v0.019c0.312,0.107,0.498,0.396,0.594,0.815
			c0.132,0.563,0.228,0.953,0.312,1.109h-0.54c-0.066-0.114-0.156-0.462-0.27-0.966c-0.12-0.558-0.336-0.768-0.81-0.785h-0.492
			v1.751h-0.522V535.256z M283.559,537.098h0.534c0.558,0,0.912-0.307,0.912-0.768c0-0.522-0.378-0.75-0.93-0.756
			c-0.252,0-0.432,0.023-0.516,0.048V537.098z"/>
	</g>
</g>
</svg>
