<?xml version="1.0" encoding="iso-8859-1"?>
<!-- Generator: Adobe Illustrator 29.8.2, SVG Export Plug-In . SVG Version: 9.03 Build 0)  -->
<svg version="1.1" xmlns="http://www.w3.org/2000/svg" xmlns:xlink="http://www.w3.org/1999/xlink" x="0px" y="0px"
	 viewBox="0 0 1156 1361" style="enable-background:new 0 0 1156 1361;" xml:space="preserve">
<g id="Male_x5F_Master_x5F_FINAL_x5F_RIG">
	<g id="Forearm_R">
		<g>
			<defs>
				<rect id="SVGID_1_" x="920.905" y="269.276" width="46.519" height="109.018"/>
			</defs>
			<clipPath id="SVGID_00000128449855518022023470000007456053152502144428_">
				<use xlink:href="#SVGID_1_"  style="overflow:visible;"/>
			</clipPath>
			<path style="clip-path:url(#SVGID_00000128449855518022023470000007456053152502144428_);fill:#FDB985;" d="M947.144,273.331
				c-1.449,0.981,0.869,5.092-0.005,6.001c-2.234,2.322-4.004-2.337-3.006-4.996c-1.647,0.002-1.985,3.465-2.056,4.575
				c-0.205,3.181,1.833,2.159,2.055,3.089c0.541,2.265-0.507,5.37,0.021,7.666c0.19,0.826,1.833,0.194,2.063,2.099
				c0.787,6.527-1.442,4.77-2.056,5.586c-1.556,2.07,2.006,2.041,1.94,2.417c-1.714,9.806-5.926,18.867-6.955,29.082
				c-0.383,3.803,1.994,10.868-3.003,9.505c-0.082,1.346,2.726,1.535,3.997,1.991c3.411,1.225,1.331,1.009,3.001,4.001
				c1.108,3.131-0.136,8.503,3.001,10.002c0.005,1,0.008,2.006,0,3.001c-5.741,3.171-2.107-5.4-5.994-7.001
				c0.392,6.73-2.323,11.329,0.587,17.908c0.224,0.506,6.674,10.32,1.381,6.622c-4.546-5.071-13.7-24.968-12.992-32.863
				c-0.174-0.835-1.868-0.207-2.07-2.098c-2.4-19.65-2.468-40.01,0.088-59.579l2.983,10.993c1.319-5.397-2.391-13.52-0.828-18.343
				c1.164-3.59,7.385-1.709,9.841-3.657C942.172,269.886,944.777,271.436,947.144,273.331z"/>
			<path style="clip-path:url(#SVGID_00000128449855518022023470000007456053152502144428_);fill:#EF925C;" d="M956.148,371.352
				c-0.631-0.271-0.817-0.223-1-1C955.707,370.48,955.871,371.118,956.148,371.352z"/>
			<path style="clip-path:url(#SVGID_00000128449855518022023470000007456053152502144428_);fill:#EF925C;" d="M939.14,269.331
				c-2.456,1.948-8.677,0.068-9.841,3.657c-1.564,4.823,2.147,12.945,0.828,18.343l-2.983-10.993
				c-2.557,19.559-2.489,39.936-0.088,59.579c0.202,1.891,1.895,1.263,2.07,2.098c-0.726,7.855,8.465,27.847,12.991,32.863
				c5.294,3.697-1.157-6.117-1.381-6.623c-2.909-6.579-0.194-11.177-0.587-17.908c3.887,1.601,0.252,10.172,5.994,7.001
				c-1.752,7.945-2.633,5.742,5.002,5.001c0.276,0.046,2.699,1.716,3.513,1.981l-0.511-1.981c1.693,0.533,11.005,0.392,8.268,6.37
				c0.24,1.277,6.962,7.377-0.497,7.316c-3.33-0.027-1.178,1.038-2.403,1.344c-4.074,1.016-10.479-3.841-13.881-6.009
				c-0.623,1.596,3.414,4.734,2.508,5.972c-4.199,1.649-4.822,1.354-6.995-2.497c-23.953-20.241-18.23-64.608-16.02-93.019
				C923.563,270.972,929.153,268.889,939.14,269.331z M951.146,368.352c-2.246-0.21-10-2.454-4.342,1.841
				c2.2,1.262,16.445,10.109,9.344,1.16c1.794,0.771,4.817,0.685,6.513,2.982c0.293-2.773-9.129-11.486-7.513-3.982
				C953.034,370.085,950.381,371.525,951.146,368.352c2.052,0.192,3.155-0.939,1.932-2.917c-0.417-0.674-5.637-1.296-6.934-1.075
				C946.79,366.696,950.084,366.485,951.146,368.352z M956.148,364.36c-0.828,0.675,3.82,3.077,4.984,2.501
				C960.32,365.811,956.988,363.676,956.148,364.36z"/>
			<path style="clip-path:url(#SVGID_00000128449855518022023470000007456053152502144428_);fill:#EE8A54;" d="M940.141,340.346
				c-1.271-0.456-4.079-0.645-3.997-1.991c4.996,1.362,2.619-5.702,3.003-9.505c1.029-10.214,5.241-19.275,6.955-29.082
				c0.066-0.376-3.497-0.347-1.94-2.417c0.614-0.816,2.843,0.94,2.056-5.586c-0.23-1.904-1.873-1.273-2.063-2.099
				c-0.528-2.296,0.52-5.401-0.021-7.666c-0.222-0.929-2.259,0.093-2.055-3.089c0.071-1.11,0.409-4.573,2.056-4.575
				c-0.999,2.66,0.772,7.318,3.006,4.996c0.874-0.908-1.444-5.02,0.005-6.001c5.338,4.275,1.064,5.024,0.959,10.548
				c-0.385,20.167-5.38,31.131-7.845,50.093C939.982,336.093,940.148,338.225,940.141,340.346z M946.134,286.33
				c0.149-0.326,0.149-4.666,0-4.992C944.934,278.709,944.934,288.959,946.134,286.33z"/>
			<path style="clip-path:url(#SVGID_00000128449855518022023470000007456053152502144428_);fill:#F9A570;" d="M948.144,357.349
				c1.224,0.985,2.855,2.805,4.002,4.001c-0.384,0.248-0.681,0.673-1,1c-1.742-0.288-5.743,1.262-5.997,0.997
				c-0.77-1.197,1.305-5.309,0.994-6.998C946.733,356.749,947.634,356.939,948.144,357.349z"/>
			<path style="clip-path:url(#SVGID_00000128449855518022023470000007456053152502144428_);fill:#F49965;" d="M946.143,354.349
				c-3.137-1.499-1.893-6.871-3.001-10.002C945.815,349.134,945.958,348.06,946.143,354.349z"/>
			<path style="clip-path:url(#SVGID_00000128449855518022023470000007456053152502144428_);fill:#FCBA88;" d="M954.147,362.35
				l0.511,1.981c-0.814-0.265-3.237-1.935-3.513-1.981c0.32-0.328,0.616-0.752,1-1C955.245,359.351,953.711,361.976,954.147,362.35z
				"/>
			<path style="clip-path:url(#SVGID_00000128449855518022023470000007456053152502144428_);fill:#EF925C;" d="M948.144,357.349
				c-0.51-0.41-1.412-0.601-2.001-1c0.019-0.332-0.009-0.667,0-1L948.144,357.349z"/>
			<path style="clip-path:url(#SVGID_00000128449855518022023470000007456053152502144428_);fill:#FCBA88;" d="M951.146,368.352
				c-0.766,3.175,1.893,1.732,4.002,2c0.183,0.777,0.37,0.729,1,1c1.076,0.91,3.556,4.895,0.519,3.987
				C953.079,373.832,935.589,365.13,951.146,368.352z"/>
			<path style="clip-path:url(#SVGID_00000128449855518022023470000007456053152502144428_);fill:#FCBA88;" d="M955.148,370.352
				c-1.618-7.508,7.81,1.213,7.513,3.982C960.449,371.452,957.008,372.597,955.148,370.352z"/>
			<path style="clip-path:url(#SVGID_00000128449855518022023470000007456053152502144428_);fill:#FBB783;" d="M951.146,368.352
				c-1.062-1.867-4.356-1.655-5.002-3.992c1.297-0.221,6.517,0.401,6.934,1.075C954.3,367.413,953.198,368.544,951.146,368.352z"/>
			<path style="clip-path:url(#SVGID_00000128449855518022023470000007456053152502144428_);fill:#FCBA88;" d="M956.148,364.36
				c0.839-0.684,4.171,1.451,4.984,2.501C959.968,367.437,955.32,365.035,956.148,364.36z"/>
			<path style="clip-path:url(#SVGID_00000128449855518022023470000007456053152502144428_);fill:#FDB985;" d="M946.134,286.33
				c-1.201,2.629-1.201-7.621,0-4.992C946.283,281.663,946.283,286.004,946.134,286.33z"/>
		</g>
	</g>
</g>
<g id="RIG_x5F_GUIDES" style="display:none;">
	
		<line style="display:inline;fill:#FFFFFF;stroke:#E61E5A;stroke-width:0.75;stroke-miterlimit:10;" x1="174" y1="148" x2="184" y2="148"/>
	
		<line style="display:inline;fill:#FFFFFF;stroke:#E61E5A;stroke-width:0.75;stroke-miterlimit:10;" x1="179" y1="153" x2="179" y2="143"/>
	<circle style="display:inline;fill:#E61E5A;" cx="179" cy="148" r="2"/>
	<g style="display:inline;">
		<path d="M185.978,145.002v1.691h1.955v-1.691h0.527v4.042h-0.527v-1.895h-1.955v1.895h-0.522v-4.042H185.978z"/>
		<path d="M189.644,147.688c0.012,0.714,0.468,1.008,0.996,1.008c0.378,0,0.605-0.066,0.804-0.15l0.09,0.378
			c-0.186,0.084-0.504,0.18-0.965,0.18c-0.894,0-1.427-0.587-1.427-1.463c0-0.875,0.516-1.565,1.361-1.565
			c0.947,0,1.199,0.834,1.199,1.367c0,0.108-0.012,0.192-0.018,0.246H189.644z M191.191,147.311
			c0.006-0.336-0.138-0.857-0.731-0.857c-0.534,0-0.768,0.492-0.81,0.857H191.191z"/>
		<path d="M193.963,149.044l-0.042-0.366h-0.018c-0.162,0.229-0.474,0.433-0.888,0.433c-0.587,0-0.887-0.414-0.887-0.834
			c0-0.701,0.624-1.085,1.745-1.079v-0.061c0-0.239-0.066-0.671-0.66-0.671c-0.27,0-0.552,0.084-0.756,0.216l-0.12-0.349
			c0.24-0.155,0.587-0.258,0.953-0.258c0.888,0,1.104,0.606,1.104,1.188v1.086c0,0.252,0.012,0.497,0.048,0.695H193.963z
			 M193.885,147.562c-0.576-0.012-1.229,0.09-1.229,0.654c0,0.342,0.228,0.503,0.498,0.503c0.378,0,0.618-0.239,0.702-0.485
			c0.018-0.054,0.03-0.114,0.03-0.168V147.562z"/>
		<path d="M197.754,144.786v3.508c0,0.258,0.006,0.552,0.024,0.75h-0.474l-0.024-0.504h-0.012c-0.162,0.324-0.516,0.57-0.989,0.57
			c-0.702,0-1.241-0.594-1.241-1.476c-0.006-0.966,0.594-1.56,1.301-1.56c0.444,0,0.744,0.21,0.875,0.444h0.012v-1.733H197.754z
			 M197.227,147.323c0-0.066-0.006-0.156-0.024-0.223c-0.078-0.335-0.366-0.611-0.761-0.611c-0.546,0-0.87,0.479-0.87,1.121
			c0,0.588,0.288,1.074,0.857,1.074c0.354,0,0.678-0.234,0.773-0.63c0.018-0.072,0.024-0.145,0.024-0.229V147.323z"/>
	</g>
	
		<line style="display:inline;fill:#FFFFFF;stroke:#E61E5A;stroke-width:0.75;stroke-miterlimit:10;" x1="174" y1="165" x2="184" y2="165"/>
	
		<line style="display:inline;fill:#FFFFFF;stroke:#E61E5A;stroke-width:0.75;stroke-miterlimit:10;" x1="179" y1="170" x2="179" y2="160"/>
	<circle style="display:inline;fill:#E61E5A;" cx="179" cy="165" r="2"/>
	<g style="display:inline;">
		<path d="M185.456,166.044v-4.042h0.57l1.295,2.045c0.3,0.474,0.534,0.899,0.726,1.313l0.012-0.006
			c-0.048-0.54-0.06-1.031-0.06-1.661v-1.691h0.492v4.042h-0.528l-1.283-2.051c-0.282-0.45-0.552-0.911-0.756-1.35l-0.018,0.006
			c0.03,0.51,0.042,0.996,0.042,1.668v1.727H185.456z"/>
		<path d="M189.679,164.688c0.012,0.714,0.468,1.008,0.996,1.008c0.378,0,0.605-0.066,0.804-0.15l0.09,0.378
			c-0.186,0.084-0.504,0.18-0.965,0.18c-0.894,0-1.427-0.587-1.427-1.463c0-0.875,0.516-1.565,1.361-1.565
			c0.947,0,1.199,0.834,1.199,1.367c0,0.108-0.012,0.192-0.018,0.246H189.679z M191.227,164.311
			c0.006-0.336-0.138-0.857-0.731-0.857c-0.534,0-0.768,0.492-0.81,0.857H191.227z"/>
		<path d="M194.46,165.936c-0.138,0.072-0.444,0.168-0.834,0.168c-0.875,0-1.445-0.594-1.445-1.48c0-0.894,0.611-1.541,1.559-1.541
			c0.312,0,0.587,0.077,0.731,0.149l-0.12,0.408c-0.126-0.072-0.324-0.139-0.612-0.139c-0.666,0-1.025,0.492-1.025,1.098
			c0,0.672,0.432,1.086,1.007,1.086c0.3,0,0.498-0.078,0.647-0.145L194.46,165.936z"/>
		<path d="M195.601,164.473h0.012c0.072-0.102,0.174-0.228,0.258-0.33l0.852-1.001h0.635l-1.121,1.193l1.277,1.709h-0.642
			l-1.001-1.392l-0.27,0.3v1.092h-0.521v-4.258h0.521V164.473z"/>
	</g>
	
		<line style="display:inline;fill:#FFFFFF;stroke:#E61E5A;stroke-width:0.75;stroke-miterlimit:10;" x1="174" y1="148" x2="184" y2="148"/>
	
		<line style="display:inline;fill:#FFFFFF;stroke:#E61E5A;stroke-width:0.75;stroke-miterlimit:10;" x1="179" y1="153" x2="179" y2="143"/>
	<circle style="display:inline;fill:#E61E5A;" cx="179" cy="148" r="2"/>
	<g style="display:inline;">
		<path d="M185.978,145.002v1.691h1.955v-1.691h0.527v4.042h-0.527v-1.895h-1.955v1.895h-0.522v-4.042H185.978z"/>
		<path d="M190.957,149.044l-0.042-0.366h-0.018c-0.162,0.229-0.474,0.433-0.888,0.433c-0.587,0-0.887-0.414-0.887-0.834
			c0-0.701,0.624-1.085,1.745-1.079v-0.061c0-0.239-0.066-0.671-0.66-0.671c-0.27,0-0.552,0.084-0.756,0.216l-0.12-0.349
			c0.24-0.155,0.587-0.258,0.953-0.258c0.888,0,1.104,0.606,1.104,1.188v1.086c0,0.252,0.012,0.497,0.048,0.695H190.957z
			 M190.879,147.562c-0.576-0.012-1.229,0.09-1.229,0.654c0,0.342,0.228,0.503,0.498,0.503c0.378,0,0.618-0.239,0.702-0.485
			c0.018-0.054,0.03-0.114,0.03-0.168V147.562z"/>
		<path d="M192.83,145.326c0.006,0.18-0.126,0.323-0.336,0.323c-0.186,0-0.318-0.144-0.318-0.323c0-0.187,0.138-0.33,0.33-0.33
			C192.704,144.996,192.83,145.14,192.83,145.326z M192.242,149.044v-2.902h0.527v2.902H192.242z"/>
		<path d="M193.646,147.047c0-0.342-0.006-0.636-0.024-0.905h0.462l0.018,0.569h0.024c0.132-0.39,0.45-0.636,0.804-0.636
			c0.06,0,0.102,0.007,0.15,0.019v0.497c-0.054-0.012-0.108-0.018-0.18-0.018c-0.372,0-0.635,0.282-0.708,0.678
			c-0.012,0.072-0.024,0.156-0.024,0.246v1.547h-0.521V147.047z"/>
	</g>
	
		<line style="display:inline;fill:#FFFFFF;stroke:#E61E5A;stroke-width:0.75;stroke-miterlimit:10;" x1="87" y1="172.3" x2="97" y2="172.3"/>
	
		<line style="display:inline;fill:#FFFFFF;stroke:#E61E5A;stroke-width:0.75;stroke-miterlimit:10;" x1="92" y1="177.3" x2="92" y2="167.3"/>
	<circle style="display:inline;fill:#E61E5A;" cx="92" cy="172.3" r="2"/>
	<g style="display:inline;">
		<path d="M98.978,169.302v2.393c0,0.906,0.402,1.29,0.941,1.29c0.6,0,0.983-0.396,0.983-1.29v-2.393h0.528v2.356
			c0,1.242-0.654,1.752-1.529,1.752c-0.828,0-1.451-0.475-1.451-1.728v-2.381H98.978z"/>
		<path d="M102.32,171.389c0-0.372-0.012-0.672-0.024-0.947h0.474l0.024,0.498h0.012c0.216-0.354,0.558-0.564,1.032-0.564
			c0.702,0,1.229,0.594,1.229,1.476c0,1.043-0.635,1.56-1.319,1.56c-0.384,0-0.719-0.168-0.893-0.456h-0.012v1.577h-0.521V171.389z
			 M102.841,172.162c0,0.078,0.012,0.15,0.024,0.216c0.096,0.366,0.414,0.618,0.792,0.618c0.558,0,0.882-0.456,0.882-1.121
			c0-0.582-0.306-1.08-0.864-1.08c-0.36,0-0.696,0.258-0.797,0.654c-0.018,0.065-0.036,0.144-0.036,0.216V172.162z"/>
		<path d="M105.734,171.389c0-0.372-0.012-0.672-0.024-0.947h0.474l0.024,0.498h0.012c0.216-0.354,0.558-0.564,1.032-0.564
			c0.702,0,1.229,0.594,1.229,1.476c0,1.043-0.635,1.56-1.319,1.56c-0.384,0-0.719-0.168-0.893-0.456h-0.012v1.577h-0.521V171.389z
			 M106.255,172.162c0,0.078,0.012,0.15,0.024,0.216c0.096,0.366,0.414,0.618,0.792,0.618c0.558,0,0.882-0.456,0.882-1.121
			c0-0.582-0.306-1.08-0.864-1.08c-0.36,0-0.696,0.258-0.797,0.654c-0.018,0.065-0.036,0.144-0.036,0.216V172.162z"/>
		<path d="M109.441,171.988c0.012,0.714,0.468,1.008,0.996,1.008c0.378,0,0.605-0.066,0.804-0.15l0.09,0.378
			c-0.186,0.084-0.504,0.18-0.965,0.18c-0.894,0-1.427-0.587-1.427-1.463c0-0.875,0.516-1.565,1.361-1.565
			c0.947,0,1.199,0.834,1.199,1.367c0,0.108-0.012,0.192-0.018,0.246H109.441z M110.989,171.61c0.006-0.336-0.138-0.857-0.731-0.857
			c-0.534,0-0.768,0.492-0.81,0.857H110.989z"/>
		<path d="M112.154,171.347c0-0.342-0.006-0.636-0.024-0.905h0.462l0.018,0.569h0.024c0.132-0.39,0.45-0.636,0.804-0.636
			c0.06,0,0.102,0.007,0.15,0.019v0.497c-0.054-0.012-0.108-0.018-0.18-0.018c-0.372,0-0.635,0.282-0.708,0.678
			c-0.012,0.072-0.024,0.156-0.024,0.246v1.547h-0.521V171.347z"/>
		<path d="M116.059,172.072l-0.42,1.271h-0.54l1.373-4.042h0.63l1.379,4.042h-0.558l-0.432-1.271H116.059z M117.384,171.665
			l-0.396-1.164c-0.09-0.264-0.15-0.503-0.21-0.737h-0.012c-0.06,0.24-0.126,0.485-0.204,0.731l-0.396,1.17H117.384z"/>
		<path d="M119.042,171.347c0-0.342-0.006-0.636-0.024-0.905h0.462l0.018,0.569h0.024c0.132-0.39,0.45-0.636,0.804-0.636
			c0.06,0,0.102,0.007,0.15,0.019v0.497c-0.054-0.012-0.108-0.018-0.18-0.018c-0.372,0-0.635,0.282-0.708,0.678
			c-0.012,0.072-0.024,0.156-0.024,0.246v1.547h-0.521V171.347z"/>
		<path d="M121.027,171.227c0-0.3-0.006-0.545-0.024-0.785h0.462l0.024,0.468h0.018c0.162-0.276,0.432-0.534,0.912-0.534
			c0.396,0,0.695,0.24,0.821,0.582h0.012c0.09-0.162,0.204-0.288,0.324-0.378c0.174-0.132,0.366-0.204,0.642-0.204
			c0.384,0,0.954,0.252,0.954,1.26v1.709h-0.516V171.7c0-0.558-0.204-0.893-0.63-0.893c-0.3,0-0.534,0.222-0.624,0.479
			c-0.024,0.071-0.042,0.168-0.042,0.264v1.793h-0.516v-1.739c0-0.462-0.204-0.797-0.606-0.797c-0.33,0-0.569,0.264-0.653,0.527
			c-0.03,0.078-0.042,0.168-0.042,0.258v1.751h-0.516V171.227z"/>
		<path d="M127.321,169.302h0.522v3.604h1.727v0.438h-2.249V169.302z"/>
	</g>
	
		<line style="display:inline;fill:#FFFFFF;stroke:#E61E5A;stroke-width:0.75;stroke-miterlimit:10;" x1="261" y1="172.3" x2="271" y2="172.3"/>
	
		<line style="display:inline;fill:#FFFFFF;stroke:#E61E5A;stroke-width:0.75;stroke-miterlimit:10;" x1="266" y1="177.3" x2="266" y2="167.3"/>
	<circle style="display:inline;fill:#E61E5A;" cx="266" cy="172.3" r="2"/>
	<g style="display:inline;">
		<path d="M272.978,169.302v2.393c0,0.906,0.402,1.29,0.941,1.29c0.6,0,0.983-0.396,0.983-1.29v-2.393h0.528v2.356
			c0,1.242-0.654,1.752-1.529,1.752c-0.828,0-1.451-0.475-1.451-1.728v-2.381H272.978z"/>
		<path d="M276.32,171.389c0-0.372-0.012-0.672-0.024-0.947h0.474l0.024,0.498h0.012c0.216-0.354,0.558-0.564,1.032-0.564
			c0.702,0,1.229,0.594,1.229,1.476c0,1.043-0.635,1.56-1.319,1.56c-0.384,0-0.719-0.168-0.893-0.456h-0.012v1.577h-0.521V171.389z
			 M276.841,172.162c0,0.078,0.012,0.15,0.024,0.216c0.096,0.366,0.414,0.618,0.792,0.618c0.558,0,0.882-0.456,0.882-1.121
			c0-0.582-0.306-1.08-0.864-1.08c-0.36,0-0.696,0.258-0.797,0.654c-0.018,0.065-0.036,0.144-0.036,0.216V172.162z"/>
		<path d="M279.734,171.389c0-0.372-0.012-0.672-0.024-0.947h0.474l0.024,0.498h0.012c0.216-0.354,0.558-0.564,1.032-0.564
			c0.702,0,1.229,0.594,1.229,1.476c0,1.043-0.635,1.56-1.319,1.56c-0.384,0-0.719-0.168-0.893-0.456h-0.012v1.577h-0.521V171.389z
			 M280.255,172.162c0,0.078,0.012,0.15,0.024,0.216c0.096,0.366,0.414,0.618,0.792,0.618c0.558,0,0.882-0.456,0.882-1.121
			c0-0.582-0.306-1.08-0.864-1.08c-0.36,0-0.696,0.258-0.797,0.654c-0.018,0.065-0.036,0.144-0.036,0.216V172.162z"/>
		<path d="M283.441,171.988c0.012,0.714,0.468,1.008,0.996,1.008c0.378,0,0.605-0.066,0.804-0.15l0.09,0.378
			c-0.186,0.084-0.504,0.18-0.965,0.18c-0.894,0-1.427-0.587-1.427-1.463c0-0.875,0.516-1.565,1.361-1.565
			c0.947,0,1.199,0.834,1.199,1.367c0,0.108-0.012,0.192-0.018,0.246H283.441z M284.989,171.61c0.006-0.336-0.138-0.857-0.731-0.857
			c-0.534,0-0.768,0.492-0.81,0.857H284.989z"/>
		<path d="M286.154,171.347c0-0.342-0.006-0.636-0.024-0.905h0.462l0.018,0.569h0.024c0.132-0.39,0.45-0.636,0.804-0.636
			c0.06,0,0.102,0.007,0.15,0.019v0.497c-0.054-0.012-0.108-0.018-0.18-0.018c-0.372,0-0.635,0.282-0.708,0.678
			c-0.012,0.072-0.024,0.156-0.024,0.246v1.547h-0.521V171.347z"/>
		<path d="M290.059,172.072l-0.42,1.271h-0.54l1.373-4.042h0.63l1.379,4.042h-0.558l-0.432-1.271H290.059z M291.384,171.665
			l-0.396-1.164c-0.09-0.264-0.15-0.503-0.21-0.737h-0.012c-0.06,0.24-0.126,0.485-0.204,0.731l-0.396,1.17H291.384z"/>
		<path d="M293.042,171.347c0-0.342-0.006-0.636-0.024-0.905h0.462l0.018,0.569h0.024c0.132-0.39,0.45-0.636,0.804-0.636
			c0.06,0,0.102,0.007,0.15,0.019v0.497c-0.054-0.012-0.108-0.018-0.18-0.018c-0.372,0-0.635,0.282-0.708,0.678
			c-0.012,0.072-0.024,0.156-0.024,0.246v1.547h-0.521V171.347z"/>
		<path d="M295.027,171.227c0-0.3-0.006-0.545-0.024-0.785h0.462l0.024,0.468h0.018c0.162-0.276,0.432-0.534,0.912-0.534
			c0.396,0,0.695,0.24,0.821,0.582h0.012c0.09-0.162,0.204-0.288,0.324-0.378c0.174-0.132,0.366-0.204,0.642-0.204
			c0.384,0,0.954,0.252,0.954,1.26v1.709h-0.516V171.7c0-0.558-0.204-0.893-0.63-0.893c-0.3,0-0.534,0.222-0.624,0.479
			c-0.024,0.071-0.042,0.168-0.042,0.264v1.793h-0.516v-1.739c0-0.462-0.204-0.797-0.606-0.797c-0.33,0-0.569,0.264-0.653,0.527
			c-0.03,0.078-0.042,0.168-0.042,0.258v1.751h-0.516V171.227z"/>
		<path d="M301.321,169.355c0.264-0.054,0.642-0.083,1.001-0.083c0.558,0,0.917,0.102,1.169,0.329
			c0.204,0.18,0.318,0.456,0.318,0.768c0,0.534-0.336,0.888-0.762,1.031v0.019c0.312,0.107,0.498,0.396,0.594,0.815
			c0.132,0.563,0.228,0.953,0.312,1.109h-0.54c-0.066-0.114-0.156-0.462-0.27-0.966c-0.12-0.558-0.336-0.768-0.81-0.785h-0.492
			v1.751h-0.522V169.355z M301.843,171.197h0.534c0.558,0,0.912-0.307,0.912-0.768c0-0.522-0.378-0.75-0.93-0.756
			c-0.252,0-0.432,0.023-0.516,0.048V171.197z"/>
	</g>
	
		<line style="display:inline;fill:#FFFFFF;stroke:#E61E5A;stroke-width:0.75;stroke-miterlimit:10;" x1="81" y1="269.8" x2="91" y2="269.8"/>
	
		<line style="display:inline;fill:#FFFFFF;stroke:#E61E5A;stroke-width:0.75;stroke-miterlimit:10;" x1="86" y1="274.8" x2="86" y2="264.8"/>
	<circle style="display:inline;fill:#E61E5A;" cx="86" cy="269.8" r="2"/>
	<g style="display:inline;">
		<path d="M92.456,266.802h2.177v0.438h-1.655v1.344h1.529v0.432h-1.529v1.829h-0.522V266.802z"/>
		<path d="M97.8,269.368c0,1.074-0.744,1.542-1.445,1.542c-0.786,0-1.391-0.576-1.391-1.493c0-0.972,0.636-1.542,1.439-1.542
			C97.236,267.875,97.8,268.481,97.8,269.368z M95.498,269.398c0,0.636,0.366,1.115,0.881,1.115c0.504,0,0.881-0.474,0.881-1.127
			c0-0.492-0.246-1.115-0.869-1.115C95.767,268.271,95.498,268.847,95.498,269.398z"/>
		<path d="M98.468,268.847c0-0.342-0.006-0.636-0.024-0.905h0.462l0.018,0.569h0.024c0.132-0.39,0.45-0.636,0.804-0.636
			c0.06,0,0.102,0.007,0.15,0.019v0.497c-0.054-0.012-0.108-0.018-0.18-0.018c-0.372,0-0.636,0.282-0.708,0.678
			c-0.012,0.072-0.024,0.156-0.024,0.246v1.547h-0.521V268.847z"/>
		<path d="M100.663,269.488c0.012,0.714,0.468,1.008,0.996,1.008c0.378,0,0.605-0.066,0.804-0.15l0.09,0.378
			c-0.186,0.084-0.504,0.18-0.965,0.18c-0.894,0-1.427-0.587-1.427-1.463c0-0.875,0.516-1.565,1.361-1.565
			c0.947,0,1.199,0.834,1.199,1.367c0,0.108-0.012,0.192-0.018,0.246H100.663z M102.21,269.11c0.006-0.336-0.138-0.857-0.731-0.857
			c-0.534,0-0.768,0.492-0.81,0.857H102.21z"/>
		<path d="M104.982,270.844l-0.042-0.366h-0.018c-0.162,0.229-0.474,0.433-0.888,0.433c-0.587,0-0.887-0.414-0.887-0.834
			c0-0.701,0.624-1.085,1.745-1.079v-0.061c0-0.239-0.066-0.671-0.66-0.671c-0.27,0-0.552,0.084-0.756,0.216l-0.12-0.349
			c0.24-0.155,0.587-0.258,0.953-0.258c0.888,0,1.104,0.606,1.104,1.188v1.086c0,0.252,0.012,0.497,0.048,0.695H104.982z
			 M104.904,269.362c-0.576-0.012-1.229,0.09-1.229,0.654c0,0.342,0.228,0.503,0.498,0.503c0.378,0,0.618-0.239,0.702-0.485
			c0.018-0.054,0.03-0.114,0.03-0.168V269.362z"/>
		<path d="M106.268,268.847c0-0.342-0.006-0.636-0.024-0.905h0.462l0.018,0.569h0.024c0.132-0.39,0.45-0.636,0.804-0.636
			c0.06,0,0.102,0.007,0.15,0.019v0.497c-0.054-0.012-0.108-0.018-0.18-0.018c-0.372,0-0.636,0.282-0.708,0.678
			c-0.012,0.072-0.024,0.156-0.024,0.246v1.547h-0.521V268.847z"/>
		<path d="M108.253,268.727c0-0.3-0.006-0.545-0.024-0.785h0.462l0.024,0.468h0.018c0.162-0.276,0.432-0.534,0.912-0.534
			c0.396,0,0.695,0.24,0.821,0.582h0.012c0.09-0.162,0.204-0.288,0.324-0.378c0.174-0.132,0.366-0.204,0.642-0.204
			c0.384,0,0.954,0.252,0.954,1.26v1.709h-0.516V269.2c0-0.558-0.204-0.893-0.63-0.893c-0.3,0-0.534,0.222-0.624,0.479
			c-0.024,0.071-0.042,0.168-0.042,0.264v1.793h-0.516v-1.739c0-0.462-0.204-0.797-0.606-0.797c-0.33,0-0.569,0.264-0.653,0.527
			c-0.03,0.078-0.042,0.168-0.042,0.258v1.751h-0.516V268.727z"/>
		<path d="M114.547,266.802h0.522v3.604h1.727v0.438h-2.249V266.802z"/>
	</g>
	
		<line style="display:inline;fill:#FFFFFF;stroke:#E61E5A;stroke-width:0.75;stroke-miterlimit:10;" x1="267" y1="269.8" x2="277" y2="269.8"/>
	
		<line style="display:inline;fill:#FFFFFF;stroke:#E61E5A;stroke-width:0.75;stroke-miterlimit:10;" x1="272" y1="274.8" x2="272" y2="264.8"/>
	<circle style="display:inline;fill:#E61E5A;" cx="272" cy="269.8" r="2"/>
	<g style="display:inline;">
		<path d="M278.456,266.802h2.177v0.438h-1.655v1.344h1.529v0.432h-1.529v1.829h-0.522V266.802z"/>
		<path d="M283.8,269.368c0,1.074-0.744,1.542-1.445,1.542c-0.786,0-1.391-0.576-1.391-1.493c0-0.972,0.636-1.542,1.439-1.542
			C283.236,267.875,283.8,268.481,283.8,269.368z M281.498,269.398c0,0.636,0.366,1.115,0.881,1.115
			c0.504,0,0.881-0.474,0.881-1.127c0-0.492-0.246-1.115-0.869-1.115C281.767,268.271,281.498,268.847,281.498,269.398z"/>
		<path d="M284.468,268.847c0-0.342-0.006-0.636-0.024-0.905h0.462l0.018,0.569h0.024c0.132-0.39,0.45-0.636,0.804-0.636
			c0.06,0,0.102,0.007,0.15,0.019v0.497c-0.054-0.012-0.108-0.018-0.18-0.018c-0.372,0-0.636,0.282-0.708,0.678
			c-0.012,0.072-0.024,0.156-0.024,0.246v1.547h-0.521V268.847z"/>
		<path d="M286.663,269.488c0.012,0.714,0.468,1.008,0.996,1.008c0.378,0,0.605-0.066,0.804-0.15l0.09,0.378
			c-0.186,0.084-0.504,0.18-0.965,0.18c-0.894,0-1.427-0.587-1.427-1.463c0-0.875,0.516-1.565,1.361-1.565
			c0.947,0,1.199,0.834,1.199,1.367c0,0.108-0.012,0.192-0.018,0.246H286.663z M288.21,269.11c0.006-0.336-0.138-0.857-0.731-0.857
			c-0.534,0-0.768,0.492-0.81,0.857H288.21z"/>
		<path d="M290.982,270.844l-0.042-0.366h-0.018c-0.162,0.229-0.474,0.433-0.888,0.433c-0.587,0-0.887-0.414-0.887-0.834
			c0-0.701,0.624-1.085,1.745-1.079v-0.061c0-0.239-0.066-0.671-0.66-0.671c-0.27,0-0.552,0.084-0.756,0.216l-0.12-0.349
			c0.24-0.155,0.587-0.258,0.953-0.258c0.888,0,1.104,0.606,1.104,1.188v1.086c0,0.252,0.012,0.497,0.048,0.695H290.982z
			 M290.904,269.362c-0.576-0.012-1.229,0.09-1.229,0.654c0,0.342,0.228,0.503,0.498,0.503c0.378,0,0.618-0.239,0.702-0.485
			c0.018-0.054,0.03-0.114,0.03-0.168V269.362z"/>
		<path d="M292.268,268.847c0-0.342-0.006-0.636-0.024-0.905h0.462l0.018,0.569h0.024c0.132-0.39,0.45-0.636,0.804-0.636
			c0.06,0,0.102,0.007,0.15,0.019v0.497c-0.054-0.012-0.108-0.018-0.18-0.018c-0.372,0-0.636,0.282-0.708,0.678
			c-0.012,0.072-0.024,0.156-0.024,0.246v1.547h-0.521V268.847z"/>
		<path d="M294.253,268.727c0-0.3-0.006-0.545-0.024-0.785h0.462l0.024,0.468h0.018c0.162-0.276,0.432-0.534,0.912-0.534
			c0.396,0,0.695,0.24,0.821,0.582h0.012c0.09-0.162,0.204-0.288,0.324-0.378c0.174-0.132,0.366-0.204,0.642-0.204
			c0.384,0,0.954,0.252,0.954,1.26v1.709h-0.516V269.2c0-0.558-0.204-0.893-0.63-0.893c-0.3,0-0.534,0.222-0.624,0.479
			c-0.024,0.071-0.042,0.168-0.042,0.264v1.793h-0.516v-1.739c0-0.462-0.204-0.797-0.606-0.797c-0.33,0-0.569,0.264-0.653,0.527
			c-0.03,0.078-0.042,0.168-0.042,0.258v1.751h-0.516V268.727z"/>
		<path d="M300.547,266.855c0.264-0.054,0.642-0.083,1.001-0.083c0.558,0,0.917,0.102,1.169,0.329
			c0.204,0.18,0.318,0.456,0.318,0.768c0,0.534-0.336,0.888-0.762,1.031v0.019c0.312,0.107,0.498,0.396,0.594,0.815
			c0.132,0.563,0.228,0.953,0.312,1.109h-0.54c-0.066-0.114-0.156-0.462-0.27-0.966c-0.12-0.558-0.336-0.768-0.81-0.785h-0.492
			v1.751h-0.522V266.855z M301.069,268.697h0.534c0.558,0,0.912-0.307,0.912-0.768c0-0.522-0.378-0.75-0.93-0.756
			c-0.252,0-0.432,0.023-0.516,0.048V268.697z"/>
	</g>
	
		<line style="display:inline;fill:#FFFFFF;stroke:#E61E5A;stroke-width:0.75;stroke-miterlimit:10;" x1="74" y1="338.1" x2="84" y2="338.1"/>
	
		<line style="display:inline;fill:#FFFFFF;stroke:#E61E5A;stroke-width:0.75;stroke-miterlimit:10;" x1="79" y1="343.1" x2="79" y2="333.1"/>
	<circle style="display:inline;fill:#E61E5A;" cx="79" cy="338.1" r="2"/>
	<g style="display:inline;">
		<path d="M85.978,335.102v1.691h1.955v-1.691h0.527v4.042h-0.527v-1.895h-1.955v1.895h-0.522v-4.042H85.978z"/>
		<path d="M90.957,339.144l-0.042-0.366h-0.018c-0.162,0.229-0.474,0.433-0.888,0.433c-0.587,0-0.887-0.414-0.887-0.834
			c0-0.701,0.624-1.085,1.745-1.079v-0.061c0-0.239-0.066-0.671-0.66-0.671c-0.27,0-0.552,0.084-0.756,0.216l-0.12-0.349
			c0.24-0.155,0.587-0.258,0.953-0.258c0.888,0,1.104,0.606,1.104,1.188v1.086c0,0.252,0.012,0.497,0.048,0.695H90.957z
			 M90.879,337.663c-0.576-0.012-1.229,0.09-1.229,0.654c0,0.342,0.228,0.503,0.498,0.503c0.378,0,0.618-0.239,0.702-0.485
			c0.018-0.054,0.03-0.114,0.03-0.168V337.663z"/>
		<path d="M92.242,337.027c0-0.3-0.006-0.545-0.024-0.785h0.468l0.03,0.479h0.012c0.144-0.275,0.48-0.546,0.959-0.546
			c0.402,0,1.025,0.24,1.025,1.235v1.733h-0.527v-1.673c0-0.468-0.174-0.857-0.672-0.857c-0.348,0-0.618,0.245-0.708,0.539
			c-0.024,0.066-0.036,0.156-0.036,0.246v1.745h-0.527V337.027z"/>
		<path d="M98.079,334.886v3.508c0,0.258,0.006,0.552,0.024,0.75h-0.474l-0.024-0.504h-0.012c-0.162,0.324-0.516,0.57-0.989,0.57
			c-0.702,0-1.241-0.594-1.241-1.476c-0.006-0.966,0.594-1.56,1.301-1.56c0.444,0,0.744,0.21,0.875,0.444h0.012v-1.733H98.079z
			 M97.551,337.423c0-0.066-0.006-0.156-0.024-0.223c-0.078-0.335-0.366-0.611-0.761-0.611c-0.546,0-0.87,0.479-0.87,1.121
			c0,0.588,0.288,1.074,0.857,1.074c0.354,0,0.678-0.234,0.773-0.63c0.018-0.072,0.024-0.145,0.024-0.229V337.423z"/>
		<path d="M100.246,335.102h0.522v3.604h1.727v0.438h-2.249V335.102z"/>
	</g>
	
		<line style="display:inline;fill:#FFFFFF;stroke:#E61E5A;stroke-width:0.75;stroke-miterlimit:10;" x1="274" y1="338.1" x2="284" y2="338.1"/>
	
		<line style="display:inline;fill:#FFFFFF;stroke:#E61E5A;stroke-width:0.75;stroke-miterlimit:10;" x1="279" y1="343.1" x2="279" y2="333.1"/>
	<circle style="display:inline;fill:#E61E5A;" cx="279" cy="338.1" r="2"/>
	<g style="display:inline;">
		<path d="M285.978,335.102v1.691h1.955v-1.691h0.527v4.042h-0.527v-1.895h-1.955v1.895h-0.522v-4.042H285.978z"/>
		<path d="M290.957,339.144l-0.042-0.366h-0.018c-0.162,0.229-0.474,0.433-0.888,0.433c-0.587,0-0.887-0.414-0.887-0.834
			c0-0.701,0.624-1.085,1.745-1.079v-0.061c0-0.239-0.066-0.671-0.66-0.671c-0.27,0-0.552,0.084-0.756,0.216l-0.12-0.349
			c0.24-0.155,0.587-0.258,0.953-0.258c0.888,0,1.104,0.606,1.104,1.188v1.086c0,0.252,0.012,0.497,0.048,0.695H290.957z
			 M290.879,337.663c-0.576-0.012-1.229,0.09-1.229,0.654c0,0.342,0.228,0.503,0.498,0.503c0.378,0,0.618-0.239,0.702-0.485
			c0.018-0.054,0.03-0.114,0.03-0.168V337.663z"/>
		<path d="M292.242,337.027c0-0.3-0.006-0.545-0.024-0.785h0.468l0.03,0.479h0.012c0.144-0.275,0.48-0.546,0.959-0.546
			c0.402,0,1.025,0.24,1.025,1.235v1.733h-0.527v-1.673c0-0.468-0.174-0.857-0.672-0.857c-0.348,0-0.618,0.245-0.708,0.539
			c-0.024,0.066-0.036,0.156-0.036,0.246v1.745h-0.527V337.027z"/>
		<path d="M298.079,334.886v3.508c0,0.258,0.006,0.552,0.024,0.75h-0.474l-0.024-0.504h-0.012c-0.162,0.324-0.516,0.57-0.989,0.57
			c-0.702,0-1.241-0.594-1.241-1.476c-0.006-0.966,0.594-1.56,1.301-1.56c0.444,0,0.744,0.21,0.875,0.444h0.012v-1.733H298.079z
			 M297.551,337.423c0-0.066-0.006-0.156-0.024-0.223c-0.078-0.335-0.366-0.611-0.761-0.611c-0.546,0-0.87,0.479-0.87,1.121
			c0,0.588,0.288,1.074,0.857,1.074c0.354,0,0.678-0.234,0.773-0.63c0.018-0.072,0.024-0.145,0.024-0.229V337.423z"/>
		<path d="M300.246,335.156c0.264-0.054,0.642-0.083,1.001-0.083c0.558,0,0.917,0.102,1.169,0.329
			c0.204,0.18,0.318,0.456,0.318,0.768c0,0.534-0.336,0.888-0.762,1.031v0.019c0.312,0.107,0.498,0.396,0.594,0.815
			c0.132,0.563,0.228,0.953,0.312,1.109h-0.54c-0.066-0.114-0.156-0.462-0.27-0.966c-0.12-0.558-0.336-0.768-0.81-0.785h-0.492
			v1.751h-0.522V335.156z M300.768,336.998h0.534c0.558,0,0.912-0.307,0.912-0.768c0-0.522-0.378-0.75-0.93-0.756
			c-0.252,0-0.432,0.023-0.516,0.048V336.998z"/>
	</g>
	
		<line style="display:inline;fill:#FFFFFF;stroke:#E61E5A;stroke-width:0.75;stroke-miterlimit:10;" x1="174" y1="300" x2="184" y2="300"/>
	
		<line style="display:inline;fill:#FFFFFF;stroke:#E61E5A;stroke-width:0.75;stroke-miterlimit:10;" x1="179" y1="305" x2="179" y2="295"/>
	<circle style="display:inline;fill:#E61E5A;" cx="179" cy="300" r="2"/>
	<g style="display:inline;">
		<path d="M186.235,297.446h-1.229v-0.444h2.992v0.444h-1.235v3.598h-0.528V297.446z"/>
		<path d="M190.632,299.568c0,1.074-0.744,1.542-1.445,1.542c-0.786,0-1.391-0.576-1.391-1.493c0-0.972,0.636-1.542,1.439-1.542
			C190.068,298.075,190.632,298.682,190.632,299.568z M188.33,299.599c0,0.636,0.366,1.115,0.881,1.115
			c0.504,0,0.881-0.474,0.881-1.127c0-0.492-0.246-1.115-0.869-1.115C188.599,298.472,188.33,299.047,188.33,299.599z"/>
		<path d="M191.3,299.047c0-0.342-0.006-0.636-0.024-0.905h0.462l0.018,0.569h0.024c0.132-0.39,0.45-0.636,0.804-0.636
			c0.06,0,0.102,0.007,0.15,0.019v0.497c-0.054-0.012-0.108-0.018-0.18-0.018c-0.372,0-0.636,0.282-0.708,0.678
			c-0.012,0.072-0.024,0.156-0.024,0.246v1.547H191.3V299.047z"/>
		<path d="M193.189,300.504c0.156,0.103,0.432,0.21,0.696,0.21c0.384,0,0.563-0.191,0.563-0.432c0-0.252-0.15-0.39-0.54-0.533
			c-0.522-0.187-0.768-0.474-0.768-0.822c0-0.468,0.378-0.852,1.001-0.852c0.294,0,0.552,0.084,0.713,0.181l-0.132,0.384
			c-0.114-0.072-0.324-0.168-0.594-0.168c-0.312,0-0.485,0.18-0.485,0.396c0,0.24,0.174,0.348,0.551,0.491
			c0.504,0.192,0.762,0.444,0.762,0.876c0,0.51-0.396,0.869-1.085,0.869c-0.318,0-0.611-0.077-0.815-0.197L193.189,300.504z"/>
		<path d="M198.264,299.568c0,1.074-0.744,1.542-1.445,1.542c-0.786,0-1.391-0.576-1.391-1.493c0-0.972,0.636-1.542,1.439-1.542
			C197.7,298.075,198.264,298.682,198.264,299.568z M195.961,299.599c0,0.636,0.366,1.115,0.881,1.115
			c0.504,0,0.881-0.474,0.881-1.127c0-0.492-0.246-1.115-0.869-1.115C196.231,298.472,195.961,299.047,195.961,299.599z"/>
		<path d="M200.221,297.002h2.177v0.438h-1.655v1.344h1.529v0.432h-1.529v1.829h-0.522V297.002z"/>
		<path d="M202.969,299.047c0-0.342-0.006-0.636-0.024-0.905h0.462l0.018,0.569h0.024c0.132-0.39,0.45-0.636,0.804-0.636
			c0.06,0,0.102,0.007,0.15,0.019v0.497c-0.054-0.012-0.108-0.018-0.18-0.018c-0.372,0-0.635,0.282-0.708,0.678
			c-0.012,0.072-0.024,0.156-0.024,0.246v1.547h-0.521V299.047z"/>
		<path d="M207.498,299.568c0,1.074-0.744,1.542-1.445,1.542c-0.786,0-1.391-0.576-1.391-1.493c0-0.972,0.636-1.542,1.439-1.542
			C206.934,298.075,207.498,298.682,207.498,299.568z M205.195,299.599c0,0.636,0.366,1.115,0.881,1.115
			c0.504,0,0.881-0.474,0.881-1.127c0-0.492-0.246-1.115-0.869-1.115C205.464,298.472,205.195,299.047,205.195,299.599z"/>
		<path d="M208.165,298.927c0-0.3-0.006-0.545-0.024-0.785h0.468l0.03,0.479h0.012c0.144-0.275,0.48-0.546,0.959-0.546
			c0.402,0,1.025,0.24,1.025,1.235v1.733h-0.527v-1.673c0-0.468-0.174-0.857-0.672-0.857c-0.348,0-0.618,0.245-0.708,0.539
			c-0.024,0.066-0.036,0.156-0.036,0.246v1.745h-0.527V298.927z"/>
		<path d="M212.106,297.308v0.834h0.756v0.401h-0.756v1.565c0,0.359,0.102,0.563,0.396,0.563c0.138,0,0.24-0.018,0.306-0.036
			l0.024,0.396c-0.102,0.042-0.264,0.071-0.468,0.071c-0.246,0-0.443-0.077-0.569-0.222c-0.15-0.155-0.204-0.414-0.204-0.756v-1.583
			h-0.45v-0.401h0.45v-0.695L212.106,297.308z"/>
	</g>
	
		<line style="display:inline;fill:#FFFFFF;stroke:#E61E5A;stroke-width:0.75;stroke-miterlimit:10;" x1="174" y1="300" x2="184" y2="300"/>
	
		<line style="display:inline;fill:#FFFFFF;stroke:#E61E5A;stroke-width:0.75;stroke-miterlimit:10;" x1="179" y1="305" x2="179" y2="295"/>
	<circle style="display:inline;fill:#E61E5A;" cx="179" cy="300" r="2"/>
	<g style="display:inline;">
		<path d="M186.235,297.446h-1.229v-0.444h2.992v0.444h-1.235v3.598h-0.528V297.446z"/>
		<path d="M190.632,299.568c0,1.074-0.744,1.542-1.445,1.542c-0.786,0-1.391-0.576-1.391-1.493c0-0.972,0.636-1.542,1.439-1.542
			C190.068,298.075,190.632,298.682,190.632,299.568z M188.33,299.599c0,0.636,0.366,1.115,0.881,1.115
			c0.504,0,0.881-0.474,0.881-1.127c0-0.492-0.246-1.115-0.869-1.115C188.599,298.472,188.33,299.047,188.33,299.599z"/>
		<path d="M191.3,299.047c0-0.342-0.006-0.636-0.024-0.905h0.462l0.018,0.569h0.024c0.132-0.39,0.45-0.636,0.804-0.636
			c0.06,0,0.102,0.007,0.15,0.019v0.497c-0.054-0.012-0.108-0.018-0.18-0.018c-0.372,0-0.636,0.282-0.708,0.678
			c-0.012,0.072-0.024,0.156-0.024,0.246v1.547H191.3V299.047z"/>
		<path d="M193.189,300.504c0.156,0.103,0.432,0.21,0.696,0.21c0.384,0,0.563-0.191,0.563-0.432c0-0.252-0.15-0.39-0.54-0.533
			c-0.522-0.187-0.768-0.474-0.768-0.822c0-0.468,0.378-0.852,1.001-0.852c0.294,0,0.552,0.084,0.713,0.181l-0.132,0.384
			c-0.114-0.072-0.324-0.168-0.594-0.168c-0.312,0-0.485,0.18-0.485,0.396c0,0.24,0.174,0.348,0.551,0.491
			c0.504,0.192,0.762,0.444,0.762,0.876c0,0.51-0.396,0.869-1.085,0.869c-0.318,0-0.611-0.077-0.815-0.197L193.189,300.504z"/>
		<path d="M198.264,299.568c0,1.074-0.744,1.542-1.445,1.542c-0.786,0-1.391-0.576-1.391-1.493c0-0.972,0.636-1.542,1.439-1.542
			C197.7,298.075,198.264,298.682,198.264,299.568z M195.961,299.599c0,0.636,0.366,1.115,0.881,1.115
			c0.504,0,0.881-0.474,0.881-1.127c0-0.492-0.246-1.115-0.869-1.115C196.231,298.472,195.961,299.047,195.961,299.599z"/>
		<path d="M200.221,297.056c0.228-0.048,0.588-0.083,0.954-0.083c0.522,0,0.857,0.09,1.109,0.293
			c0.21,0.156,0.336,0.396,0.336,0.714c0,0.39-0.258,0.731-0.684,0.888v0.012c0.384,0.096,0.833,0.414,0.833,1.014
			c0,0.348-0.138,0.611-0.342,0.81c-0.282,0.258-0.738,0.378-1.397,0.378c-0.36,0-0.635-0.024-0.81-0.048V297.056z M200.743,298.711
			h0.474c0.552,0,0.875-0.287,0.875-0.678c0-0.474-0.36-0.659-0.887-0.659c-0.24,0-0.378,0.018-0.462,0.036V298.711z
			 M200.743,300.648c0.102,0.018,0.252,0.023,0.438,0.023c0.54,0,1.038-0.197,1.038-0.785c0-0.552-0.474-0.779-1.043-0.779h-0.432
			V300.648z"/>
		<path d="M205.062,301.044l-0.042-0.366h-0.018c-0.162,0.229-0.474,0.433-0.888,0.433c-0.587,0-0.887-0.414-0.887-0.834
			c0-0.701,0.624-1.085,1.745-1.079v-0.061c0-0.239-0.066-0.671-0.66-0.671c-0.27,0-0.552,0.084-0.756,0.216l-0.12-0.349
			c0.24-0.155,0.587-0.258,0.953-0.258c0.888,0,1.104,0.606,1.104,1.188v1.086c0,0.252,0.012,0.497,0.048,0.695H205.062z
			 M204.984,299.562c-0.576-0.012-1.229,0.09-1.229,0.654c0,0.342,0.228,0.503,0.498,0.503c0.378,0,0.618-0.239,0.702-0.485
			c0.018-0.054,0.03-0.114,0.03-0.168V299.562z"/>
		<path d="M208.417,300.936c-0.138,0.072-0.444,0.168-0.834,0.168c-0.875,0-1.445-0.594-1.445-1.48c0-0.894,0.611-1.541,1.559-1.541
			c0.312,0,0.587,0.077,0.731,0.149l-0.12,0.408c-0.126-0.072-0.324-0.139-0.612-0.139c-0.666,0-1.025,0.492-1.025,1.098
			c0,0.672,0.432,1.086,1.007,1.086c0.3,0,0.498-0.078,0.647-0.145L208.417,300.936z"/>
		<path d="M209.557,299.473h0.012c0.072-0.102,0.174-0.228,0.258-0.33l0.852-1.001h0.635l-1.121,1.193l1.277,1.709h-0.642
			l-1.001-1.392l-0.27,0.3v1.092h-0.521v-4.258h0.521V299.473z"/>
	</g>
	
		<line style="display:inline;fill:#FFFFFF;stroke:#E61E5A;stroke-width:0.75;stroke-miterlimit:10;" x1="174" y1="328.4" x2="184" y2="328.4"/>
	
		<line style="display:inline;fill:#FFFFFF;stroke:#E61E5A;stroke-width:0.75;stroke-miterlimit:10;" x1="179" y1="333.4" x2="179" y2="323.4"/>
	<circle style="display:inline;fill:#E61E5A;" cx="179" cy="328.4" r="2"/>
	<g style="display:inline;">
		<path d="M185.456,325.45c0.252-0.042,0.582-0.077,1.001-0.077c0.516,0,0.894,0.119,1.134,0.335
			c0.222,0.192,0.354,0.486,0.354,0.846c0,0.366-0.108,0.654-0.312,0.863c-0.275,0.294-0.726,0.444-1.235,0.444
			c-0.156,0-0.3-0.006-0.42-0.036v1.619h-0.522V325.45z M185.978,327.399c0.114,0.03,0.258,0.042,0.432,0.042
			c0.63,0,1.014-0.306,1.014-0.863c0-0.534-0.378-0.792-0.954-0.792c-0.228,0-0.402,0.019-0.492,0.042V327.399z"/>
		<path d="M188.773,328.088c0.012,0.714,0.468,1.008,0.996,1.008c0.378,0,0.605-0.066,0.804-0.15l0.09,0.378
			c-0.186,0.084-0.504,0.18-0.965,0.18c-0.894,0-1.427-0.587-1.427-1.463c0-0.875,0.516-1.565,1.361-1.565
			c0.947,0,1.199,0.834,1.199,1.367c0,0.108-0.012,0.192-0.018,0.246H188.773z M190.321,327.71c0.006-0.336-0.138-0.857-0.731-0.857
			c-0.534,0-0.768,0.492-0.81,0.857H190.321z"/>
		<path d="M191.486,325.186h0.527v4.258h-0.527V325.186z"/>
		<path d="M193.105,326.542l0.57,1.631c0.096,0.264,0.174,0.504,0.234,0.744h0.018c0.066-0.24,0.15-0.48,0.246-0.744l0.564-1.631
			h0.551l-1.139,2.902h-0.504l-1.103-2.902H193.105z"/>
		<path d="M196.375,325.726c0.006,0.18-0.126,0.323-0.336,0.323c-0.186,0-0.318-0.144-0.318-0.323c0-0.187,0.138-0.33,0.33-0.33
			C196.249,325.396,196.375,325.54,196.375,325.726z M195.788,329.444v-2.902h0.527v2.902H195.788z"/>
		<path d="M197.119,328.904c0.156,0.103,0.432,0.21,0.696,0.21c0.384,0,0.563-0.191,0.563-0.432c0-0.252-0.15-0.39-0.54-0.533
			c-0.522-0.187-0.768-0.474-0.768-0.822c0-0.468,0.378-0.852,1.001-0.852c0.294,0,0.552,0.084,0.713,0.181l-0.132,0.384
			c-0.114-0.072-0.324-0.168-0.594-0.168c-0.312,0-0.485,0.18-0.485,0.396c0,0.24,0.174,0.348,0.551,0.491
			c0.504,0.192,0.762,0.444,0.762,0.876c0,0.51-0.396,0.869-1.085,0.869c-0.318,0-0.611-0.077-0.815-0.197L197.119,328.904z"/>
	</g>
	
		<line style="display:inline;fill:#FFFFFF;stroke:#E61E5A;stroke-width:0.75;stroke-miterlimit:10;" x1="174" y1="328.4" x2="184" y2="328.4"/>
	
		<line style="display:inline;fill:#FFFFFF;stroke:#E61E5A;stroke-width:0.75;stroke-miterlimit:10;" x1="179" y1="333.4" x2="179" y2="323.4"/>
	<circle style="display:inline;fill:#E61E5A;" cx="179" cy="328.4" r="2"/>
	<g style="display:inline;">
		<path d="M185.384,328.808c0.234,0.144,0.576,0.264,0.936,0.264c0.534,0,0.846-0.281,0.846-0.689c0-0.378-0.216-0.594-0.762-0.804
			c-0.66-0.233-1.067-0.575-1.067-1.146c0-0.629,0.521-1.097,1.307-1.097c0.414,0,0.714,0.096,0.894,0.197l-0.144,0.426
			c-0.132-0.071-0.402-0.191-0.768-0.191c-0.552,0-0.762,0.33-0.762,0.605c0,0.378,0.246,0.563,0.804,0.779
			c0.684,0.264,1.032,0.594,1.032,1.188c0,0.624-0.462,1.163-1.416,1.163c-0.39,0-0.815-0.113-1.031-0.258L185.384,328.808z"/>
		<path d="M188.396,325.186h0.527v1.812h0.012c0.084-0.15,0.216-0.282,0.378-0.372c0.156-0.09,0.342-0.15,0.54-0.15
			c0.39,0,1.013,0.24,1.013,1.242v1.727h-0.527v-1.667c0-0.468-0.174-0.863-0.672-0.863c-0.342,0-0.612,0.239-0.708,0.527
			c-0.03,0.072-0.036,0.15-0.036,0.252v1.751h-0.527V325.186z"/>
		<path d="M194.353,327.968c0,1.074-0.744,1.542-1.445,1.542c-0.786,0-1.391-0.576-1.391-1.493c0-0.972,0.635-1.542,1.439-1.542
			C193.789,326.475,194.353,327.082,194.353,327.968z M192.05,327.999c0,0.636,0.366,1.115,0.881,1.115
			c0.504,0,0.881-0.474,0.881-1.127c0-0.492-0.246-1.115-0.869-1.115C192.319,326.872,192.05,327.447,192.05,327.999z"/>
		<path d="M195.02,327.447c0-0.342-0.006-0.636-0.024-0.905h0.462l0.018,0.569h0.024c0.132-0.39,0.45-0.636,0.804-0.636
			c0.06,0,0.102,0.007,0.15,0.019v0.497c-0.054-0.012-0.108-0.018-0.18-0.018c-0.372,0-0.635,0.282-0.708,0.678
			c-0.012,0.072-0.024,0.156-0.024,0.246v1.547h-0.521V327.447z"/>
		<path d="M197.761,325.708v0.834h0.756v0.401h-0.756v1.565c0,0.359,0.102,0.563,0.396,0.563c0.138,0,0.24-0.018,0.306-0.036
			l0.024,0.396c-0.102,0.042-0.264,0.071-0.468,0.071c-0.246,0-0.443-0.077-0.569-0.222c-0.15-0.155-0.204-0.414-0.204-0.756v-1.583
			h-0.45v-0.401h0.45v-0.695L197.761,325.708z"/>
		<path d="M199.04,328.904c0.156,0.103,0.432,0.21,0.696,0.21c0.384,0,0.563-0.191,0.563-0.432c0-0.252-0.15-0.39-0.54-0.533
			c-0.522-0.187-0.768-0.474-0.768-0.822c0-0.468,0.378-0.852,1.001-0.852c0.294,0,0.552,0.084,0.713,0.181l-0.132,0.384
			c-0.114-0.072-0.324-0.168-0.594-0.168c-0.312,0-0.485,0.18-0.485,0.396c0,0.24,0.174,0.348,0.551,0.491
			c0.504,0.192,0.762,0.444,0.762,0.876c0,0.51-0.396,0.869-1.085,0.869c-0.318,0-0.611-0.077-0.815-0.197L199.04,328.904z"/>
	</g>
	
		<line style="display:inline;fill:#FFFFFF;stroke:#E61E5A;stroke-width:0.75;stroke-miterlimit:10;" x1="128" y1="328.4" x2="138" y2="328.4"/>
	
		<line style="display:inline;fill:#FFFFFF;stroke:#E61E5A;stroke-width:0.75;stroke-miterlimit:10;" x1="133" y1="333.4" x2="133" y2="323.4"/>
	<circle style="display:inline;fill:#E61E5A;" cx="133" cy="328.4" r="2"/>
	<g style="display:inline;">
		<path d="M140.235,325.846h-1.229v-0.444h2.992v0.444h-1.235v3.598h-0.528V325.846z"/>
		<path d="M142.39,325.186h0.527v1.812h0.012c0.084-0.15,0.216-0.282,0.378-0.372c0.156-0.09,0.342-0.15,0.54-0.15
			c0.39,0,1.013,0.24,1.013,1.242v1.727h-0.527v-1.667c0-0.468-0.174-0.863-0.672-0.863c-0.342,0-0.612,0.239-0.708,0.527
			c-0.03,0.072-0.036,0.15-0.036,0.252v1.751h-0.527V325.186z"/>
		<path d="M146.307,325.726c0.006,0.18-0.126,0.323-0.336,0.323c-0.186,0-0.318-0.144-0.318-0.323c0-0.187,0.138-0.33,0.33-0.33
			C146.181,325.396,146.307,325.54,146.307,325.726z M145.72,329.444v-2.902h0.527v2.902H145.72z"/>
		<path d="M149.624,326.542c-0.012,0.21-0.024,0.443-0.024,0.798v1.685c0,0.666-0.132,1.073-0.414,1.325
			c-0.282,0.264-0.689,0.348-1.055,0.348c-0.348,0-0.732-0.084-0.966-0.239l0.132-0.402c0.192,0.12,0.492,0.229,0.852,0.229
			c0.54,0,0.935-0.282,0.935-1.014v-0.324h-0.012c-0.162,0.271-0.474,0.486-0.923,0.486c-0.72,0-1.235-0.612-1.235-1.415
			c0-0.984,0.642-1.542,1.307-1.542c0.504,0,0.78,0.265,0.905,0.504h0.012l0.024-0.438H149.624z M149.078,327.687
			c0-0.09-0.006-0.168-0.03-0.24c-0.096-0.306-0.354-0.558-0.738-0.558c-0.503,0-0.863,0.426-0.863,1.098
			c0,0.569,0.288,1.043,0.857,1.043c0.324,0,0.618-0.203,0.731-0.539c0.03-0.09,0.042-0.192,0.042-0.282V327.687z"/>
		<path d="M150.478,325.186h0.527v1.812h0.012c0.084-0.15,0.216-0.282,0.378-0.372c0.156-0.09,0.342-0.15,0.54-0.15
			c0.39,0,1.013,0.24,1.013,1.242v1.727h-0.527v-1.667c0-0.468-0.174-0.863-0.672-0.863c-0.342,0-0.612,0.239-0.708,0.527
			c-0.03,0.072-0.036,0.15-0.036,0.252v1.751h-0.527V325.186z"/>
		<path d="M155.097,325.402h0.522v3.604h1.727v0.438h-2.249V325.402z"/>
	</g>
	
		<line style="display:inline;fill:#FFFFFF;stroke:#E61E5A;stroke-width:0.75;stroke-miterlimit:10;" x1="220" y1="328.4" x2="230" y2="328.4"/>
	
		<line style="display:inline;fill:#FFFFFF;stroke:#E61E5A;stroke-width:0.75;stroke-miterlimit:10;" x1="225" y1="333.4" x2="225" y2="323.4"/>
	<circle style="display:inline;fill:#E61E5A;" cx="225" cy="328.4" r="2"/>
	<g style="display:inline;">
		<path d="M232.235,325.846h-1.229v-0.444h2.992v0.444h-1.235v3.598h-0.528V325.846z"/>
		<path d="M234.39,325.186h0.527v1.812h0.012c0.084-0.15,0.216-0.282,0.378-0.372c0.156-0.09,0.342-0.15,0.54-0.15
			c0.39,0,1.013,0.24,1.013,1.242v1.727h-0.527v-1.667c0-0.468-0.174-0.863-0.672-0.863c-0.342,0-0.612,0.239-0.708,0.527
			c-0.03,0.072-0.036,0.15-0.036,0.252v1.751h-0.527V325.186z"/>
		<path d="M238.307,325.726c0.006,0.18-0.126,0.323-0.336,0.323c-0.186,0-0.318-0.144-0.318-0.323c0-0.187,0.138-0.33,0.33-0.33
			C238.181,325.396,238.307,325.54,238.307,325.726z M237.72,329.444v-2.902h0.527v2.902H237.72z"/>
		<path d="M241.624,326.542c-0.012,0.21-0.024,0.443-0.024,0.798v1.685c0,0.666-0.132,1.073-0.414,1.325
			c-0.282,0.264-0.689,0.348-1.055,0.348c-0.348,0-0.732-0.084-0.966-0.239l0.132-0.402c0.192,0.12,0.492,0.229,0.852,0.229
			c0.54,0,0.935-0.282,0.935-1.014v-0.324h-0.012c-0.162,0.271-0.474,0.486-0.923,0.486c-0.72,0-1.235-0.612-1.235-1.415
			c0-0.984,0.642-1.542,1.307-1.542c0.504,0,0.78,0.265,0.905,0.504h0.012l0.024-0.438H241.624z M241.078,327.687
			c0-0.09-0.006-0.168-0.03-0.24c-0.096-0.306-0.354-0.558-0.738-0.558c-0.503,0-0.863,0.426-0.863,1.098
			c0,0.569,0.288,1.043,0.857,1.043c0.324,0,0.618-0.203,0.731-0.539c0.03-0.09,0.042-0.192,0.042-0.282V327.687z"/>
		<path d="M242.478,325.186h0.527v1.812h0.012c0.084-0.15,0.216-0.282,0.378-0.372c0.156-0.09,0.342-0.15,0.54-0.15
			c0.39,0,1.013,0.24,1.013,1.242v1.727h-0.527v-1.667c0-0.468-0.174-0.863-0.672-0.863c-0.342,0-0.612,0.239-0.708,0.527
			c-0.03,0.072-0.036,0.15-0.036,0.252v1.751h-0.527V325.186z"/>
		<path d="M247.097,325.456c0.264-0.054,0.642-0.083,1.001-0.083c0.558,0,0.917,0.102,1.169,0.329
			c0.204,0.18,0.318,0.456,0.318,0.768c0,0.534-0.336,0.888-0.762,1.031v0.019c0.312,0.107,0.498,0.396,0.594,0.815
			c0.132,0.563,0.228,0.953,0.312,1.109h-0.54c-0.066-0.114-0.156-0.462-0.27-0.966c-0.12-0.558-0.336-0.768-0.81-0.785h-0.492
			v1.751h-0.522V325.456z M247.619,327.297h0.534c0.558,0,0.912-0.307,0.912-0.768c0-0.522-0.378-0.75-0.93-0.756
			c-0.252,0-0.432,0.023-0.516,0.048V327.297z"/>
	</g>
	
		<line style="display:inline;fill:#FFFFFF;stroke:#E61E5A;stroke-width:0.75;stroke-miterlimit:10;" x1="76" y1="435.7" x2="86" y2="435.7"/>
	
		<line style="display:inline;fill:#FFFFFF;stroke:#E61E5A;stroke-width:0.75;stroke-miterlimit:10;" x1="81" y1="440.7" x2="81" y2="430.7"/>
	<circle style="display:inline;fill:#E61E5A;" cx="81" cy="435.7" r="2"/>
	<g style="display:inline;">
		<path d="M90.28,436.612c-0.192,0.096-0.576,0.191-1.067,0.191c-1.14,0-1.997-0.719-1.997-2.045c0-1.265,0.857-2.122,2.111-2.122
			c0.504,0,0.822,0.107,0.959,0.18l-0.126,0.426c-0.198-0.096-0.479-0.168-0.815-0.168c-0.947,0-1.577,0.605-1.577,1.667
			c0,0.989,0.57,1.625,1.553,1.625c0.318,0,0.642-0.065,0.852-0.168L90.28,436.612z"/>
		<path d="M92.483,436.744l-0.042-0.366h-0.018c-0.162,0.229-0.474,0.433-0.888,0.433c-0.587,0-0.887-0.414-0.887-0.834
			c0-0.701,0.624-1.085,1.745-1.079v-0.061c0-0.239-0.066-0.671-0.66-0.671c-0.27,0-0.552,0.084-0.756,0.216l-0.12-0.349
			c0.24-0.155,0.587-0.258,0.953-0.258c0.888,0,1.104,0.606,1.104,1.188v1.086c0,0.252,0.012,0.497,0.048,0.695H92.483z
			 M92.405,435.263c-0.576-0.012-1.229,0.09-1.229,0.654c0,0.342,0.228,0.503,0.498,0.503c0.378,0,0.618-0.239,0.702-0.485
			c0.018-0.054,0.03-0.114,0.03-0.168V435.263z"/>
		<path d="M93.768,432.486h0.527v4.258h-0.527V432.486z"/>
		<path d="M95.238,436.744v-2.501H94.83v-0.401h0.408v-0.138c0-0.408,0.09-0.78,0.336-1.014c0.198-0.192,0.461-0.27,0.708-0.27
			c0.186,0,0.348,0.042,0.45,0.084l-0.072,0.407c-0.078-0.036-0.186-0.065-0.336-0.065c-0.45,0-0.563,0.396-0.563,0.839v0.156h0.701
			v0.401H95.76v2.501H95.238z"/>
		<path d="M98.226,432.702h0.522v3.604h1.727v0.438h-2.249V432.702z"/>
	</g>
	
		<line style="display:inline;fill:#FFFFFF;stroke:#E61E5A;stroke-width:0.75;stroke-miterlimit:10;" x1="272" y1="435.7" x2="282" y2="435.7"/>
	
		<line style="display:inline;fill:#FFFFFF;stroke:#E61E5A;stroke-width:0.75;stroke-miterlimit:10;" x1="277" y1="440.7" x2="277" y2="430.7"/>
	<circle style="display:inline;fill:#E61E5A;" cx="277" cy="435.7" r="2"/>
	<g style="display:inline;">
		<path d="M286.28,436.612c-0.192,0.096-0.576,0.191-1.067,0.191c-1.14,0-1.997-0.719-1.997-2.045c0-1.265,0.857-2.122,2.111-2.122
			c0.504,0,0.822,0.107,0.959,0.18l-0.126,0.426c-0.198-0.096-0.479-0.168-0.815-0.168c-0.947,0-1.577,0.605-1.577,1.667
			c0,0.989,0.57,1.625,1.553,1.625c0.318,0,0.642-0.065,0.852-0.168L286.28,436.612z"/>
		<path d="M288.483,436.744l-0.042-0.366h-0.018c-0.162,0.229-0.474,0.433-0.888,0.433c-0.587,0-0.887-0.414-0.887-0.834
			c0-0.701,0.624-1.085,1.745-1.079v-0.061c0-0.239-0.066-0.671-0.66-0.671c-0.27,0-0.552,0.084-0.756,0.216l-0.12-0.349
			c0.24-0.155,0.587-0.258,0.953-0.258c0.888,0,1.104,0.606,1.104,1.188v1.086c0,0.252,0.012,0.497,0.048,0.695H288.483z
			 M288.405,435.263c-0.576-0.012-1.229,0.09-1.229,0.654c0,0.342,0.228,0.503,0.498,0.503c0.378,0,0.618-0.239,0.702-0.485
			c0.018-0.054,0.03-0.114,0.03-0.168V435.263z"/>
		<path d="M289.768,432.486h0.527v4.258h-0.527V432.486z"/>
		<path d="M291.238,436.744v-2.501h-0.408v-0.401h0.408v-0.138c0-0.408,0.09-0.78,0.336-1.014c0.198-0.192,0.461-0.27,0.708-0.27
			c0.186,0,0.348,0.042,0.45,0.084l-0.072,0.407c-0.078-0.036-0.186-0.065-0.336-0.065c-0.45,0-0.563,0.396-0.563,0.839v0.156h0.701
			v0.401h-0.701v2.501H291.238z"/>
		<path d="M294.226,432.756c0.264-0.054,0.642-0.083,1.001-0.083c0.558,0,0.917,0.102,1.169,0.329
			c0.204,0.18,0.318,0.456,0.318,0.768c0,0.534-0.336,0.888-0.762,1.031v0.019c0.312,0.107,0.498,0.396,0.594,0.815
			c0.132,0.563,0.228,0.953,0.312,1.109h-0.54c-0.066-0.114-0.156-0.462-0.27-0.966c-0.12-0.558-0.336-0.768-0.81-0.785h-0.492
			v1.751h-0.522V432.756z M294.748,434.598h0.534c0.558,0,0.912-0.307,0.912-0.768c0-0.522-0.378-0.75-0.93-0.756
			c-0.252,0-0.432,0.023-0.516,0.048V434.598z"/>
	</g>
	
		<line style="display:inline;fill:#FFFFFF;stroke:#E61E5A;stroke-width:0.75;stroke-miterlimit:10;" x1="89" y1="538.2" x2="99" y2="538.2"/>
	
		<line style="display:inline;fill:#FFFFFF;stroke:#E61E5A;stroke-width:0.75;stroke-miterlimit:10;" x1="94" y1="543.2" x2="94" y2="533.2"/>
	<circle style="display:inline;fill:#E61E5A;" cx="94" cy="538.2" r="2"/>
	<g style="display:inline;">
		<path d="M100.456,535.202h2.177v0.438h-1.655v1.344h1.529v0.432h-1.529v1.829h-0.522V535.202z"/>
		<path d="M105.8,537.769c0,1.074-0.744,1.542-1.445,1.542c-0.786,0-1.391-0.576-1.391-1.493c0-0.972,0.636-1.542,1.439-1.542
			C105.236,536.275,105.8,536.882,105.8,537.769z M103.498,537.799c0,0.636,0.366,1.115,0.881,1.115
			c0.504,0,0.881-0.474,0.881-1.127c0-0.492-0.246-1.115-0.869-1.115C103.767,536.672,103.498,537.247,103.498,537.799z"/>
		<path d="M109.094,537.769c0,1.074-0.744,1.542-1.445,1.542c-0.786,0-1.391-0.576-1.391-1.493c0-0.972,0.636-1.542,1.439-1.542
			C108.53,536.275,109.094,536.882,109.094,537.769z M106.792,537.799c0,0.636,0.366,1.115,0.881,1.115
			c0.504,0,0.881-0.474,0.881-1.127c0-0.492-0.246-1.115-0.869-1.115C107.061,536.672,106.792,537.247,106.792,537.799z"/>
		<path d="M110.397,535.508v0.834h0.756v0.401h-0.756v1.565c0,0.359,0.102,0.563,0.396,0.563c0.138,0,0.24-0.018,0.306-0.036
			l0.024,0.396c-0.102,0.042-0.264,0.071-0.468,0.071c-0.246,0-0.443-0.077-0.569-0.222c-0.15-0.155-0.204-0.414-0.204-0.756v-1.583
			h-0.45v-0.401h0.45v-0.695L110.397,535.508z"/>
		<path d="M113.037,535.202h0.522v3.604h1.727v0.438h-2.249V535.202z"/>
	</g>
	
		<line style="display:inline;fill:#FFFFFF;stroke:#E61E5A;stroke-width:0.75;stroke-miterlimit:10;" x1="259" y1="538.2" x2="269" y2="538.2"/>
	
		<line style="display:inline;fill:#FFFFFF;stroke:#E61E5A;stroke-width:0.75;stroke-miterlimit:10;" x1="264" y1="543.2" x2="264" y2="533.2"/>
	<circle style="display:inline;fill:#E61E5A;" cx="264" cy="538.2" r="2"/>
	<g style="display:inline;">
		<path d="M270.456,535.202h2.177v0.438h-1.655v1.344h1.529v0.432h-1.529v1.829h-0.522V535.202z"/>
		<path d="M275.8,537.769c0,1.074-0.744,1.542-1.445,1.542c-0.786,0-1.391-0.576-1.391-1.493c0-0.972,0.636-1.542,1.439-1.542
			C275.236,536.275,275.8,536.882,275.8,537.769z M273.498,537.799c0,0.636,0.366,1.115,0.881,1.115
			c0.504,0,0.881-0.474,0.881-1.127c0-0.492-0.246-1.115-0.869-1.115C273.767,536.672,273.498,537.247,273.498,537.799z"/>
		<path d="M279.094,537.769c0,1.074-0.744,1.542-1.445,1.542c-0.786,0-1.391-0.576-1.391-1.493c0-0.972,0.636-1.542,1.439-1.542
			C278.53,536.275,279.094,536.882,279.094,537.769z M276.792,537.799c0,0.636,0.366,1.115,0.881,1.115
			c0.504,0,0.881-0.474,0.881-1.127c0-0.492-0.246-1.115-0.869-1.115C277.061,536.672,276.792,537.247,276.792,537.799z"/>
		<path d="M280.397,535.508v0.834h0.756v0.401h-0.756v1.565c0,0.359,0.102,0.563,0.396,0.563c0.138,0,0.24-0.018,0.306-0.036
			l0.024,0.396c-0.102,0.042-0.264,0.071-0.468,0.071c-0.246,0-0.443-0.077-0.569-0.222c-0.15-0.155-0.204-0.414-0.204-0.756v-1.583
			h-0.45v-0.401h0.45v-0.695L280.397,535.508z"/>
		<path d="M283.037,535.256c0.264-0.054,0.642-0.083,1.001-0.083c0.558,0,0.917,0.102,1.169,0.329
			c0.204,0.18,0.318,0.456,0.318,0.768c0,0.534-0.336,0.888-0.762,1.031v0.019c0.312,0.107,0.498,0.396,0.594,0.815
			c0.132,0.563,0.228,0.953,0.312,1.109h-0.54c-0.066-0.114-0.156-0.462-0.27-0.966c-0.12-0.558-0.336-0.768-0.81-0.785h-0.492
			v1.751h-0.522V535.256z M283.559,537.098h0.534c0.558,0,0.912-0.307,0.912-0.768c0-0.522-0.378-0.75-0.93-0.756
			c-0.252,0-0.432,0.023-0.516,0.048V537.098z"/>
	</g>
</g>
</svg>
