<?xml version="1.0" encoding="iso-8859-1"?>
<!-- Generator: Adobe Illustrator 29.8.2, SVG Export Plug-In . SVG Version: 9.03 Build 0)  -->
<svg version="1.1" xmlns="http://www.w3.org/2000/svg" xmlns:xlink="http://www.w3.org/1999/xlink" x="0px" y="0px"
	 viewBox="0 0 1156 1361" style="enable-background:new 0 0 1156 1361;" xml:space="preserve">
<g id="Male_x5F_Master_x5F_FINAL_x5F_RIG">
	<g id="Head_00000034058232437113330610000012739723253317369785_">
		<path style="fill:#262626;" d="M663.792,132.234c-2.538-3.704-1.351-15.193-1.242-19.551c0.039-1.553-1.124-6.534-0.586-7.244
			c0.639-0.844,3.647-0.842,2.839-4.206l1.98,1.989c0.301-1.109,1.705-5.541,2.189-5.84c0.922-0.569,2.972,0.279,3.672-0.296
			c0.346-0.284,0.524-4.127,2.659-4.857c0.815-0.278,0.619,2.624,1.915,2.753c0.246,0.025,4.367-0.641,4.878-0.798
			c0.946-0.291,0.61-2.018,1.218-1.998c1.377,0.044,2.078,1.424,3.272,1.76c9.416,2.65,10.781,0.129,17.562,7.947
			c1.52,1.753,6.983,3.495,1.667,5.832c7.047,3.657,4.192,21.603-0.002,27.51h-2.001c0-2.331-0.023-4.671,0-7.001
			c0.006-0.636,1.241,0.29,0-1c-1.125-1.17-1.613-0.411-2.001-3.001c3.229,0.915,2.977-5.089,0-4.001c-0.034-0.664,0.028-1.336,0-2
			c-0.006-0.15,1.964-0.518-1-2c-7.79-3.896-9.558-0.258-15.6-0.075c-4.148,0.125-13.448-3.588-15.901,2.089
			c-1.189,2.75,0.842,6.527-2.514,7.988c0.045-2.025,0.419-5.764,0.016-7.367c-0.265-1.053-2.419-0.301-2.015-1.13
			c0.738-1.514,4.029-0.79,2.907-3.427c-1.43,0.641-2.245-2.952-2.898-2.071c-1.934,2.607-0.47,8.372,0.03,11.499
			c0.296,1.851-1.29,4.06,1.96,3.497c-0.013,2.647-0.162,4.007,0,7.001C666.496,132.535,663.9,132.391,663.792,132.234z
			 M676.798,106.228l7.502-0.996l-0.507-1.996c2.629-0.868,1.692,1.341,2.212,1.727c2.915,2.169,7.779-0.6,2.353-3.79
			c-2.295-1.349-4.799-0.431-6.552-2.451c3.17-2.178,9.419,4.252,7.994-2.492c-0.543-0.559-3.584,0.917-4.602,0.935
			c-1.282,0.022-4.191-1.193-4.39-0.945c-0.243,0.303-0.22,3.475-0.891,4.433c-1.274,1.818-5.478-1.72-4.117,4.575
			c-6.357,1.103-0.177-3.757-4.997-2.996c-0.347,2.534,1.457,4.215,1.95,6.559c0.252,1.198-0.18,4.206,0.041,4.445
			C685.244,113.904,677.248,113.288,676.798,106.228z M694.816,103.227c4.276-1.195,0.612-6.536-1.006-4.995
			C693.352,98.667,695.16,102.02,694.816,103.227z M696.802,104.232c-1.091-1.091-3.083,0.9-1.991,1.991
			C695.902,107.315,697.894,105.324,696.802,104.232z M698.308,104.228v1C698.958,104.895,698.958,104.561,698.308,104.228z
			 M693.801,109.233c-0.141-0.141-3.849-0.139-3.993,0C688.994,112.674,695.283,117.284,693.801,109.233z"/>
		<path style="fill:#FBB783;" d="M703.81,176.243c0.392,0.236,0.678,0.826,1,1l0.493,0.985l0.508-0.985
			c6.919,3.734,3.151,6.377-2.086,10.418c-8.365,6.593-21.017,9.435-29.929,2.585c0.483-3.919-6.876-2.615-9.004-7.001
			c-0.629-4.246,2.362-4.591,4.002-7.001c0.628-0.219,2.253,0.439,2.841-0.129c1.041-1.007,1.268-7.993,1.17-9.868
			c2.328,1.393,4.308,5.594,5.167,7.824c11.791,3.719,14.632-1.851,22.827-8.828C701.435,168.565,698.772,176.475,703.81,176.243z"
			/>
		<path style="fill:#EE8A54;" d="M667.794,138.235l-0.991,0.505c-0.986,5.051,3.187-0.324,2.992,5.496
			c-1.415,16.891,13.924,34.05,28.455,17.944c1.289-1.774,1.875-6.504,2.559-8.942c1.305-0.742,0.95-4.237,1.009-5.001
			c0.327-0.403,1.491,0.978,1.993,1c-2.469,8.904-2.137,18.027,0,27.006c-5.038,0.231-2.375-7.679-3.01-11.002
			c-8.22,6.997-11.027,12.541-22.827,8.827c-0.857-2.229-2.842-6.43-5.168-7.823c0.097,1.875-0.129,8.862-1.17,9.868
			c-0.588,0.569-2.213-0.09-2.841,0.129c4.658-6.848,1.23-15.913-0.555-22.961c-0.788-2.629,0.829-5.871-2.446-5.045
			c5.409-3.549-1.367-3.399-1.092-8.517c0.173-3.209,1.857-3.032,2.092-3.486C667.499,136.745,667.496,137.597,667.794,138.235z"/>
		<path style="fill:#F49965;" d="M703.81,149.237c-4.146-3.014-0.357,1.796-3.002,4.001c-3.335,5.388-3.575-0.495-2.776-4.277
			c0.606-2.87,4.135-6.934,5.778-9.726c1.209-2.077,2.624-5.524,4.002-7.001C716.196,133.035,708.759,149.454,703.81,149.237z"/>
		<path style="fill:#F49965;" d="M663.792,132.234c1.648,0.263,3.664,1.205,3.001,4.001c-0.235,0.453-1.919,0.277-2.092,3.486
			c-0.275,5.118,6.501,4.967,1.092,8.517C661.695,145.86,657.285,134.014,663.792,132.234z"/>
		<path style="fill:#F49965;" d="M668.795,176.243c-1.64,2.411-4.63,2.755-4.002,7.001
			C659.521,180.51,665.354,177.453,668.795,176.243z"/>
		<path style="fill:#F49965;" d="M667.794,186.245c2.227,0.773,6.62,1.24,6.003,4.001
			C670.262,188.453,670.868,189.07,667.794,186.245z"/>
		<path style="fill:#EE8A54;" d="M704.811,177.243c0.258,0.139,0.742-0.139,1,0l-0.508,0.985L704.811,177.243z"/>
		<path style="fill:#FCBA88;" d="M700.809,116.23c2.443,3.064-0.895,9.155,3.001,11.002c-0.019,3.85,0.006,8.131,0,12.003
			c-1.642,2.792-5.172,6.856-5.778,9.726c-0.799,3.782-0.559,9.665,2.776,4.277c-1.453,16.701-20.343,21.271-28.013,6.001
			c1.613-3.572,2.134-13.872-3.001-15.003c-0.071-0.958-0.016-2.53-1-3.001c0.346-1.409-0.575-2.09-1-3.001
			c-0.298-0.638-0.295-1.49-1-2c0.01-3.472-0.108-6.709,0-10.002c3.356-1.462,1.326-5.238,2.514-7.988
			c2.453-5.677,11.753-1.964,15.901-2.089C691.251,115.973,693.018,112.334,700.809,116.23z M668.8,131.23
			c0.427,0.405,3.197-1.069,4.482-1.031c1.539,0.046,9.409,2.832,8.513-1.452C680.998,124.933,665.571,128.168,668.8,131.23z
			 M701.8,131.233c3.103-3.378-11.373-6.29-12.99-2.493c-1.884,4.422,5.812,1.419,8.504,1.399
			C699.092,130.125,701.644,131.403,701.8,131.233z M679.79,134.216c-1.014-4.187-11.916-1.402-8.986,2.019
			c0.47,0.548,2.024-2.113,2.977-1.992C674.074,138.809,677.519,135.215,679.79,134.216z M699.807,135.227
			c-1.51-6.671-18.083-0.68-5.342,0.956c3.267,0.332,1.989-1.359,2.499-1.748C697.438,134.073,699.285,135.663,699.807,135.227z
			 M689.798,146.24c-0.475-0.438-4.242,1.681-6.379,0.919c-1.742-0.621-0.906-3.1-2.61-2.919c-1.244,3.9,3.029,6.162,5.949,6.955
			C686.095,149.37,691.321,147.643,689.798,146.24z M693.806,153.238h-14.507c-1.007,0-2.099-2.585-1.503,0.991
			C681.522,154.782,691.931,157.125,693.806,153.238z"/>
		<path style="fill:#383D43;" d="M675.798,105.228c-1.361-6.295,2.843-2.757,4.117-4.575c0.671-0.958,0.648-4.129,0.891-4.433
			c0.199-0.248,3.109,0.966,4.39,0.945c1.018-0.017,4.059-1.494,4.602-0.935c1.423,6.746-4.823,0.312-7.994,2.492
			c1.753,2.02,4.257,1.102,6.552,2.451c5.426,3.189,0.563,5.959-2.353,3.79c-0.519-0.387,0.418-2.595-2.212-1.727l0.507,1.996
			l-7.502,0.996C676.608,105.587,676.496,105.361,675.798,105.228z"/>
		<path style="fill:#2F3236;" d="M676.798,106.228c0.454,7.064,8.441,7.676-4.007,7.008c-0.221-0.239,0.211-3.247-0.041-4.445
			c-0.493-2.345-2.297-4.025-1.95-6.559c4.815-0.764-1.354,4.101,4.997,2.996C676.496,105.361,676.608,105.587,676.798,106.228z"/>
		<path style="fill:#2F3236;" d="M666.794,127.233c-3.25,0.563-1.664-1.646-1.96-3.497c-0.5-3.127-1.964-8.892-0.03-11.499
			c0.654-0.881,1.468,2.713,2.898,2.071c1.122,2.637-2.169,1.914-2.907,3.427c-0.404,0.829,1.75,0.077,2.015,1.13
			C667.27,120.863,666.728,124.87,666.794,127.233z"/>
		<path style="fill:#2F3236;" d="M693.801,109.233c1.481,8.056-4.809,3.435-3.993,0C689.952,109.095,693.66,109.092,693.801,109.233
			z"/>
		<path style="fill:#383D43;" d="M694.816,103.227c0.344-1.207-1.464-4.559-1.006-4.995
			C695.428,96.691,699.092,102.031,694.816,103.227z"/>
		<path style="fill:#2F3236;" d="M701.809,120.231c2.977-1.088,3.229,4.915,0,4.001C701.629,123.026,701.876,121.53,701.809,120.231
			z"/>
		<path style="fill:#2F3236;" d="M705.811,135.234c-0.933,2.09-0.842,2.03-2.001,4.001v-4.001H705.811z"/>
		<path style="fill:#383D43;" d="M696.802,104.232c1.091,1.091-0.9,3.082-1.991,1.991
			C693.72,105.132,695.711,103.141,696.802,104.232z"/>
		<path style="fill:#2F3236;" d="M703.81,128.233v-1C705.051,128.523,703.817,127.597,703.81,128.233z"/>
		<path style="fill:#2F3236;" d="M701.809,118.231l-1-2C703.773,117.713,701.803,118.08,701.809,118.231z"/>
		<path style="fill:#383D43;" d="M698.308,104.228c0.65,0.333,0.65,0.667,0,1V104.228z"/>
		<path style="fill:#F9A570;" d="M672.796,159.239c-3.203-6.16-2.511-8.392-3.001-15.003
			C674.931,145.367,674.409,155.668,672.796,159.239z"/>
		<path style="fill:#F9A570;" d="M668.795,141.236c-1.132-0.541-2.601,1.236-1.992-2.496l0.991-0.505
			C668.22,139.145,669.141,139.827,668.795,141.236z"/>
		<path style="fill:#262626;" d="M668.8,131.23c-3.229-3.062,12.198-6.297,12.995-2.483c0.896,4.285-6.974,1.498-8.513,1.452
			C671.997,130.161,669.228,131.635,668.8,131.23z"/>
		<path style="fill:#262626;" d="M701.8,131.233c-0.156,0.17-2.708-1.108-4.486-1.094c-2.693,0.02-10.388,3.023-8.504-1.399
			C690.428,124.943,704.903,127.855,701.8,131.233z"/>
		<path style="fill:#2F3236;" d="M699.807,135.227c-0.522,0.436-2.369-1.155-2.843-0.792c-0.51,0.389,0.768,2.081-2.499,1.748
			C681.722,134.547,698.298,128.557,699.807,135.227z"/>
		<path style="fill:#EF925C;" d="M693.806,153.238c-1.885,3.886-12.26,1.547-16.009,0.991c-0.596-3.576,0.495-0.991,1.503-0.991
			H693.806z"/>
		<path style="fill:#262626;" d="M679.79,134.216c-2.272,0.999-5.716,4.594-6.009,0.027c-0.953-0.121-2.508,2.54-2.977,1.992
			C667.874,132.813,678.776,130.029,679.79,134.216z"/>
		<path style="fill:#EF925C;" d="M689.798,146.24c1.523,1.403-3.704,3.13-3.04,4.955c-2.92-0.793-7.193-3.055-5.949-6.955
			c1.705-0.181,0.868,2.297,2.61,2.919C685.556,147.921,689.323,145.802,689.798,146.24z"/>
	</g>
</g>
<g id="RIG_x5F_GUIDES" style="display:none;">
	
		<line style="display:inline;fill:#FFFFFF;stroke:#E61E5A;stroke-width:0.75;stroke-miterlimit:10;" x1="174" y1="148" x2="184" y2="148"/>
	
		<line style="display:inline;fill:#FFFFFF;stroke:#E61E5A;stroke-width:0.75;stroke-miterlimit:10;" x1="179" y1="153" x2="179" y2="143"/>
	<circle style="display:inline;fill:#E61E5A;" cx="179" cy="148" r="2"/>
	<g style="display:inline;">
		<path d="M185.978,145.002v1.691h1.955v-1.691h0.527v4.042h-0.527v-1.895h-1.955v1.895h-0.522v-4.042H185.978z"/>
		<path d="M189.644,147.688c0.012,0.714,0.468,1.008,0.996,1.008c0.378,0,0.605-0.066,0.804-0.15l0.09,0.378
			c-0.186,0.084-0.504,0.18-0.965,0.18c-0.894,0-1.427-0.587-1.427-1.463c0-0.875,0.516-1.565,1.361-1.565
			c0.947,0,1.199,0.834,1.199,1.367c0,0.108-0.012,0.192-0.018,0.246H189.644z M191.191,147.311
			c0.006-0.336-0.138-0.857-0.731-0.857c-0.534,0-0.768,0.492-0.81,0.857H191.191z"/>
		<path d="M193.963,149.044l-0.042-0.366h-0.018c-0.162,0.229-0.474,0.433-0.888,0.433c-0.587,0-0.887-0.414-0.887-0.834
			c0-0.701,0.624-1.085,1.745-1.079v-0.061c0-0.239-0.066-0.671-0.66-0.671c-0.27,0-0.552,0.084-0.756,0.216l-0.12-0.349
			c0.24-0.155,0.587-0.258,0.953-0.258c0.888,0,1.104,0.606,1.104,1.188v1.086c0,0.252,0.012,0.497,0.048,0.695H193.963z
			 M193.885,147.562c-0.576-0.012-1.229,0.09-1.229,0.654c0,0.342,0.228,0.503,0.498,0.503c0.378,0,0.618-0.239,0.702-0.485
			c0.018-0.054,0.03-0.114,0.03-0.168V147.562z"/>
		<path d="M197.754,144.786v3.508c0,0.258,0.006,0.552,0.024,0.75h-0.474l-0.024-0.504h-0.012c-0.162,0.324-0.516,0.57-0.989,0.57
			c-0.702,0-1.241-0.594-1.241-1.476c-0.006-0.966,0.594-1.56,1.301-1.56c0.444,0,0.744,0.21,0.875,0.444h0.012v-1.733H197.754z
			 M197.227,147.323c0-0.066-0.006-0.156-0.024-0.223c-0.078-0.335-0.366-0.611-0.761-0.611c-0.546,0-0.87,0.479-0.87,1.121
			c0,0.588,0.288,1.074,0.857,1.074c0.354,0,0.678-0.234,0.773-0.63c0.018-0.072,0.024-0.145,0.024-0.229V147.323z"/>
	</g>
	
		<line style="display:inline;fill:#FFFFFF;stroke:#E61E5A;stroke-width:0.75;stroke-miterlimit:10;" x1="174" y1="165" x2="184" y2="165"/>
	
		<line style="display:inline;fill:#FFFFFF;stroke:#E61E5A;stroke-width:0.75;stroke-miterlimit:10;" x1="179" y1="170" x2="179" y2="160"/>
	<circle style="display:inline;fill:#E61E5A;" cx="179" cy="165" r="2"/>
	<g style="display:inline;">
		<path d="M185.456,166.044v-4.042h0.57l1.295,2.045c0.3,0.474,0.534,0.899,0.726,1.313l0.012-0.006
			c-0.048-0.54-0.06-1.031-0.06-1.661v-1.691h0.492v4.042h-0.528l-1.283-2.051c-0.282-0.45-0.552-0.911-0.756-1.35l-0.018,0.006
			c0.03,0.51,0.042,0.996,0.042,1.668v1.727H185.456z"/>
		<path d="M189.679,164.688c0.012,0.714,0.468,1.008,0.996,1.008c0.378,0,0.605-0.066,0.804-0.15l0.09,0.378
			c-0.186,0.084-0.504,0.18-0.965,0.18c-0.894,0-1.427-0.587-1.427-1.463c0-0.875,0.516-1.565,1.361-1.565
			c0.947,0,1.199,0.834,1.199,1.367c0,0.108-0.012,0.192-0.018,0.246H189.679z M191.227,164.311
			c0.006-0.336-0.138-0.857-0.731-0.857c-0.534,0-0.768,0.492-0.81,0.857H191.227z"/>
		<path d="M194.46,165.936c-0.138,0.072-0.444,0.168-0.834,0.168c-0.875,0-1.445-0.594-1.445-1.48c0-0.894,0.611-1.541,1.559-1.541
			c0.312,0,0.587,0.077,0.731,0.149l-0.12,0.408c-0.126-0.072-0.324-0.139-0.612-0.139c-0.666,0-1.025,0.492-1.025,1.098
			c0,0.672,0.432,1.086,1.007,1.086c0.3,0,0.498-0.078,0.647-0.145L194.46,165.936z"/>
		<path d="M195.601,164.473h0.012c0.072-0.102,0.174-0.228,0.258-0.33l0.852-1.001h0.635l-1.121,1.193l1.277,1.709h-0.642
			l-1.001-1.392l-0.27,0.3v1.092h-0.521v-4.258h0.521V164.473z"/>
	</g>
	
		<line style="display:inline;fill:#FFFFFF;stroke:#E61E5A;stroke-width:0.75;stroke-miterlimit:10;" x1="174" y1="148" x2="184" y2="148"/>
	
		<line style="display:inline;fill:#FFFFFF;stroke:#E61E5A;stroke-width:0.75;stroke-miterlimit:10;" x1="179" y1="153" x2="179" y2="143"/>
	<circle style="display:inline;fill:#E61E5A;" cx="179" cy="148" r="2"/>
	<g style="display:inline;">
		<path d="M185.978,145.002v1.691h1.955v-1.691h0.527v4.042h-0.527v-1.895h-1.955v1.895h-0.522v-4.042H185.978z"/>
		<path d="M190.957,149.044l-0.042-0.366h-0.018c-0.162,0.229-0.474,0.433-0.888,0.433c-0.587,0-0.887-0.414-0.887-0.834
			c0-0.701,0.624-1.085,1.745-1.079v-0.061c0-0.239-0.066-0.671-0.66-0.671c-0.27,0-0.552,0.084-0.756,0.216l-0.12-0.349
			c0.24-0.155,0.587-0.258,0.953-0.258c0.888,0,1.104,0.606,1.104,1.188v1.086c0,0.252,0.012,0.497,0.048,0.695H190.957z
			 M190.879,147.562c-0.576-0.012-1.229,0.09-1.229,0.654c0,0.342,0.228,0.503,0.498,0.503c0.378,0,0.618-0.239,0.702-0.485
			c0.018-0.054,0.03-0.114,0.03-0.168V147.562z"/>
		<path d="M192.83,145.326c0.006,0.18-0.126,0.323-0.336,0.323c-0.186,0-0.318-0.144-0.318-0.323c0-0.187,0.138-0.33,0.33-0.33
			C192.704,144.996,192.83,145.14,192.83,145.326z M192.242,149.044v-2.902h0.527v2.902H192.242z"/>
		<path d="M193.646,147.047c0-0.342-0.006-0.636-0.024-0.905h0.462l0.018,0.569h0.024c0.132-0.39,0.45-0.636,0.804-0.636
			c0.06,0,0.102,0.007,0.15,0.019v0.497c-0.054-0.012-0.108-0.018-0.18-0.018c-0.372,0-0.635,0.282-0.708,0.678
			c-0.012,0.072-0.024,0.156-0.024,0.246v1.547h-0.521V147.047z"/>
	</g>
	
		<line style="display:inline;fill:#FFFFFF;stroke:#E61E5A;stroke-width:0.75;stroke-miterlimit:10;" x1="87" y1="172.3" x2="97" y2="172.3"/>
	
		<line style="display:inline;fill:#FFFFFF;stroke:#E61E5A;stroke-width:0.75;stroke-miterlimit:10;" x1="92" y1="177.3" x2="92" y2="167.3"/>
	<circle style="display:inline;fill:#E61E5A;" cx="92" cy="172.3" r="2"/>
	<g style="display:inline;">
		<path d="M98.978,169.302v2.393c0,0.906,0.402,1.29,0.941,1.29c0.6,0,0.983-0.396,0.983-1.29v-2.393h0.528v2.356
			c0,1.242-0.654,1.752-1.529,1.752c-0.828,0-1.451-0.475-1.451-1.728v-2.381H98.978z"/>
		<path d="M102.32,171.389c0-0.372-0.012-0.672-0.024-0.947h0.474l0.024,0.498h0.012c0.216-0.354,0.558-0.564,1.032-0.564
			c0.702,0,1.229,0.594,1.229,1.476c0,1.043-0.635,1.56-1.319,1.56c-0.384,0-0.719-0.168-0.893-0.456h-0.012v1.577h-0.521V171.389z
			 M102.841,172.162c0,0.078,0.012,0.15,0.024,0.216c0.096,0.366,0.414,0.618,0.792,0.618c0.558,0,0.882-0.456,0.882-1.121
			c0-0.582-0.306-1.08-0.864-1.08c-0.36,0-0.696,0.258-0.797,0.654c-0.018,0.065-0.036,0.144-0.036,0.216V172.162z"/>
		<path d="M105.734,171.389c0-0.372-0.012-0.672-0.024-0.947h0.474l0.024,0.498h0.012c0.216-0.354,0.558-0.564,1.032-0.564
			c0.702,0,1.229,0.594,1.229,1.476c0,1.043-0.635,1.56-1.319,1.56c-0.384,0-0.719-0.168-0.893-0.456h-0.012v1.577h-0.521V171.389z
			 M106.255,172.162c0,0.078,0.012,0.15,0.024,0.216c0.096,0.366,0.414,0.618,0.792,0.618c0.558,0,0.882-0.456,0.882-1.121
			c0-0.582-0.306-1.08-0.864-1.08c-0.36,0-0.696,0.258-0.797,0.654c-0.018,0.065-0.036,0.144-0.036,0.216V172.162z"/>
		<path d="M109.441,171.988c0.012,0.714,0.468,1.008,0.996,1.008c0.378,0,0.605-0.066,0.804-0.15l0.09,0.378
			c-0.186,0.084-0.504,0.18-0.965,0.18c-0.894,0-1.427-0.587-1.427-1.463c0-0.875,0.516-1.565,1.361-1.565
			c0.947,0,1.199,0.834,1.199,1.367c0,0.108-0.012,0.192-0.018,0.246H109.441z M110.989,171.61c0.006-0.336-0.138-0.857-0.731-0.857
			c-0.534,0-0.768,0.492-0.81,0.857H110.989z"/>
		<path d="M112.154,171.347c0-0.342-0.006-0.636-0.024-0.905h0.462l0.018,0.569h0.024c0.132-0.39,0.45-0.636,0.804-0.636
			c0.06,0,0.102,0.007,0.15,0.019v0.497c-0.054-0.012-0.108-0.018-0.18-0.018c-0.372,0-0.635,0.282-0.708,0.678
			c-0.012,0.072-0.024,0.156-0.024,0.246v1.547h-0.521V171.347z"/>
		<path d="M116.059,172.072l-0.42,1.271h-0.54l1.373-4.042h0.63l1.379,4.042h-0.558l-0.432-1.271H116.059z M117.384,171.665
			l-0.396-1.164c-0.09-0.264-0.15-0.503-0.21-0.737h-0.012c-0.06,0.24-0.126,0.485-0.204,0.731l-0.396,1.17H117.384z"/>
		<path d="M119.042,171.347c0-0.342-0.006-0.636-0.024-0.905h0.462l0.018,0.569h0.024c0.132-0.39,0.45-0.636,0.804-0.636
			c0.06,0,0.102,0.007,0.15,0.019v0.497c-0.054-0.012-0.108-0.018-0.18-0.018c-0.372,0-0.635,0.282-0.708,0.678
			c-0.012,0.072-0.024,0.156-0.024,0.246v1.547h-0.521V171.347z"/>
		<path d="M121.027,171.227c0-0.3-0.006-0.545-0.024-0.785h0.462l0.024,0.468h0.018c0.162-0.276,0.432-0.534,0.912-0.534
			c0.396,0,0.695,0.24,0.821,0.582h0.012c0.09-0.162,0.204-0.288,0.324-0.378c0.174-0.132,0.366-0.204,0.642-0.204
			c0.384,0,0.954,0.252,0.954,1.26v1.709h-0.516V171.7c0-0.558-0.204-0.893-0.63-0.893c-0.3,0-0.534,0.222-0.624,0.479
			c-0.024,0.071-0.042,0.168-0.042,0.264v1.793h-0.516v-1.739c0-0.462-0.204-0.797-0.606-0.797c-0.33,0-0.569,0.264-0.653,0.527
			c-0.03,0.078-0.042,0.168-0.042,0.258v1.751h-0.516V171.227z"/>
		<path d="M127.321,169.302h0.522v3.604h1.727v0.438h-2.249V169.302z"/>
	</g>
	
		<line style="display:inline;fill:#FFFFFF;stroke:#E61E5A;stroke-width:0.75;stroke-miterlimit:10;" x1="261" y1="172.3" x2="271" y2="172.3"/>
	
		<line style="display:inline;fill:#FFFFFF;stroke:#E61E5A;stroke-width:0.75;stroke-miterlimit:10;" x1="266" y1="177.3" x2="266" y2="167.3"/>
	<circle style="display:inline;fill:#E61E5A;" cx="266" cy="172.3" r="2"/>
	<g style="display:inline;">
		<path d="M272.978,169.302v2.393c0,0.906,0.402,1.29,0.941,1.29c0.6,0,0.983-0.396,0.983-1.29v-2.393h0.528v2.356
			c0,1.242-0.654,1.752-1.529,1.752c-0.828,0-1.451-0.475-1.451-1.728v-2.381H272.978z"/>
		<path d="M276.32,171.389c0-0.372-0.012-0.672-0.024-0.947h0.474l0.024,0.498h0.012c0.216-0.354,0.558-0.564,1.032-0.564
			c0.702,0,1.229,0.594,1.229,1.476c0,1.043-0.635,1.56-1.319,1.56c-0.384,0-0.719-0.168-0.893-0.456h-0.012v1.577h-0.521V171.389z
			 M276.841,172.162c0,0.078,0.012,0.15,0.024,0.216c0.096,0.366,0.414,0.618,0.792,0.618c0.558,0,0.882-0.456,0.882-1.121
			c0-0.582-0.306-1.08-0.864-1.08c-0.36,0-0.696,0.258-0.797,0.654c-0.018,0.065-0.036,0.144-0.036,0.216V172.162z"/>
		<path d="M279.734,171.389c0-0.372-0.012-0.672-0.024-0.947h0.474l0.024,0.498h0.012c0.216-0.354,0.558-0.564,1.032-0.564
			c0.702,0,1.229,0.594,1.229,1.476c0,1.043-0.635,1.56-1.319,1.56c-0.384,0-0.719-0.168-0.893-0.456h-0.012v1.577h-0.521V171.389z
			 M280.255,172.162c0,0.078,0.012,0.15,0.024,0.216c0.096,0.366,0.414,0.618,0.792,0.618c0.558,0,0.882-0.456,0.882-1.121
			c0-0.582-0.306-1.08-0.864-1.08c-0.36,0-0.696,0.258-0.797,0.654c-0.018,0.065-0.036,0.144-0.036,0.216V172.162z"/>
		<path d="M283.441,171.988c0.012,0.714,0.468,1.008,0.996,1.008c0.378,0,0.605-0.066,0.804-0.15l0.09,0.378
			c-0.186,0.084-0.504,0.18-0.965,0.18c-0.894,0-1.427-0.587-1.427-1.463c0-0.875,0.516-1.565,1.361-1.565
			c0.947,0,1.199,0.834,1.199,1.367c0,0.108-0.012,0.192-0.018,0.246H283.441z M284.989,171.61c0.006-0.336-0.138-0.857-0.731-0.857
			c-0.534,0-0.768,0.492-0.81,0.857H284.989z"/>
		<path d="M286.154,171.347c0-0.342-0.006-0.636-0.024-0.905h0.462l0.018,0.569h0.024c0.132-0.39,0.45-0.636,0.804-0.636
			c0.06,0,0.102,0.007,0.15,0.019v0.497c-0.054-0.012-0.108-0.018-0.18-0.018c-0.372,0-0.635,0.282-0.708,0.678
			c-0.012,0.072-0.024,0.156-0.024,0.246v1.547h-0.521V171.347z"/>
		<path d="M290.059,172.072l-0.42,1.271h-0.54l1.373-4.042h0.63l1.379,4.042h-0.558l-0.432-1.271H290.059z M291.384,171.665
			l-0.396-1.164c-0.09-0.264-0.15-0.503-0.21-0.737h-0.012c-0.06,0.24-0.126,0.485-0.204,0.731l-0.396,1.17H291.384z"/>
		<path d="M293.042,171.347c0-0.342-0.006-0.636-0.024-0.905h0.462l0.018,0.569h0.024c0.132-0.39,0.45-0.636,0.804-0.636
			c0.06,0,0.102,0.007,0.15,0.019v0.497c-0.054-0.012-0.108-0.018-0.18-0.018c-0.372,0-0.635,0.282-0.708,0.678
			c-0.012,0.072-0.024,0.156-0.024,0.246v1.547h-0.521V171.347z"/>
		<path d="M295.027,171.227c0-0.3-0.006-0.545-0.024-0.785h0.462l0.024,0.468h0.018c0.162-0.276,0.432-0.534,0.912-0.534
			c0.396,0,0.695,0.24,0.821,0.582h0.012c0.09-0.162,0.204-0.288,0.324-0.378c0.174-0.132,0.366-0.204,0.642-0.204
			c0.384,0,0.954,0.252,0.954,1.26v1.709h-0.516V171.7c0-0.558-0.204-0.893-0.63-0.893c-0.3,0-0.534,0.222-0.624,0.479
			c-0.024,0.071-0.042,0.168-0.042,0.264v1.793h-0.516v-1.739c0-0.462-0.204-0.797-0.606-0.797c-0.33,0-0.569,0.264-0.653,0.527
			c-0.03,0.078-0.042,0.168-0.042,0.258v1.751h-0.516V171.227z"/>
		<path d="M301.321,169.355c0.264-0.054,0.642-0.083,1.001-0.083c0.558,0,0.917,0.102,1.169,0.329
			c0.204,0.18,0.318,0.456,0.318,0.768c0,0.534-0.336,0.888-0.762,1.031v0.019c0.312,0.107,0.498,0.396,0.594,0.815
			c0.132,0.563,0.228,0.953,0.312,1.109h-0.54c-0.066-0.114-0.156-0.462-0.27-0.966c-0.12-0.558-0.336-0.768-0.81-0.785h-0.492
			v1.751h-0.522V169.355z M301.843,171.197h0.534c0.558,0,0.912-0.307,0.912-0.768c0-0.522-0.378-0.75-0.93-0.756
			c-0.252,0-0.432,0.023-0.516,0.048V171.197z"/>
	</g>
	
		<line style="display:inline;fill:#FFFFFF;stroke:#E61E5A;stroke-width:0.75;stroke-miterlimit:10;" x1="81" y1="269.8" x2="91" y2="269.8"/>
	
		<line style="display:inline;fill:#FFFFFF;stroke:#E61E5A;stroke-width:0.75;stroke-miterlimit:10;" x1="86" y1="274.8" x2="86" y2="264.8"/>
	<circle style="display:inline;fill:#E61E5A;" cx="86" cy="269.8" r="2"/>
	<g style="display:inline;">
		<path d="M92.456,266.802h2.177v0.438h-1.655v1.344h1.529v0.432h-1.529v1.829h-0.522V266.802z"/>
		<path d="M97.8,269.368c0,1.074-0.744,1.542-1.445,1.542c-0.786,0-1.391-0.576-1.391-1.493c0-0.972,0.636-1.542,1.439-1.542
			C97.236,267.875,97.8,268.481,97.8,269.368z M95.498,269.398c0,0.636,0.366,1.115,0.881,1.115c0.504,0,0.881-0.474,0.881-1.127
			c0-0.492-0.246-1.115-0.869-1.115C95.767,268.271,95.498,268.847,95.498,269.398z"/>
		<path d="M98.468,268.847c0-0.342-0.006-0.636-0.024-0.905h0.462l0.018,0.569h0.024c0.132-0.39,0.45-0.636,0.804-0.636
			c0.06,0,0.102,0.007,0.15,0.019v0.497c-0.054-0.012-0.108-0.018-0.18-0.018c-0.372,0-0.636,0.282-0.708,0.678
			c-0.012,0.072-0.024,0.156-0.024,0.246v1.547h-0.521V268.847z"/>
		<path d="M100.663,269.488c0.012,0.714,0.468,1.008,0.996,1.008c0.378,0,0.605-0.066,0.804-0.15l0.09,0.378
			c-0.186,0.084-0.504,0.18-0.965,0.18c-0.894,0-1.427-0.587-1.427-1.463c0-0.875,0.516-1.565,1.361-1.565
			c0.947,0,1.199,0.834,1.199,1.367c0,0.108-0.012,0.192-0.018,0.246H100.663z M102.21,269.11c0.006-0.336-0.138-0.857-0.731-0.857
			c-0.534,0-0.768,0.492-0.81,0.857H102.21z"/>
		<path d="M104.982,270.844l-0.042-0.366h-0.018c-0.162,0.229-0.474,0.433-0.888,0.433c-0.587,0-0.887-0.414-0.887-0.834
			c0-0.701,0.624-1.085,1.745-1.079v-0.061c0-0.239-0.066-0.671-0.66-0.671c-0.27,0-0.552,0.084-0.756,0.216l-0.12-0.349
			c0.24-0.155,0.587-0.258,0.953-0.258c0.888,0,1.104,0.606,1.104,1.188v1.086c0,0.252,0.012,0.497,0.048,0.695H104.982z
			 M104.904,269.362c-0.576-0.012-1.229,0.09-1.229,0.654c0,0.342,0.228,0.503,0.498,0.503c0.378,0,0.618-0.239,0.702-0.485
			c0.018-0.054,0.03-0.114,0.03-0.168V269.362z"/>
		<path d="M106.268,268.847c0-0.342-0.006-0.636-0.024-0.905h0.462l0.018,0.569h0.024c0.132-0.39,0.45-0.636,0.804-0.636
			c0.06,0,0.102,0.007,0.15,0.019v0.497c-0.054-0.012-0.108-0.018-0.18-0.018c-0.372,0-0.636,0.282-0.708,0.678
			c-0.012,0.072-0.024,0.156-0.024,0.246v1.547h-0.521V268.847z"/>
		<path d="M108.253,268.727c0-0.3-0.006-0.545-0.024-0.785h0.462l0.024,0.468h0.018c0.162-0.276,0.432-0.534,0.912-0.534
			c0.396,0,0.695,0.24,0.821,0.582h0.012c0.09-0.162,0.204-0.288,0.324-0.378c0.174-0.132,0.366-0.204,0.642-0.204
			c0.384,0,0.954,0.252,0.954,1.26v1.709h-0.516V269.2c0-0.558-0.204-0.893-0.63-0.893c-0.3,0-0.534,0.222-0.624,0.479
			c-0.024,0.071-0.042,0.168-0.042,0.264v1.793h-0.516v-1.739c0-0.462-0.204-0.797-0.606-0.797c-0.33,0-0.569,0.264-0.653,0.527
			c-0.03,0.078-0.042,0.168-0.042,0.258v1.751h-0.516V268.727z"/>
		<path d="M114.547,266.802h0.522v3.604h1.727v0.438h-2.249V266.802z"/>
	</g>
	
		<line style="display:inline;fill:#FFFFFF;stroke:#E61E5A;stroke-width:0.75;stroke-miterlimit:10;" x1="267" y1="269.8" x2="277" y2="269.8"/>
	
		<line style="display:inline;fill:#FFFFFF;stroke:#E61E5A;stroke-width:0.75;stroke-miterlimit:10;" x1="272" y1="274.8" x2="272" y2="264.8"/>
	<circle style="display:inline;fill:#E61E5A;" cx="272" cy="269.8" r="2"/>
	<g style="display:inline;">
		<path d="M278.456,266.802h2.177v0.438h-1.655v1.344h1.529v0.432h-1.529v1.829h-0.522V266.802z"/>
		<path d="M283.8,269.368c0,1.074-0.744,1.542-1.445,1.542c-0.786,0-1.391-0.576-1.391-1.493c0-0.972,0.636-1.542,1.439-1.542
			C283.236,267.875,283.8,268.481,283.8,269.368z M281.498,269.398c0,0.636,0.366,1.115,0.881,1.115
			c0.504,0,0.881-0.474,0.881-1.127c0-0.492-0.246-1.115-0.869-1.115C281.767,268.271,281.498,268.847,281.498,269.398z"/>
		<path d="M284.468,268.847c0-0.342-0.006-0.636-0.024-0.905h0.462l0.018,0.569h0.024c0.132-0.39,0.45-0.636,0.804-0.636
			c0.06,0,0.102,0.007,0.15,0.019v0.497c-0.054-0.012-0.108-0.018-0.18-0.018c-0.372,0-0.636,0.282-0.708,0.678
			c-0.012,0.072-0.024,0.156-0.024,0.246v1.547h-0.521V268.847z"/>
		<path d="M286.663,269.488c0.012,0.714,0.468,1.008,0.996,1.008c0.378,0,0.605-0.066,0.804-0.15l0.09,0.378
			c-0.186,0.084-0.504,0.18-0.965,0.18c-0.894,0-1.427-0.587-1.427-1.463c0-0.875,0.516-1.565,1.361-1.565
			c0.947,0,1.199,0.834,1.199,1.367c0,0.108-0.012,0.192-0.018,0.246H286.663z M288.21,269.11c0.006-0.336-0.138-0.857-0.731-0.857
			c-0.534,0-0.768,0.492-0.81,0.857H288.21z"/>
		<path d="M290.982,270.844l-0.042-0.366h-0.018c-0.162,0.229-0.474,0.433-0.888,0.433c-0.587,0-0.887-0.414-0.887-0.834
			c0-0.701,0.624-1.085,1.745-1.079v-0.061c0-0.239-0.066-0.671-0.66-0.671c-0.27,0-0.552,0.084-0.756,0.216l-0.12-0.349
			c0.24-0.155,0.587-0.258,0.953-0.258c0.888,0,1.104,0.606,1.104,1.188v1.086c0,0.252,0.012,0.497,0.048,0.695H290.982z
			 M290.904,269.362c-0.576-0.012-1.229,0.09-1.229,0.654c0,0.342,0.228,0.503,0.498,0.503c0.378,0,0.618-0.239,0.702-0.485
			c0.018-0.054,0.03-0.114,0.03-0.168V269.362z"/>
		<path d="M292.268,268.847c0-0.342-0.006-0.636-0.024-0.905h0.462l0.018,0.569h0.024c0.132-0.39,0.45-0.636,0.804-0.636
			c0.06,0,0.102,0.007,0.15,0.019v0.497c-0.054-0.012-0.108-0.018-0.18-0.018c-0.372,0-0.636,0.282-0.708,0.678
			c-0.012,0.072-0.024,0.156-0.024,0.246v1.547h-0.521V268.847z"/>
		<path d="M294.253,268.727c0-0.3-0.006-0.545-0.024-0.785h0.462l0.024,0.468h0.018c0.162-0.276,0.432-0.534,0.912-0.534
			c0.396,0,0.695,0.24,0.821,0.582h0.012c0.09-0.162,0.204-0.288,0.324-0.378c0.174-0.132,0.366-0.204,0.642-0.204
			c0.384,0,0.954,0.252,0.954,1.26v1.709h-0.516V269.2c0-0.558-0.204-0.893-0.63-0.893c-0.3,0-0.534,0.222-0.624,0.479
			c-0.024,0.071-0.042,0.168-0.042,0.264v1.793h-0.516v-1.739c0-0.462-0.204-0.797-0.606-0.797c-0.33,0-0.569,0.264-0.653,0.527
			c-0.03,0.078-0.042,0.168-0.042,0.258v1.751h-0.516V268.727z"/>
		<path d="M300.547,266.855c0.264-0.054,0.642-0.083,1.001-0.083c0.558,0,0.917,0.102,1.169,0.329
			c0.204,0.18,0.318,0.456,0.318,0.768c0,0.534-0.336,0.888-0.762,1.031v0.019c0.312,0.107,0.498,0.396,0.594,0.815
			c0.132,0.563,0.228,0.953,0.312,1.109h-0.54c-0.066-0.114-0.156-0.462-0.27-0.966c-0.12-0.558-0.336-0.768-0.81-0.785h-0.492
			v1.751h-0.522V266.855z M301.069,268.697h0.534c0.558,0,0.912-0.307,0.912-0.768c0-0.522-0.378-0.75-0.93-0.756
			c-0.252,0-0.432,0.023-0.516,0.048V268.697z"/>
	</g>
	
		<line style="display:inline;fill:#FFFFFF;stroke:#E61E5A;stroke-width:0.75;stroke-miterlimit:10;" x1="74" y1="338.1" x2="84" y2="338.1"/>
	
		<line style="display:inline;fill:#FFFFFF;stroke:#E61E5A;stroke-width:0.75;stroke-miterlimit:10;" x1="79" y1="343.1" x2="79" y2="333.1"/>
	<circle style="display:inline;fill:#E61E5A;" cx="79" cy="338.1" r="2"/>
	<g style="display:inline;">
		<path d="M85.978,335.102v1.691h1.955v-1.691h0.527v4.042h-0.527v-1.895h-1.955v1.895h-0.522v-4.042H85.978z"/>
		<path d="M90.957,339.144l-0.042-0.366h-0.018c-0.162,0.229-0.474,0.433-0.888,0.433c-0.587,0-0.887-0.414-0.887-0.834
			c0-0.701,0.624-1.085,1.745-1.079v-0.061c0-0.239-0.066-0.671-0.66-0.671c-0.27,0-0.552,0.084-0.756,0.216l-0.12-0.349
			c0.24-0.155,0.587-0.258,0.953-0.258c0.888,0,1.104,0.606,1.104,1.188v1.086c0,0.252,0.012,0.497,0.048,0.695H90.957z
			 M90.879,337.663c-0.576-0.012-1.229,0.09-1.229,0.654c0,0.342,0.228,0.503,0.498,0.503c0.378,0,0.618-0.239,0.702-0.485
			c0.018-0.054,0.03-0.114,0.03-0.168V337.663z"/>
		<path d="M92.242,337.027c0-0.3-0.006-0.545-0.024-0.785h0.468l0.03,0.479h0.012c0.144-0.275,0.48-0.546,0.959-0.546
			c0.402,0,1.025,0.24,1.025,1.235v1.733h-0.527v-1.673c0-0.468-0.174-0.857-0.672-0.857c-0.348,0-0.618,0.245-0.708,0.539
			c-0.024,0.066-0.036,0.156-0.036,0.246v1.745h-0.527V337.027z"/>
		<path d="M98.079,334.886v3.508c0,0.258,0.006,0.552,0.024,0.75h-0.474l-0.024-0.504h-0.012c-0.162,0.324-0.516,0.57-0.989,0.57
			c-0.702,0-1.241-0.594-1.241-1.476c-0.006-0.966,0.594-1.56,1.301-1.56c0.444,0,0.744,0.21,0.875,0.444h0.012v-1.733H98.079z
			 M97.551,337.423c0-0.066-0.006-0.156-0.024-0.223c-0.078-0.335-0.366-0.611-0.761-0.611c-0.546,0-0.87,0.479-0.87,1.121
			c0,0.588,0.288,1.074,0.857,1.074c0.354,0,0.678-0.234,0.773-0.63c0.018-0.072,0.024-0.145,0.024-0.229V337.423z"/>
		<path d="M100.246,335.102h0.522v3.604h1.727v0.438h-2.249V335.102z"/>
	</g>
	
		<line style="display:inline;fill:#FFFFFF;stroke:#E61E5A;stroke-width:0.75;stroke-miterlimit:10;" x1="274" y1="338.1" x2="284" y2="338.1"/>
	
		<line style="display:inline;fill:#FFFFFF;stroke:#E61E5A;stroke-width:0.75;stroke-miterlimit:10;" x1="279" y1="343.1" x2="279" y2="333.1"/>
	<circle style="display:inline;fill:#E61E5A;" cx="279" cy="338.1" r="2"/>
	<g style="display:inline;">
		<path d="M285.978,335.102v1.691h1.955v-1.691h0.527v4.042h-0.527v-1.895h-1.955v1.895h-0.522v-4.042H285.978z"/>
		<path d="M290.957,339.144l-0.042-0.366h-0.018c-0.162,0.229-0.474,0.433-0.888,0.433c-0.587,0-0.887-0.414-0.887-0.834
			c0-0.701,0.624-1.085,1.745-1.079v-0.061c0-0.239-0.066-0.671-0.66-0.671c-0.27,0-0.552,0.084-0.756,0.216l-0.12-0.349
			c0.24-0.155,0.587-0.258,0.953-0.258c0.888,0,1.104,0.606,1.104,1.188v1.086c0,0.252,0.012,0.497,0.048,0.695H290.957z
			 M290.879,337.663c-0.576-0.012-1.229,0.09-1.229,0.654c0,0.342,0.228,0.503,0.498,0.503c0.378,0,0.618-0.239,0.702-0.485
			c0.018-0.054,0.03-0.114,0.03-0.168V337.663z"/>
		<path d="M292.242,337.027c0-0.3-0.006-0.545-0.024-0.785h0.468l0.03,0.479h0.012c0.144-0.275,0.48-0.546,0.959-0.546
			c0.402,0,1.025,0.24,1.025,1.235v1.733h-0.527v-1.673c0-0.468-0.174-0.857-0.672-0.857c-0.348,0-0.618,0.245-0.708,0.539
			c-0.024,0.066-0.036,0.156-0.036,0.246v1.745h-0.527V337.027z"/>
		<path d="M298.079,334.886v3.508c0,0.258,0.006,0.552,0.024,0.75h-0.474l-0.024-0.504h-0.012c-0.162,0.324-0.516,0.57-0.989,0.57
			c-0.702,0-1.241-0.594-1.241-1.476c-0.006-0.966,0.594-1.56,1.301-1.56c0.444,0,0.744,0.21,0.875,0.444h0.012v-1.733H298.079z
			 M297.551,337.423c0-0.066-0.006-0.156-0.024-0.223c-0.078-0.335-0.366-0.611-0.761-0.611c-0.546,0-0.87,0.479-0.87,1.121
			c0,0.588,0.288,1.074,0.857,1.074c0.354,0,0.678-0.234,0.773-0.63c0.018-0.072,0.024-0.145,0.024-0.229V337.423z"/>
		<path d="M300.246,335.156c0.264-0.054,0.642-0.083,1.001-0.083c0.558,0,0.917,0.102,1.169,0.329
			c0.204,0.18,0.318,0.456,0.318,0.768c0,0.534-0.336,0.888-0.762,1.031v0.019c0.312,0.107,0.498,0.396,0.594,0.815
			c0.132,0.563,0.228,0.953,0.312,1.109h-0.54c-0.066-0.114-0.156-0.462-0.27-0.966c-0.12-0.558-0.336-0.768-0.81-0.785h-0.492
			v1.751h-0.522V335.156z M300.768,336.998h0.534c0.558,0,0.912-0.307,0.912-0.768c0-0.522-0.378-0.75-0.93-0.756
			c-0.252,0-0.432,0.023-0.516,0.048V336.998z"/>
	</g>
	
		<line style="display:inline;fill:#FFFFFF;stroke:#E61E5A;stroke-width:0.75;stroke-miterlimit:10;" x1="174" y1="300" x2="184" y2="300"/>
	
		<line style="display:inline;fill:#FFFFFF;stroke:#E61E5A;stroke-width:0.75;stroke-miterlimit:10;" x1="179" y1="305" x2="179" y2="295"/>
	<circle style="display:inline;fill:#E61E5A;" cx="179" cy="300" r="2"/>
	<g style="display:inline;">
		<path d="M186.235,297.446h-1.229v-0.444h2.992v0.444h-1.235v3.598h-0.528V297.446z"/>
		<path d="M190.632,299.568c0,1.074-0.744,1.542-1.445,1.542c-0.786,0-1.391-0.576-1.391-1.493c0-0.972,0.636-1.542,1.439-1.542
			C190.068,298.075,190.632,298.682,190.632,299.568z M188.33,299.599c0,0.636,0.366,1.115,0.881,1.115
			c0.504,0,0.881-0.474,0.881-1.127c0-0.492-0.246-1.115-0.869-1.115C188.599,298.472,188.33,299.047,188.33,299.599z"/>
		<path d="M191.3,299.047c0-0.342-0.006-0.636-0.024-0.905h0.462l0.018,0.569h0.024c0.132-0.39,0.45-0.636,0.804-0.636
			c0.06,0,0.102,0.007,0.15,0.019v0.497c-0.054-0.012-0.108-0.018-0.18-0.018c-0.372,0-0.636,0.282-0.708,0.678
			c-0.012,0.072-0.024,0.156-0.024,0.246v1.547H191.3V299.047z"/>
		<path d="M193.189,300.504c0.156,0.103,0.432,0.21,0.696,0.21c0.384,0,0.563-0.191,0.563-0.432c0-0.252-0.15-0.39-0.54-0.533
			c-0.522-0.187-0.768-0.474-0.768-0.822c0-0.468,0.378-0.852,1.001-0.852c0.294,0,0.552,0.084,0.713,0.181l-0.132,0.384
			c-0.114-0.072-0.324-0.168-0.594-0.168c-0.312,0-0.485,0.18-0.485,0.396c0,0.24,0.174,0.348,0.551,0.491
			c0.504,0.192,0.762,0.444,0.762,0.876c0,0.51-0.396,0.869-1.085,0.869c-0.318,0-0.611-0.077-0.815-0.197L193.189,300.504z"/>
		<path d="M198.264,299.568c0,1.074-0.744,1.542-1.445,1.542c-0.786,0-1.391-0.576-1.391-1.493c0-0.972,0.636-1.542,1.439-1.542
			C197.7,298.075,198.264,298.682,198.264,299.568z M195.961,299.599c0,0.636,0.366,1.115,0.881,1.115
			c0.504,0,0.881-0.474,0.881-1.127c0-0.492-0.246-1.115-0.869-1.115C196.231,298.472,195.961,299.047,195.961,299.599z"/>
		<path d="M200.221,297.002h2.177v0.438h-1.655v1.344h1.529v0.432h-1.529v1.829h-0.522V297.002z"/>
		<path d="M202.969,299.047c0-0.342-0.006-0.636-0.024-0.905h0.462l0.018,0.569h0.024c0.132-0.39,0.45-0.636,0.804-0.636
			c0.06,0,0.102,0.007,0.15,0.019v0.497c-0.054-0.012-0.108-0.018-0.18-0.018c-0.372,0-0.635,0.282-0.708,0.678
			c-0.012,0.072-0.024,0.156-0.024,0.246v1.547h-0.521V299.047z"/>
		<path d="M207.498,299.568c0,1.074-0.744,1.542-1.445,1.542c-0.786,0-1.391-0.576-1.391-1.493c0-0.972,0.636-1.542,1.439-1.542
			C206.934,298.075,207.498,298.682,207.498,299.568z M205.195,299.599c0,0.636,0.366,1.115,0.881,1.115
			c0.504,0,0.881-0.474,0.881-1.127c0-0.492-0.246-1.115-0.869-1.115C205.464,298.472,205.195,299.047,205.195,299.599z"/>
		<path d="M208.165,298.927c0-0.3-0.006-0.545-0.024-0.785h0.468l0.03,0.479h0.012c0.144-0.275,0.48-0.546,0.959-0.546
			c0.402,0,1.025,0.24,1.025,1.235v1.733h-0.527v-1.673c0-0.468-0.174-0.857-0.672-0.857c-0.348,0-0.618,0.245-0.708,0.539
			c-0.024,0.066-0.036,0.156-0.036,0.246v1.745h-0.527V298.927z"/>
		<path d="M212.106,297.308v0.834h0.756v0.401h-0.756v1.565c0,0.359,0.102,0.563,0.396,0.563c0.138,0,0.24-0.018,0.306-0.036
			l0.024,0.396c-0.102,0.042-0.264,0.071-0.468,0.071c-0.246,0-0.443-0.077-0.569-0.222c-0.15-0.155-0.204-0.414-0.204-0.756v-1.583
			h-0.45v-0.401h0.45v-0.695L212.106,297.308z"/>
	</g>
	
		<line style="display:inline;fill:#FFFFFF;stroke:#E61E5A;stroke-width:0.75;stroke-miterlimit:10;" x1="174" y1="300" x2="184" y2="300"/>
	
		<line style="display:inline;fill:#FFFFFF;stroke:#E61E5A;stroke-width:0.75;stroke-miterlimit:10;" x1="179" y1="305" x2="179" y2="295"/>
	<circle style="display:inline;fill:#E61E5A;" cx="179" cy="300" r="2"/>
	<g style="display:inline;">
		<path d="M186.235,297.446h-1.229v-0.444h2.992v0.444h-1.235v3.598h-0.528V297.446z"/>
		<path d="M190.632,299.568c0,1.074-0.744,1.542-1.445,1.542c-0.786,0-1.391-0.576-1.391-1.493c0-0.972,0.636-1.542,1.439-1.542
			C190.068,298.075,190.632,298.682,190.632,299.568z M188.33,299.599c0,0.636,0.366,1.115,0.881,1.115
			c0.504,0,0.881-0.474,0.881-1.127c0-0.492-0.246-1.115-0.869-1.115C188.599,298.472,188.33,299.047,188.33,299.599z"/>
		<path d="M191.3,299.047c0-0.342-0.006-0.636-0.024-0.905h0.462l0.018,0.569h0.024c0.132-0.39,0.45-0.636,0.804-0.636
			c0.06,0,0.102,0.007,0.15,0.019v0.497c-0.054-0.012-0.108-0.018-0.18-0.018c-0.372,0-0.636,0.282-0.708,0.678
			c-0.012,0.072-0.024,0.156-0.024,0.246v1.547H191.3V299.047z"/>
		<path d="M193.189,300.504c0.156,0.103,0.432,0.21,0.696,0.21c0.384,0,0.563-0.191,0.563-0.432c0-0.252-0.15-0.39-0.54-0.533
			c-0.522-0.187-0.768-0.474-0.768-0.822c0-0.468,0.378-0.852,1.001-0.852c0.294,0,0.552,0.084,0.713,0.181l-0.132,0.384
			c-0.114-0.072-0.324-0.168-0.594-0.168c-0.312,0-0.485,0.18-0.485,0.396c0,0.24,0.174,0.348,0.551,0.491
			c0.504,0.192,0.762,0.444,0.762,0.876c0,0.51-0.396,0.869-1.085,0.869c-0.318,0-0.611-0.077-0.815-0.197L193.189,300.504z"/>
		<path d="M198.264,299.568c0,1.074-0.744,1.542-1.445,1.542c-0.786,0-1.391-0.576-1.391-1.493c0-0.972,0.636-1.542,1.439-1.542
			C197.7,298.075,198.264,298.682,198.264,299.568z M195.961,299.599c0,0.636,0.366,1.115,0.881,1.115
			c0.504,0,0.881-0.474,0.881-1.127c0-0.492-0.246-1.115-0.869-1.115C196.231,298.472,195.961,299.047,195.961,299.599z"/>
		<path d="M200.221,297.056c0.228-0.048,0.588-0.083,0.954-0.083c0.522,0,0.857,0.09,1.109,0.293
			c0.21,0.156,0.336,0.396,0.336,0.714c0,0.39-0.258,0.731-0.684,0.888v0.012c0.384,0.096,0.833,0.414,0.833,1.014
			c0,0.348-0.138,0.611-0.342,0.81c-0.282,0.258-0.738,0.378-1.397,0.378c-0.36,0-0.635-0.024-0.81-0.048V297.056z M200.743,298.711
			h0.474c0.552,0,0.875-0.287,0.875-0.678c0-0.474-0.36-0.659-0.887-0.659c-0.24,0-0.378,0.018-0.462,0.036V298.711z
			 M200.743,300.648c0.102,0.018,0.252,0.023,0.438,0.023c0.54,0,1.038-0.197,1.038-0.785c0-0.552-0.474-0.779-1.043-0.779h-0.432
			V300.648z"/>
		<path d="M205.062,301.044l-0.042-0.366h-0.018c-0.162,0.229-0.474,0.433-0.888,0.433c-0.587,0-0.887-0.414-0.887-0.834
			c0-0.701,0.624-1.085,1.745-1.079v-0.061c0-0.239-0.066-0.671-0.66-0.671c-0.27,0-0.552,0.084-0.756,0.216l-0.12-0.349
			c0.24-0.155,0.587-0.258,0.953-0.258c0.888,0,1.104,0.606,1.104,1.188v1.086c0,0.252,0.012,0.497,0.048,0.695H205.062z
			 M204.984,299.562c-0.576-0.012-1.229,0.09-1.229,0.654c0,0.342,0.228,0.503,0.498,0.503c0.378,0,0.618-0.239,0.702-0.485
			c0.018-0.054,0.03-0.114,0.03-0.168V299.562z"/>
		<path d="M208.417,300.936c-0.138,0.072-0.444,0.168-0.834,0.168c-0.875,0-1.445-0.594-1.445-1.48c0-0.894,0.611-1.541,1.559-1.541
			c0.312,0,0.587,0.077,0.731,0.149l-0.12,0.408c-0.126-0.072-0.324-0.139-0.612-0.139c-0.666,0-1.025,0.492-1.025,1.098
			c0,0.672,0.432,1.086,1.007,1.086c0.3,0,0.498-0.078,0.647-0.145L208.417,300.936z"/>
		<path d="M209.557,299.473h0.012c0.072-0.102,0.174-0.228,0.258-0.33l0.852-1.001h0.635l-1.121,1.193l1.277,1.709h-0.642
			l-1.001-1.392l-0.27,0.3v1.092h-0.521v-4.258h0.521V299.473z"/>
	</g>
	
		<line style="display:inline;fill:#FFFFFF;stroke:#E61E5A;stroke-width:0.75;stroke-miterlimit:10;" x1="174" y1="328.4" x2="184" y2="328.4"/>
	
		<line style="display:inline;fill:#FFFFFF;stroke:#E61E5A;stroke-width:0.75;stroke-miterlimit:10;" x1="179" y1="333.4" x2="179" y2="323.4"/>
	<circle style="display:inline;fill:#E61E5A;" cx="179" cy="328.4" r="2"/>
	<g style="display:inline;">
		<path d="M185.456,325.45c0.252-0.042,0.582-0.077,1.001-0.077c0.516,0,0.894,0.119,1.134,0.335
			c0.222,0.192,0.354,0.486,0.354,0.846c0,0.366-0.108,0.654-0.312,0.863c-0.275,0.294-0.726,0.444-1.235,0.444
			c-0.156,0-0.3-0.006-0.42-0.036v1.619h-0.522V325.45z M185.978,327.399c0.114,0.03,0.258,0.042,0.432,0.042
			c0.63,0,1.014-0.306,1.014-0.863c0-0.534-0.378-0.792-0.954-0.792c-0.228,0-0.402,0.019-0.492,0.042V327.399z"/>
		<path d="M188.773,328.088c0.012,0.714,0.468,1.008,0.996,1.008c0.378,0,0.605-0.066,0.804-0.15l0.09,0.378
			c-0.186,0.084-0.504,0.18-0.965,0.18c-0.894,0-1.427-0.587-1.427-1.463c0-0.875,0.516-1.565,1.361-1.565
			c0.947,0,1.199,0.834,1.199,1.367c0,0.108-0.012,0.192-0.018,0.246H188.773z M190.321,327.71c0.006-0.336-0.138-0.857-0.731-0.857
			c-0.534,0-0.768,0.492-0.81,0.857H190.321z"/>
		<path d="M191.486,325.186h0.527v4.258h-0.527V325.186z"/>
		<path d="M193.105,326.542l0.57,1.631c0.096,0.264,0.174,0.504,0.234,0.744h0.018c0.066-0.24,0.15-0.48,0.246-0.744l0.564-1.631
			h0.551l-1.139,2.902h-0.504l-1.103-2.902H193.105z"/>
		<path d="M196.375,325.726c0.006,0.18-0.126,0.323-0.336,0.323c-0.186,0-0.318-0.144-0.318-0.323c0-0.187,0.138-0.33,0.33-0.33
			C196.249,325.396,196.375,325.54,196.375,325.726z M195.788,329.444v-2.902h0.527v2.902H195.788z"/>
		<path d="M197.119,328.904c0.156,0.103,0.432,0.21,0.696,0.21c0.384,0,0.563-0.191,0.563-0.432c0-0.252-0.15-0.39-0.54-0.533
			c-0.522-0.187-0.768-0.474-0.768-0.822c0-0.468,0.378-0.852,1.001-0.852c0.294,0,0.552,0.084,0.713,0.181l-0.132,0.384
			c-0.114-0.072-0.324-0.168-0.594-0.168c-0.312,0-0.485,0.18-0.485,0.396c0,0.24,0.174,0.348,0.551,0.491
			c0.504,0.192,0.762,0.444,0.762,0.876c0,0.51-0.396,0.869-1.085,0.869c-0.318,0-0.611-0.077-0.815-0.197L197.119,328.904z"/>
	</g>
	
		<line style="display:inline;fill:#FFFFFF;stroke:#E61E5A;stroke-width:0.75;stroke-miterlimit:10;" x1="174" y1="328.4" x2="184" y2="328.4"/>
	
		<line style="display:inline;fill:#FFFFFF;stroke:#E61E5A;stroke-width:0.75;stroke-miterlimit:10;" x1="179" y1="333.4" x2="179" y2="323.4"/>
	<circle style="display:inline;fill:#E61E5A;" cx="179" cy="328.4" r="2"/>
	<g style="display:inline;">
		<path d="M185.384,328.808c0.234,0.144,0.576,0.264,0.936,0.264c0.534,0,0.846-0.281,0.846-0.689c0-0.378-0.216-0.594-0.762-0.804
			c-0.66-0.233-1.067-0.575-1.067-1.146c0-0.629,0.521-1.097,1.307-1.097c0.414,0,0.714,0.096,0.894,0.197l-0.144,0.426
			c-0.132-0.071-0.402-0.191-0.768-0.191c-0.552,0-0.762,0.33-0.762,0.605c0,0.378,0.246,0.563,0.804,0.779
			c0.684,0.264,1.032,0.594,1.032,1.188c0,0.624-0.462,1.163-1.416,1.163c-0.39,0-0.815-0.113-1.031-0.258L185.384,328.808z"/>
		<path d="M188.396,325.186h0.527v1.812h0.012c0.084-0.15,0.216-0.282,0.378-0.372c0.156-0.09,0.342-0.15,0.54-0.15
			c0.39,0,1.013,0.24,1.013,1.242v1.727h-0.527v-1.667c0-0.468-0.174-0.863-0.672-0.863c-0.342,0-0.612,0.239-0.708,0.527
			c-0.03,0.072-0.036,0.15-0.036,0.252v1.751h-0.527V325.186z"/>
		<path d="M194.353,327.968c0,1.074-0.744,1.542-1.445,1.542c-0.786,0-1.391-0.576-1.391-1.493c0-0.972,0.635-1.542,1.439-1.542
			C193.789,326.475,194.353,327.082,194.353,327.968z M192.05,327.999c0,0.636,0.366,1.115,0.881,1.115
			c0.504,0,0.881-0.474,0.881-1.127c0-0.492-0.246-1.115-0.869-1.115C192.319,326.872,192.05,327.447,192.05,327.999z"/>
		<path d="M195.02,327.447c0-0.342-0.006-0.636-0.024-0.905h0.462l0.018,0.569h0.024c0.132-0.39,0.45-0.636,0.804-0.636
			c0.06,0,0.102,0.007,0.15,0.019v0.497c-0.054-0.012-0.108-0.018-0.18-0.018c-0.372,0-0.635,0.282-0.708,0.678
			c-0.012,0.072-0.024,0.156-0.024,0.246v1.547h-0.521V327.447z"/>
		<path d="M197.761,325.708v0.834h0.756v0.401h-0.756v1.565c0,0.359,0.102,0.563,0.396,0.563c0.138,0,0.24-0.018,0.306-0.036
			l0.024,0.396c-0.102,0.042-0.264,0.071-0.468,0.071c-0.246,0-0.443-0.077-0.569-0.222c-0.15-0.155-0.204-0.414-0.204-0.756v-1.583
			h-0.45v-0.401h0.45v-0.695L197.761,325.708z"/>
		<path d="M199.04,328.904c0.156,0.103,0.432,0.21,0.696,0.21c0.384,0,0.563-0.191,0.563-0.432c0-0.252-0.15-0.39-0.54-0.533
			c-0.522-0.187-0.768-0.474-0.768-0.822c0-0.468,0.378-0.852,1.001-0.852c0.294,0,0.552,0.084,0.713,0.181l-0.132,0.384
			c-0.114-0.072-0.324-0.168-0.594-0.168c-0.312,0-0.485,0.18-0.485,0.396c0,0.24,0.174,0.348,0.551,0.491
			c0.504,0.192,0.762,0.444,0.762,0.876c0,0.51-0.396,0.869-1.085,0.869c-0.318,0-0.611-0.077-0.815-0.197L199.04,328.904z"/>
	</g>
	
		<line style="display:inline;fill:#FFFFFF;stroke:#E61E5A;stroke-width:0.75;stroke-miterlimit:10;" x1="128" y1="328.4" x2="138" y2="328.4"/>
	
		<line style="display:inline;fill:#FFFFFF;stroke:#E61E5A;stroke-width:0.75;stroke-miterlimit:10;" x1="133" y1="333.4" x2="133" y2="323.4"/>
	<circle style="display:inline;fill:#E61E5A;" cx="133" cy="328.4" r="2"/>
	<g style="display:inline;">
		<path d="M140.235,325.846h-1.229v-0.444h2.992v0.444h-1.235v3.598h-0.528V325.846z"/>
		<path d="M142.39,325.186h0.527v1.812h0.012c0.084-0.15,0.216-0.282,0.378-0.372c0.156-0.09,0.342-0.15,0.54-0.15
			c0.39,0,1.013,0.24,1.013,1.242v1.727h-0.527v-1.667c0-0.468-0.174-0.863-0.672-0.863c-0.342,0-0.612,0.239-0.708,0.527
			c-0.03,0.072-0.036,0.15-0.036,0.252v1.751h-0.527V325.186z"/>
		<path d="M146.307,325.726c0.006,0.18-0.126,0.323-0.336,0.323c-0.186,0-0.318-0.144-0.318-0.323c0-0.187,0.138-0.33,0.33-0.33
			C146.181,325.396,146.307,325.54,146.307,325.726z M145.72,329.444v-2.902h0.527v2.902H145.72z"/>
		<path d="M149.624,326.542c-0.012,0.21-0.024,0.443-0.024,0.798v1.685c0,0.666-0.132,1.073-0.414,1.325
			c-0.282,0.264-0.689,0.348-1.055,0.348c-0.348,0-0.732-0.084-0.966-0.239l0.132-0.402c0.192,0.12,0.492,0.229,0.852,0.229
			c0.54,0,0.935-0.282,0.935-1.014v-0.324h-0.012c-0.162,0.271-0.474,0.486-0.923,0.486c-0.72,0-1.235-0.612-1.235-1.415
			c0-0.984,0.642-1.542,1.307-1.542c0.504,0,0.78,0.265,0.905,0.504h0.012l0.024-0.438H149.624z M149.078,327.687
			c0-0.09-0.006-0.168-0.03-0.24c-0.096-0.306-0.354-0.558-0.738-0.558c-0.503,0-0.863,0.426-0.863,1.098
			c0,0.569,0.288,1.043,0.857,1.043c0.324,0,0.618-0.203,0.731-0.539c0.03-0.09,0.042-0.192,0.042-0.282V327.687z"/>
		<path d="M150.478,325.186h0.527v1.812h0.012c0.084-0.15,0.216-0.282,0.378-0.372c0.156-0.09,0.342-0.15,0.54-0.15
			c0.39,0,1.013,0.24,1.013,1.242v1.727h-0.527v-1.667c0-0.468-0.174-0.863-0.672-0.863c-0.342,0-0.612,0.239-0.708,0.527
			c-0.03,0.072-0.036,0.15-0.036,0.252v1.751h-0.527V325.186z"/>
		<path d="M155.097,325.402h0.522v3.604h1.727v0.438h-2.249V325.402z"/>
	</g>
	
		<line style="display:inline;fill:#FFFFFF;stroke:#E61E5A;stroke-width:0.75;stroke-miterlimit:10;" x1="220" y1="328.4" x2="230" y2="328.4"/>
	
		<line style="display:inline;fill:#FFFFFF;stroke:#E61E5A;stroke-width:0.75;stroke-miterlimit:10;" x1="225" y1="333.4" x2="225" y2="323.4"/>
	<circle style="display:inline;fill:#E61E5A;" cx="225" cy="328.4" r="2"/>
	<g style="display:inline;">
		<path d="M232.235,325.846h-1.229v-0.444h2.992v0.444h-1.235v3.598h-0.528V325.846z"/>
		<path d="M234.39,325.186h0.527v1.812h0.012c0.084-0.15,0.216-0.282,0.378-0.372c0.156-0.09,0.342-0.15,0.54-0.15
			c0.39,0,1.013,0.24,1.013,1.242v1.727h-0.527v-1.667c0-0.468-0.174-0.863-0.672-0.863c-0.342,0-0.612,0.239-0.708,0.527
			c-0.03,0.072-0.036,0.15-0.036,0.252v1.751h-0.527V325.186z"/>
		<path d="M238.307,325.726c0.006,0.18-0.126,0.323-0.336,0.323c-0.186,0-0.318-0.144-0.318-0.323c0-0.187,0.138-0.33,0.33-0.33
			C238.181,325.396,238.307,325.54,238.307,325.726z M237.72,329.444v-2.902h0.527v2.902H237.72z"/>
		<path d="M241.624,326.542c-0.012,0.21-0.024,0.443-0.024,0.798v1.685c0,0.666-0.132,1.073-0.414,1.325
			c-0.282,0.264-0.689,0.348-1.055,0.348c-0.348,0-0.732-0.084-0.966-0.239l0.132-0.402c0.192,0.12,0.492,0.229,0.852,0.229
			c0.54,0,0.935-0.282,0.935-1.014v-0.324h-0.012c-0.162,0.271-0.474,0.486-0.923,0.486c-0.72,0-1.235-0.612-1.235-1.415
			c0-0.984,0.642-1.542,1.307-1.542c0.504,0,0.78,0.265,0.905,0.504h0.012l0.024-0.438H241.624z M241.078,327.687
			c0-0.09-0.006-0.168-0.03-0.24c-0.096-0.306-0.354-0.558-0.738-0.558c-0.503,0-0.863,0.426-0.863,1.098
			c0,0.569,0.288,1.043,0.857,1.043c0.324,0,0.618-0.203,0.731-0.539c0.03-0.09,0.042-0.192,0.042-0.282V327.687z"/>
		<path d="M242.478,325.186h0.527v1.812h0.012c0.084-0.15,0.216-0.282,0.378-0.372c0.156-0.09,0.342-0.15,0.54-0.15
			c0.39,0,1.013,0.24,1.013,1.242v1.727h-0.527v-1.667c0-0.468-0.174-0.863-0.672-0.863c-0.342,0-0.612,0.239-0.708,0.527
			c-0.03,0.072-0.036,0.15-0.036,0.252v1.751h-0.527V325.186z"/>
		<path d="M247.097,325.456c0.264-0.054,0.642-0.083,1.001-0.083c0.558,0,0.917,0.102,1.169,0.329
			c0.204,0.18,0.318,0.456,0.318,0.768c0,0.534-0.336,0.888-0.762,1.031v0.019c0.312,0.107,0.498,0.396,0.594,0.815
			c0.132,0.563,0.228,0.953,0.312,1.109h-0.54c-0.066-0.114-0.156-0.462-0.27-0.966c-0.12-0.558-0.336-0.768-0.81-0.785h-0.492
			v1.751h-0.522V325.456z M247.619,327.297h0.534c0.558,0,0.912-0.307,0.912-0.768c0-0.522-0.378-0.75-0.93-0.756
			c-0.252,0-0.432,0.023-0.516,0.048V327.297z"/>
	</g>
	
		<line style="display:inline;fill:#FFFFFF;stroke:#E61E5A;stroke-width:0.75;stroke-miterlimit:10;" x1="76" y1="435.7" x2="86" y2="435.7"/>
	
		<line style="display:inline;fill:#FFFFFF;stroke:#E61E5A;stroke-width:0.75;stroke-miterlimit:10;" x1="81" y1="440.7" x2="81" y2="430.7"/>
	<circle style="display:inline;fill:#E61E5A;" cx="81" cy="435.7" r="2"/>
	<g style="display:inline;">
		<path d="M90.28,436.612c-0.192,0.096-0.576,0.191-1.067,0.191c-1.14,0-1.997-0.719-1.997-2.045c0-1.265,0.857-2.122,2.111-2.122
			c0.504,0,0.822,0.107,0.959,0.18l-0.126,0.426c-0.198-0.096-0.479-0.168-0.815-0.168c-0.947,0-1.577,0.605-1.577,1.667
			c0,0.989,0.57,1.625,1.553,1.625c0.318,0,0.642-0.065,0.852-0.168L90.28,436.612z"/>
		<path d="M92.483,436.744l-0.042-0.366h-0.018c-0.162,0.229-0.474,0.433-0.888,0.433c-0.587,0-0.887-0.414-0.887-0.834
			c0-0.701,0.624-1.085,1.745-1.079v-0.061c0-0.239-0.066-0.671-0.66-0.671c-0.27,0-0.552,0.084-0.756,0.216l-0.12-0.349
			c0.24-0.155,0.587-0.258,0.953-0.258c0.888,0,1.104,0.606,1.104,1.188v1.086c0,0.252,0.012,0.497,0.048,0.695H92.483z
			 M92.405,435.263c-0.576-0.012-1.229,0.09-1.229,0.654c0,0.342,0.228,0.503,0.498,0.503c0.378,0,0.618-0.239,0.702-0.485
			c0.018-0.054,0.03-0.114,0.03-0.168V435.263z"/>
		<path d="M93.768,432.486h0.527v4.258h-0.527V432.486z"/>
		<path d="M95.238,436.744v-2.501H94.83v-0.401h0.408v-0.138c0-0.408,0.09-0.78,0.336-1.014c0.198-0.192,0.461-0.27,0.708-0.27
			c0.186,0,0.348,0.042,0.45,0.084l-0.072,0.407c-0.078-0.036-0.186-0.065-0.336-0.065c-0.45,0-0.563,0.396-0.563,0.839v0.156h0.701
			v0.401H95.76v2.501H95.238z"/>
		<path d="M98.226,432.702h0.522v3.604h1.727v0.438h-2.249V432.702z"/>
	</g>
	
		<line style="display:inline;fill:#FFFFFF;stroke:#E61E5A;stroke-width:0.75;stroke-miterlimit:10;" x1="272" y1="435.7" x2="282" y2="435.7"/>
	
		<line style="display:inline;fill:#FFFFFF;stroke:#E61E5A;stroke-width:0.75;stroke-miterlimit:10;" x1="277" y1="440.7" x2="277" y2="430.7"/>
	<circle style="display:inline;fill:#E61E5A;" cx="277" cy="435.7" r="2"/>
	<g style="display:inline;">
		<path d="M286.28,436.612c-0.192,0.096-0.576,0.191-1.067,0.191c-1.14,0-1.997-0.719-1.997-2.045c0-1.265,0.857-2.122,2.111-2.122
			c0.504,0,0.822,0.107,0.959,0.18l-0.126,0.426c-0.198-0.096-0.479-0.168-0.815-0.168c-0.947,0-1.577,0.605-1.577,1.667
			c0,0.989,0.57,1.625,1.553,1.625c0.318,0,0.642-0.065,0.852-0.168L286.28,436.612z"/>
		<path d="M288.483,436.744l-0.042-0.366h-0.018c-0.162,0.229-0.474,0.433-0.888,0.433c-0.587,0-0.887-0.414-0.887-0.834
			c0-0.701,0.624-1.085,1.745-1.079v-0.061c0-0.239-0.066-0.671-0.66-0.671c-0.27,0-0.552,0.084-0.756,0.216l-0.12-0.349
			c0.24-0.155,0.587-0.258,0.953-0.258c0.888,0,1.104,0.606,1.104,1.188v1.086c0,0.252,0.012,0.497,0.048,0.695H288.483z
			 M288.405,435.263c-0.576-0.012-1.229,0.09-1.229,0.654c0,0.342,0.228,0.503,0.498,0.503c0.378,0,0.618-0.239,0.702-0.485
			c0.018-0.054,0.03-0.114,0.03-0.168V435.263z"/>
		<path d="M289.768,432.486h0.527v4.258h-0.527V432.486z"/>
		<path d="M291.238,436.744v-2.501h-0.408v-0.401h0.408v-0.138c0-0.408,0.09-0.78,0.336-1.014c0.198-0.192,0.461-0.27,0.708-0.27
			c0.186,0,0.348,0.042,0.45,0.084l-0.072,0.407c-0.078-0.036-0.186-0.065-0.336-0.065c-0.45,0-0.563,0.396-0.563,0.839v0.156h0.701
			v0.401h-0.701v2.501H291.238z"/>
		<path d="M294.226,432.756c0.264-0.054,0.642-0.083,1.001-0.083c0.558,0,0.917,0.102,1.169,0.329
			c0.204,0.18,0.318,0.456,0.318,0.768c0,0.534-0.336,0.888-0.762,1.031v0.019c0.312,0.107,0.498,0.396,0.594,0.815
			c0.132,0.563,0.228,0.953,0.312,1.109h-0.54c-0.066-0.114-0.156-0.462-0.27-0.966c-0.12-0.558-0.336-0.768-0.81-0.785h-0.492
			v1.751h-0.522V432.756z M294.748,434.598h0.534c0.558,0,0.912-0.307,0.912-0.768c0-0.522-0.378-0.75-0.93-0.756
			c-0.252,0-0.432,0.023-0.516,0.048V434.598z"/>
	</g>
	
		<line style="display:inline;fill:#FFFFFF;stroke:#E61E5A;stroke-width:0.75;stroke-miterlimit:10;" x1="89" y1="538.2" x2="99" y2="538.2"/>
	
		<line style="display:inline;fill:#FFFFFF;stroke:#E61E5A;stroke-width:0.75;stroke-miterlimit:10;" x1="94" y1="543.2" x2="94" y2="533.2"/>
	<circle style="display:inline;fill:#E61E5A;" cx="94" cy="538.2" r="2"/>
	<g style="display:inline;">
		<path d="M100.456,535.202h2.177v0.438h-1.655v1.344h1.529v0.432h-1.529v1.829h-0.522V535.202z"/>
		<path d="M105.8,537.769c0,1.074-0.744,1.542-1.445,1.542c-0.786,0-1.391-0.576-1.391-1.493c0-0.972,0.636-1.542,1.439-1.542
			C105.236,536.275,105.8,536.882,105.8,537.769z M103.498,537.799c0,0.636,0.366,1.115,0.881,1.115
			c0.504,0,0.881-0.474,0.881-1.127c0-0.492-0.246-1.115-0.869-1.115C103.767,536.672,103.498,537.247,103.498,537.799z"/>
		<path d="M109.094,537.769c0,1.074-0.744,1.542-1.445,1.542c-0.786,0-1.391-0.576-1.391-1.493c0-0.972,0.636-1.542,1.439-1.542
			C108.53,536.275,109.094,536.882,109.094,537.769z M106.792,537.799c0,0.636,0.366,1.115,0.881,1.115
			c0.504,0,0.881-0.474,0.881-1.127c0-0.492-0.246-1.115-0.869-1.115C107.061,536.672,106.792,537.247,106.792,537.799z"/>
		<path d="M110.397,535.508v0.834h0.756v0.401h-0.756v1.565c0,0.359,0.102,0.563,0.396,0.563c0.138,0,0.24-0.018,0.306-0.036
			l0.024,0.396c-0.102,0.042-0.264,0.071-0.468,0.071c-0.246,0-0.443-0.077-0.569-0.222c-0.15-0.155-0.204-0.414-0.204-0.756v-1.583
			h-0.45v-0.401h0.45v-0.695L110.397,535.508z"/>
		<path d="M113.037,535.202h0.522v3.604h1.727v0.438h-2.249V535.202z"/>
	</g>
	
		<line style="display:inline;fill:#FFFFFF;stroke:#E61E5A;stroke-width:0.75;stroke-miterlimit:10;" x1="259" y1="538.2" x2="269" y2="538.2"/>
	
		<line style="display:inline;fill:#FFFFFF;stroke:#E61E5A;stroke-width:0.75;stroke-miterlimit:10;" x1="264" y1="543.2" x2="264" y2="533.2"/>
	<circle style="display:inline;fill:#E61E5A;" cx="264" cy="538.2" r="2"/>
	<g style="display:inline;">
		<path d="M270.456,535.202h2.177v0.438h-1.655v1.344h1.529v0.432h-1.529v1.829h-0.522V535.202z"/>
		<path d="M275.8,537.769c0,1.074-0.744,1.542-1.445,1.542c-0.786,0-1.391-0.576-1.391-1.493c0-0.972,0.636-1.542,1.439-1.542
			C275.236,536.275,275.8,536.882,275.8,537.769z M273.498,537.799c0,0.636,0.366,1.115,0.881,1.115
			c0.504,0,0.881-0.474,0.881-1.127c0-0.492-0.246-1.115-0.869-1.115C273.767,536.672,273.498,537.247,273.498,537.799z"/>
		<path d="M279.094,537.769c0,1.074-0.744,1.542-1.445,1.542c-0.786,0-1.391-0.576-1.391-1.493c0-0.972,0.636-1.542,1.439-1.542
			C278.53,536.275,279.094,536.882,279.094,537.769z M276.792,537.799c0,0.636,0.366,1.115,0.881,1.115
			c0.504,0,0.881-0.474,0.881-1.127c0-0.492-0.246-1.115-0.869-1.115C277.061,536.672,276.792,537.247,276.792,537.799z"/>
		<path d="M280.397,535.508v0.834h0.756v0.401h-0.756v1.565c0,0.359,0.102,0.563,0.396,0.563c0.138,0,0.24-0.018,0.306-0.036
			l0.024,0.396c-0.102,0.042-0.264,0.071-0.468,0.071c-0.246,0-0.443-0.077-0.569-0.222c-0.15-0.155-0.204-0.414-0.204-0.756v-1.583
			h-0.45v-0.401h0.45v-0.695L280.397,535.508z"/>
		<path d="M283.037,535.256c0.264-0.054,0.642-0.083,1.001-0.083c0.558,0,0.917,0.102,1.169,0.329
			c0.204,0.18,0.318,0.456,0.318,0.768c0,0.534-0.336,0.888-0.762,1.031v0.019c0.312,0.107,0.498,0.396,0.594,0.815
			c0.132,0.563,0.228,0.953,0.312,1.109h-0.54c-0.066-0.114-0.156-0.462-0.27-0.966c-0.12-0.558-0.336-0.768-0.81-0.785h-0.492
			v1.751h-0.522V535.256z M283.559,537.098h0.534c0.558,0,0.912-0.307,0.912-0.768c0-0.522-0.378-0.75-0.93-0.756
			c-0.252,0-0.432,0.023-0.516,0.048V537.098z"/>
	</g>
</g>
</svg>
